# MagicaVoxel @ Ephtracy

# group
o 

# material
mtllib brown.mtl
usemtl palette

# normals
vn -1 0 0
vn 1 0 0
vn 0 0 1
vn 0 0 -1
vn 0 -1 0
vn 0 1 0

# texcoords
vt 0.0332031 0.5
vt 0.201172 0.5
vt 0.255859 0.5
vt 0.396484 0.5
vt 0.537109 0.5
vt 0.849609 0.5
vt 0.978516 0.5
vt 0.994141 0.5

# verts
v -1.2 1.1 1
v -1.2 1.1 -0.8
v -1.2 2.7 1.2
v -1.2 2.7 1
v -1.2 2.7 -0.8
v -1.2 2.7 -1
v -1.2 3.7 1.2
v -1.2 3.7 -1
v -0.6 1.1 1.1
v -0.6 1.1 1
v -0.6 1.1 -0.8
v -0.6 1.1 -0.9
v -0.6 1.8 1.1
v -0.6 1.8 1
v -0.6 1.8 -0.8
v -0.6 1.8 -0.9
v -0.6 2.5 1.1
v -0.6 2.5 1
v -0.6 2.5 -0.8
v -0.6 2.5 -0.9
v -0.6 2.7 1.1
v -0.6 2.7 1
v -0.6 2.7 -0.8
v -0.6 2.7 -0.9
v -0.2 2 1.3
v -0.2 2 1
v -0.2 2 -0.8
v -0.2 2 -1.1
v -0.2 2.5 1.3
v -0.2 2.5 1.1
v -0.2 2.5 1
v -0.2 2.5 -0.8
v -0.2 2.5 -0.9
v -0.2 2.5 -1.1
v 0.1 2 1.3
v 0.1 2 1
v 0.1 2 -0.8
v 0.1 2 -1.1
v 0.1 2.5 1.3
v 0.1 2.5 1.1
v 0.1 2.5 1
v 0.1 2.5 -0.8
v 0.1 2.5 -0.9
v 0.1 2.5 -1.1
v 0.3 1.3 0.5
v 0.3 1.3 -0.4
v 0.3 1.5 0.5
v 0.3 1.5 -0.4
v 0.4 1.5 0.5
v 0.4 1.5 -0.4
v 0.4 1.6 0.5
v 0.4 1.6 -0.4
v 0.4 1.8 1
v 0.4 1.8 -0.8
v 0.4 1.9 0.3
v 0.4 1.9 -0.1
v 0.4 2.2 1
v 0.4 2.2 0.3
v 0.4 2.2 -0.1
v 0.4 2.2 -0.8
v 0.4 2.7 1.2
v 0.4 2.7 1.1
v 0.4 2.7 1
v 0.4 2.7 -0.8
v 0.4 2.7 -0.9
v 0.4 2.7 -1
v 0.4 2.9 1
v 0.4 2.9 -0.8
v 0.4 3.7 1.2
v 0.4 3.7 -1
v 0.5 1.1 1.1
v 0.5 1.1 -0.9
v 0.5 1.3 0.5
v 0.5 1.3 -0.4
v 0.5 1.6 0.5
v 0.5 1.6 -0.4
v 0.5 1.8 1.1
v 0.5 1.8 -0.9
v 0.5 2.2 1
v 0.5 2.2 0.3
v 0.5 2.2 0.2
v 0.5 2.2 0
v 0.5 2.2 -0.1
v 0.5 2.2 -0.8
v 0.5 2.3 0.7
v 0.5 2.3 0.6
v 0.5 2.3 -0.5
v 0.5 2.3 -0.6
v 0.5 2.4 0.8
v 0.5 2.4 0.7
v 0.5 2.4 0.6
v 0.5 2.4 -0.5
v 0.5 2.4 -0.6
v 0.5 2.4 -0.7
v 0.5 2.5 1.1
v 0.5 2.5 1
v 0.5 2.5 0.8
v 0.5 2.5 0.7
v 0.5 2.5 0.6
v 0.5 2.5 0.2
v 0.5 2.5 0
v 0.5 2.5 -0.5
v 0.5 2.5 -0.6
v 0.5 2.5 -0.7
v 0.5 2.5 -0.8
v 0.5 2.5 -0.9
v 0.5 2.6 0.7
v 0.5 2.6 0.6
v 0.5 2.6 -0.5
v 0.5 2.6 -0.6
v 0.5 2.7 1.1
v 0.5 2.7 -0.9
v 0.6 1.9 0.3
v 0.6 1.9 -0.1
v 0.6 2.2 0.3
v 0.6 2.2 0.2
v 0.6 2.2 0
v 0.6 2.2 -0.1
v 0.6 2.5 0.2
v 0.6 2.5 0
v -0.2 2 1.3
v -0.2 2.5 1.3
v 0.1 2 1.3
v 0.1 2.5 1.3
v -1.2 2.7 1.2
v -1.2 3.7 1.2
v 0.4 2.7 1.2
v 0.4 3.7 1.2
v -0.6 1.1 1.1
v -0.6 1.8 1.1
v -0.6 2.5 1.1
v -0.6 2.7 1.1
v -0.2 2.5 1.1
v 0.1 2.5 1.1
v 0.4 2.7 1.1
v 0.5 1.1 1.1
v 0.5 1.8 1.1
v 0.5 2.5 1.1
v 0.5 2.7 1.1
v -1.2 1.1 1
v -1.2 2.7 1
v -0.6 1.1 1
v -0.6 1.8 1
v -0.6 2.5 1
v -0.6 2.7 1
v -0.5 1.8 1
v -0.5 2.5 1
v -0.2 2 1
v -0.2 2.5 1
v 0.1 2 1
v 0.1 2.5 1
v 0.4 1.8 1
v 0.4 2.2 1
v 0.4 2.5 1
v 0.5 2.2 1
v 0.5 2.5 1
v 0.4 1.9 0.3
v 0.4 2.2 0.3
v 0.5 2.2 0.3
v 0.6 1.9 0.3
v 0.6 2.2 0.3
v 0.5 2.2 0.2
v 0.5 2.5 0.2
v 0.6 2.2 0.2
v 0.6 2.5 0.2
v 0.3 1.3 -0.4
v 0.3 1.5 -0.4
v 0.4 1.3 -0.4
v 0.4 1.5 -0.4
v 0.4 1.6 -0.4
v 0.5 1.3 -0.4
v 0.5 1.6 -0.4
v 0.3 1.3 0.5
v 0.3 1.5 0.5
v 0.4 1.3 0.5
v 0.4 1.5 0.5
v 0.4 1.6 0.5
v 0.5 1.3 0.5
v 0.5 1.6 0.5
v 0.5 2.2 0
v 0.5 2.5 0
v 0.6 2.2 0
v 0.6 2.5 0
v 0.4 1.9 -0.1
v 0.4 2.2 -0.1
v 0.5 2.2 -0.1
v 0.6 1.9 -0.1
v 0.6 2.2 -0.1
v -1.2 1.1 -0.8
v -1.2 2.7 -0.8
v -0.6 1.1 -0.8
v -0.6 1.8 -0.8
v -0.6 2.5 -0.8
v -0.6 2.7 -0.8
v -0.5 1.8 -0.8
v -0.5 2.5 -0.8
v -0.2 2 -0.8
v -0.2 2.5 -0.8
v 0.1 2 -0.8
v 0.1 2.5 -0.8
v 0.4 1.8 -0.8
v 0.4 2.2 -0.8
v 0.4 2.5 -0.8
v 0.5 2.2 -0.8
v 0.5 2.5 -0.8
v -0.6 1.1 -0.9
v -0.6 1.8 -0.9
v -0.6 2.5 -0.9
v -0.6 2.7 -0.9
v -0.2 2.5 -0.9
v 0.1 2.5 -0.9
v 0.4 2.7 -0.9
v 0.5 1.1 -0.9
v 0.5 1.8 -0.9
v 0.5 2.5 -0.9
v 0.5 2.7 -0.9
v -1.2 2.7 -1
v -1.2 3.7 -1
v 0.4 2.7 -1
v 0.4 3.7 -1
v -0.2 2 -1.1
v -0.2 2.5 -1.1
v 0.1 2 -1.1
v 0.1 2.5 -1.1
v -0.6 1.1 1.1
v 0.5 1.1 1.1
v -1.2 1.1 1
v -0.6 1.1 1
v -1.2 1.1 -0.8
v -0.6 1.1 -0.8
v -0.6 1.1 -0.9
v 0.5 1.1 -0.9
v 0.3 1.5 0.5
v 0.4 1.5 0.5
v 0.3 1.5 -0.4
v 0.4 1.5 -0.4
v 0.4 1.6 0.5
v 0.5 1.6 0.5
v 0.4 1.6 -0.4
v 0.5 1.6 -0.4
v 0.4 1.9 0.3
v 0.6 1.9 0.3
v 0.4 1.9 -0.1
v 0.6 1.9 -0.1
v -0.2 2 1.3
v 0.1 2 1.3
v -0.2 2 1
v 0.1 2 1
v -0.2 2 -0.8
v 0.1 2 -0.8
v -0.2 2 -1.1
v 0.1 2 -1.1
v 0.4 2.2 1
v 0.5 2.2 1
v 0.4 2.2 0.3
v 0.5 2.2 0.3
v 0.4 2.2 -0.1
v 0.5 2.2 -0.1
v 0.4 2.2 -0.8
v 0.5 2.2 -0.8
v -0.6 2.5 1.1
v -0.2 2.5 1.1
v 0.1 2.5 1.1
v 0.5 2.5 1.1
v -0.6 2.5 1
v -0.5 2.5 1
v -0.2 2.5 1
v 0.1 2.5 1
v 0.4 2.5 1
v 0.5 2.5 1
v -0.6 2.5 -0.8
v -0.5 2.5 -0.8
v -0.2 2.5 -0.8
v 0.1 2.5 -0.8
v 0.4 2.5 -0.8
v 0.5 2.5 -0.8
v -0.6 2.5 -0.9
v -0.2 2.5 -0.9
v 0.1 2.5 -0.9
v 0.5 2.5 -0.9
v -1.2 2.7 1.2
v 0.4 2.7 1.2
v -0.6 2.7 1.1
v 0.4 2.7 1.1
v -1.2 2.7 1
v -0.6 2.7 1
v -1.2 2.7 -0.8
v -0.6 2.7 -0.8
v -0.6 2.7 -0.9
v 0.4 2.7 -0.9
v -1.2 2.7 -1
v 0.4 2.7 -1
v 0.3 1.3 0.5
v 0.4 1.3 0.5
v 0.5 1.3 0.5
v 0.3 1.3 -0.4
v 0.4 1.3 -0.4
v 0.5 1.3 -0.4
v -0.6 1.8 1.1
v 0.5 1.8 1.1
v -0.6 1.8 1
v -0.5 1.8 1
v 0.4 1.8 1
v -0.6 1.8 -0.8
v -0.5 1.8 -0.8
v 0.4 1.8 -0.8
v -0.6 1.8 -0.9
v 0.5 1.8 -0.9
v 0.5 2.2 0.3
v 0.6 2.2 0.3
v 0.5 2.2 0.2
v 0.6 2.2 0.2
v 0.5 2.2 0
v 0.6 2.2 0
v 0.5 2.2 -0.1
v 0.6 2.2 -0.1
v -0.2 2.5 1.3
v 0.1 2.5 1.3
v -0.2 2.5 1.1
v 0.1 2.5 1.1
v 0.5 2.5 0.2
v 0.6 2.5 0.2
v 0.5 2.5 0
v 0.6 2.5 0
v -0.2 2.5 -0.9
v 0.1 2.5 -0.9
v -0.2 2.5 -1.1
v 0.1 2.5 -1.1
v 0.4 2.7 1.1
v 0.5 2.7 1.1
v 0.4 2.7 1
v 0.4 2.7 -0.8
v 0.4 2.7 -0.9
v 0.5 2.7 -0.9
v -1.2 3.7 1.2
v 0.4 3.7 1.2
v -1.2 3.7 -1
v 0.4 3.7 -1

# faces
f 4/4/1 2/4/1 1/4/1
f 5/4/1 2/4/1 4/4/1
f 7/4/1 4/4/1 3/4/1
f 7/4/1 6/4/1 5/4/1
f 7/4/1 5/4/1 4/4/1
f 8/4/1 6/4/1 7/4/1
f 13/5/1 10/5/1 9/5/1
f 14/5/1 10/5/1 13/5/1
f 15/5/1 12/5/1 11/5/1
f 16/5/1 12/5/1 15/5/1
f 21/8/1 18/8/1 17/8/1
f 22/8/1 18/8/1 21/8/1
f 23/8/1 20/8/1 19/8/1
f 24/8/1 20/8/1 23/8/1
f 29/1/1 26/1/1 25/1/1
f 30/1/1 26/1/1 29/1/1
f 31/1/1 26/1/1 30/1/1
f 32/1/1 28/1/1 27/1/1
f 33/1/1 28/1/1 32/1/1
f 34/1/1 28/1/1 33/1/1
f 35/1/2 36/1/2 39/1/2
f 39/1/2 36/1/2 40/1/2
f 40/1/2 36/1/2 41/1/2
f 37/1/2 38/1/2 42/1/2
f 42/1/2 38/1/2 43/1/2
f 43/1/2 38/1/2 44/1/2
f 45/6/2 46/6/2 47/6/2
f 47/6/2 46/6/2 48/6/2
f 49/6/2 50/6/2 51/6/2
f 51/6/2 50/6/2 52/6/2
f 53/1/2 54/1/2 55/1/2
f 55/1/2 54/1/2 56/1/2
f 53/1/2 55/1/2 57/1/2
f 57/1/2 55/1/2 58/1/2
f 56/1/2 54/1/2 59/1/2
f 59/1/2 54/1/2 60/1/2
f 63/1/2 64/1/2 67/1/2
f 61/4/2 62/4/2 67/4/2
f 62/4/2 63/4/2 67/4/2
f 65/4/2 66/4/2 68/4/2
f 67/1/2 64/1/2 68/1/2
f 64/4/2 65/4/2 68/4/2
f 61/4/2 67/4/2 69/4/2
f 67/4/2 68/4/2 69/4/2
f 68/4/2 66/4/2 70/4/2
f 69/4/2 68/4/2 70/4/2
f 71/5/2 72/5/2 73/5/2
f 73/5/2 72/5/2 74/5/2
f 71/5/2 73/5/2 75/5/2
f 74/5/2 72/5/2 76/5/2
f 71/5/2 75/5/2 77/5/2
f 75/5/2 76/5/2 77/5/2
f 76/5/2 72/5/2 78/5/2
f 77/5/2 76/5/2 78/5/2
f 79/8/2 80/8/2 85/8/2
f 80/8/2 81/8/2 85/8/2
f 85/8/2 81/8/2 86/8/2
f 83/8/2 84/8/2 87/8/2
f 82/8/2 83/8/2 87/8/2
f 87/8/2 84/8/2 88/8/2
f 79/8/2 85/8/2 89/8/2
f 85/7/2 86/7/2 90/7/2
f 89/8/2 85/8/2 90/8/2
f 86/8/2 81/8/2 91/8/2
f 90/7/2 86/7/2 91/7/2
f 82/8/2 87/8/2 92/8/2
f 87/7/2 88/7/2 92/7/2
f 88/8/2 84/8/2 93/8/2
f 92/7/2 88/7/2 93/7/2
f 93/8/2 84/8/2 94/8/2
f 79/8/2 89/8/2 96/8/2
f 89/7/2 90/7/2 97/7/2
f 96/8/2 89/8/2 97/8/2
f 90/8/2 91/8/2 98/8/2
f 97/7/2 90/7/2 98/7/2
f 91/8/2 81/8/2 99/8/2
f 98/8/2 91/8/2 99/8/2
f 99/8/2 81/8/2 100/8/2
f 82/8/2 92/8/2 101/8/2
f 92/8/2 93/8/2 101/8/2
f 101/8/2 93/8/2 102/8/2
f 93/7/2 94/7/2 103/7/2
f 102/8/2 93/8/2 103/8/2
f 94/8/2 84/8/2 104/8/2
f 103/7/2 94/7/2 104/7/2
f 104/8/2 84/8/2 105/8/2
f 95/8/2 96/8/2 107/8/2
f 97/8/2 98/8/2 107/8/2
f 96/8/2 97/8/2 107/8/2
f 98/7/2 99/7/2 107/7/2
f 99/8/2 100/8/2 108/8/2
f 107/7/2 99/7/2 108/7/2
f 100/8/2 101/8/2 108/8/2
f 101/8/2 102/8/2 108/8/2
f 102/7/2 103/7/2 109/7/2
f 108/8/2 102/8/2 109/8/2
f 105/8/2 106/8/2 110/8/2
f 109/7/2 103/7/2 110/7/2
f 104/8/2 105/8/2 110/8/2
f 103/8/2 104/8/2 110/8/2
f 108/8/2 109/8/2 111/8/2
f 107/8/2 108/8/2 111/8/2
f 109/8/2 110/8/2 111/8/2
f 95/8/2 107/8/2 111/8/2
f 110/8/2 106/8/2 112/8/2
f 111/8/2 110/8/2 112/8/2
f 113/2/2 114/2/2 115/2/2
f 115/2/2 114/2/2 116/2/2
f 116/2/2 114/2/2 117/2/2
f 117/2/2 114/2/2 118/2/2
f 116/2/2 117/2/2 119/2/2
f 119/2/2 117/2/2 120/2/2
f 123/1/3 122/1/3 121/1/3
f 124/1/3 122/1/3 123/1/3
f 127/4/3 126/4/3 125/4/3
f 128/4/3 126/4/3 127/4/3
f 133/8/3 132/8/3 131/8/3
f 134/8/3 132/8/3 133/8/3
f 135/8/3 132/8/3 134/8/3
f 136/5/3 130/5/3 129/5/3
f 137/5/3 130/5/3 136/5/3
f 138/8/3 135/8/3 134/8/3
f 139/8/3 135/8/3 138/8/3
f 142/4/3 141/4/3 140/4/3
f 143/4/3 141/4/3 142/4/3
f 144/4/3 141/4/3 143/4/3
f 145/4/3 141/4/3 144/4/3
f 146/4/3 144/4/3 143/4/3
f 147/4/3 144/4/3 146/4/3
f 148/1/3 147/1/3 146/1/3
f 149/1/3 147/1/3 148/1/3
f 150/1/3 148/1/3 146/1/3
f 152/1/3 150/1/3 146/1/3
f 152/1/3 151/1/3 150/1/3
f 153/1/3 151/1/3 152/1/3
f 154/1/3 151/1/3 153/1/3
f 155/8/3 154/8/3 153/8/3
f 156/8/3 154/8/3 155/8/3
f 159/2/3 158/2/3 157/2/3
f 160/2/3 159/2/3 157/2/3
f 161/2/3 159/2/3 160/2/3
f 164/2/3 163/2/3 162/2/3
f 165/2/3 163/2/3 164/2/3
f 168/6/3 167/6/3 166/6/3
f 169/6/3 167/6/3 168/6/3
f 171/5/3 169/5/3 168/5/3
f 171/5/3 170/5/3 169/5/3
f 172/5/3 170/5/3 171/5/3
f 173/6/4 174/6/4 175/6/4
f 175/6/4 174/6/4 176/6/4
f 175/5/4 176/5/4 178/5/4
f 176/5/4 177/5/4 178/5/4
f 178/5/4 177/5/4 179/5/4
f 180/2/4 181/2/4 182/2/4
f 182/2/4 181/2/4 183/2/4
f 184/2/4 185/2/4 186/2/4
f 184/2/4 186/2/4 187/2/4
f 187/2/4 186/2/4 188/2/4
f 189/4/4 190/4/4 191/4/4
f 191/4/4 190/4/4 192/4/4
f 192/4/4 190/4/4 193/4/4
f 193/4/4 190/4/4 194/4/4
f 192/4/4 193/4/4 195/4/4
f 195/4/4 193/4/4 196/4/4
f 195/1/4 196/1/4 197/1/4
f 197/1/4 196/1/4 198/1/4
f 195/1/4 197/1/4 199/1/4
f 195/1/4 199/1/4 201/1/4
f 199/1/4 200/1/4 201/1/4
f 201/1/4 200/1/4 202/1/4
f 202/1/4 200/1/4 203/1/4
f 202/8/4 203/8/4 204/8/4
f 204/8/4 203/8/4 205/8/4
f 208/8/4 209/8/4 210/8/4
f 210/8/4 209/8/4 211/8/4
f 211/8/4 209/8/4 212/8/4
f 206/5/4 207/5/4 213/5/4
f 213/5/4 207/5/4 214/5/4
f 211/8/4 212/8/4 215/8/4
f 215/8/4 212/8/4 216/8/4
f 217/4/4 218/4/4 219/4/4
f 219/4/4 218/4/4 220/4/4
f 221/1/4 222/1/4 223/1/4
f 223/1/4 222/1/4 224/1/4
f 228/5/5 226/5/5 225/5/5
f 229/4/5 228/4/5 227/4/5
f 230/5/5 226/5/5 228/5/5
f 230/4/5 228/4/5 229/4/5
f 231/5/5 226/5/5 230/5/5
f 232/5/5 226/5/5 231/5/5
f 235/6/5 234/6/5 233/6/5
f 236/6/5 234/6/5 235/6/5
f 239/5/5 238/5/5 237/5/5
f 240/5/5 238/5/5 239/5/5
f 243/2/5 242/2/5 241/2/5
f 244/2/5 242/2/5 243/2/5
f 247/1/5 246/1/5 245/1/5
f 248/1/5 246/1/5 247/1/5
f 251/1/5 250/1/5 249/1/5
f 252/1/5 250/1/5 251/1/5
f 255/8/5 254/8/5 253/8/5
f 256/8/5 254/8/5 255/8/5
f 259/8/5 258/8/5 257/8/5
f 260/8/5 258/8/5 259/8/5
f 265/8/5 262/8/5 261/8/5
f 266/8/5 262/8/5 265/8/5
f 267/8/5 262/8/5 266/8/5
f 268/8/5 264/8/5 263/8/5
f 269/8/5 264/8/5 268/8/5
f 270/8/5 264/8/5 269/8/5
f 277/8/5 272/8/5 271/8/5
f 277/8/5 273/8/5 272/8/5
f 278/8/5 273/8/5 277/8/5
f 279/8/5 276/8/5 275/8/5
f 279/8/5 275/8/5 274/8/5
f 280/8/5 276/8/5 279/8/5
f 283/4/5 282/4/5 281/4/5
f 284/4/5 282/4/5 283/4/5
f 285/4/5 283/4/5 281/4/5
f 286/4/5 283/4/5 285/4/5
f 289/4/5 288/4/5 287/4/5
f 291/4/5 289/4/5 287/4/5
f 291/4/5 290/4/5 289/4/5
f 292/4/5 290/4/5 291/4/5
f 293/5/6 294/5/6 296/5/6
f 294/5/6 295/5/6 296/5/6
f 296/5/6 295/5/6 297/5/6
f 297/5/6 295/5/6 298/5/6
f 299/5/6 300/5/6 301/5/6
f 301/5/6 300/5/6 302/5/6
f 302/5/6 300/5/6 303/5/6
f 303/5/6 300/5/6 306/5/6
f 304/5/6 305/5/6 307/5/6
f 305/5/6 306/5/6 307/5/6
f 306/5/6 300/5/6 308/5/6
f 307/5/6 306/5/6 308/5/6
f 309/2/6 310/2/6 311/2/6
f 311/2/6 310/2/6 312/2/6
f 313/2/6 314/2/6 315/2/6
f 315/2/6 314/2/6 316/2/6
f 317/1/6 318/1/6 319/1/6
f 319/1/6 318/1/6 320/1/6
f 321/2/6 322/2/6 323/2/6
f 323/2/6 322/2/6 324/2/6
f 325/1/6 326/1/6 327/1/6
f 327/1/6 326/1/6 328/1/6
f 329/8/6 330/8/6 331/8/6
f 331/8/6 330/8/6 332/8/6
f 332/8/6 330/8/6 333/8/6
f 333/8/6 330/8/6 334/8/6
f 335/4/6 336/4/6 337/4/6
f 337/4/6 336/4/6 338/4/6
