# MagicaVoxel @ Ephtracy

# group
o 

# material
mtllib orange.mtl
usemtl palette

# normals
vn -1 0 0
vn 1 0 0
vn 0 0 1
vn 0 0 -1
vn 0 -1 0
vn 0 1 0

# texcoords
vt 0.0683594 0.5
vt 0.228516 0.5
vt 0.232422 0.5
vt 0.255859 0.5
vt 0.876953 0.5
vt 0.958984 0.5
vt 0.970703 0.5
vt 0.994141 0.5

# verts
v -1.2 2.2 -0.3
v -1.2 2.2 -0.7
v -1.2 2.8 -0.7
v -1.2 2.8 -0.8
v -1.2 2.9 0.2
v -1.2 2.9 -0.3
v -1.2 2.9 -0.7
v -1.2 3 0.2
v -1.2 3 -0.8
v -1.1 2.7 0.2
v -1.1 2.7 -0.1
v -1.1 2.8 0.3
v -1.1 2.8 0.2
v -1.1 2.9 0.2
v -1.1 2.9 -0.1
v -1.1 3 0.2
v -1.1 3 -0.1
v -1.1 3.3 0.3
v -1.1 3.3 0.2
v -1.1 3.4 0.2
v -1.1 3.4 -0.1
v -1.1 3.5 0.1
v -1.1 3.5 -0.1
v -1.1 3.6 0.3
v -1.1 3.6 0.1
v -1.1 3.7 0.3
v -1.1 3.7 -0.1
v -0.9 1.5 -0.1
v -0.9 1.5 -1.6
v -0.9 2.2 -0.3
v -0.9 2.2 -0.7
v -0.9 2.7 -0.1
v -0.9 2.8 -0.7
v -0.9 2.8 -0.8
v -0.9 2.9 -0.1
v -0.9 2.9 -0.3
v -0.9 3 -0.1
v -0.9 3 -0.8
v -0.9 3.1 -0.1
v -0.9 3.2 -0.1
v -0.9 3.2 -1.6
v -0.6 1.7 -0.1
v -0.6 1.7 -0.3
v -0.6 1.8 -0.1
v -0.6 1.8 -0.3
v -0.6 1.9 -0.1
v -0.6 1.9 -0.3
v -0.6 2.1 -0.1
v -0.6 2.1 -0.3
v -0.6 2.9 0.4
v -0.6 2.9 0.3
v -0.6 3.1 0.4
v -0.6 3.1 0.3
v -0.4 2.3 0.2
v -0.4 2.3 -0.1
v -0.4 2.7 0.2
v -0.4 2.7 -0.1
v -0.3 1.7 -0.1
v -0.3 1.7 -0.3
v -0.3 1.8 -0.1
v -0.3 1.8 -0.3
v -0.3 1.9 -0.1
v -0.3 1.9 -0.3
v -0.3 2.1 -0.1
v -0.3 2.1 -0.3
v 1.19209e-07 1.7 -0.1
v 1.19209e-07 1.7 -0.3
v 1.19209e-07 1.8 -0.1
v 1.19209e-07 1.8 -0.3
v 1.19209e-07 1.9 -0.1
v 1.19209e-07 1.9 -0.3
v 1.19209e-07 2.1 -0.1
v 1.19209e-07 2.1 -0.3
v 0.1 2.8 0.3
v 0.1 2.8 0.2
v 0.1 2.9 0.3
v 0.1 3.1 0.3
v 0.1 3.2 0.2
v 0.1 3.2 -0.1
v 0.1 3.3 0.3
v 0.1 3.3 0.2
v 0.1 3.4 0.2
v 0.1 3.4 -0.1
v 0.1 3.5 0.3
v 0.1 3.5 -0.1
v 0.1 3.6 0
v 0.1 3.6 -0.1
v 0.1 3.7 0.3
v 0.1 3.7 0
v 0.5 1.7 -0.1
v 0.5 1.7 -0.3
v 0.5 2.1 -0.1
v 0.5 2.1 -0.3
v -0.8 1.7 -0.1
v -0.8 1.7 -0.3
v -0.8 2.1 -0.1
v -0.8 2.1 -0.3
v -0.4 1.7 -0.1
v -0.4 1.7 -0.3
v -0.4 1.8 -0.1
v -0.4 1.8 -0.3
v -0.4 1.9 -0.1
v -0.4 1.9 -0.3
v -0.4 2.1 -0.1
v -0.4 2.1 -0.3
v -0.4 2.8 0.3
v -0.4 2.8 0.2
v -0.4 2.9 0.3
v -0.4 3.1 0.3
v -0.4 3.2 0.2
v -0.4 3.2 -0.1
v -0.4 3.3 0.3
v -0.4 3.3 0.2
v -0.4 3.4 0.2
v -0.4 3.4 -0.1
v -0.4 3.5 0.1
v -0.4 3.5 -0.1
v -0.4 3.6 0.3
v -0.4 3.6 0.1
v -0.4 3.7 0.3
v -0.4 3.7 -0.1
v -0.0999999 1.7 -0.1
v -0.0999999 1.7 -0.3
v -0.0999999 1.8 -0.1
v -0.0999999 1.8 -0.3
v -0.0999999 1.9 -0.1
v -0.0999999 1.9 -0.3
v -0.0999999 2.1 -0.1
v -0.0999999 2.1 -0.3
v 0.1 2.3 0.2
v 0.1 2.3 -0.1
v 0.1 2.7 0.2
v 0.1 2.7 -0.1
v 0.2 1.7 -0.1
v 0.2 1.7 -0.3
v 0.2 1.8 -0.1
v 0.2 1.8 -0.3
v 0.2 1.9 -0.1
v 0.2 1.9 -0.3
v 0.2 2.1 -0.1
v 0.2 2.1 -0.3
v 0.3 2.9 0.4
v 0.3 2.9 0.3
v 0.3 3.1 0.4
v 0.3 3.1 0.3
v 0.6 1.5 -0.1
v 0.6 1.5 -1.6
v 0.6 2.2 -0.3
v 0.6 2.2 -0.7
v 0.6 2.7 -0.1
v 0.6 2.8 -0.7
v 0.6 2.8 -0.8
v 0.6 2.9 -0.1
v 0.6 2.9 -0.3
v 0.6 3 -0.1
v 0.6 3 -0.8
v 0.6 3 -0.9
v 0.6 3 -1
v 0.6 3.2 -0.1
v 0.6 3.2 -0.9
v 0.6 3.2 -1
v 0.6 3.2 -1.6
v 0.7 2.9 -0.7
v 0.7 2.9 -0.8
v 0.7 3 -0.7
v 0.7 3 -0.8
v 0.8 2.7 0.2
v 0.8 2.7 -0.1
v 0.8 2.8 0.3
v 0.8 2.8 0.2
v 0.8 2.9 0.3
v 0.8 2.9 0.2
v 0.8 2.9 -0.1
v 0.8 3 0.3
v 0.8 3 0.2
v 0.8 3 -0.1
v 0.8 3.3 0.3
v 0.8 3.3 0.2
v 0.8 3.4 0.2
v 0.8 3.4 -0.1
v 0.8 3.5 0.3
v 0.8 3.5 -0.1
v 0.8 3.6 0
v 0.8 3.6 -0.1
v 0.8 3.7 0.3
v 0.8 3.7 0
v 0.9 2.2 -0.3
v 0.9 2.2 -0.7
v 0.9 2.8 -0.7
v 0.9 2.8 -0.8
v 0.9 2.9 0.3
v 0.9 2.9 -0.3
v 0.9 2.9 -0.7
v 0.9 2.9 -0.8
v 0.9 3 0.3
v 0.9 3 -0.7
v -0.6 2.9 0.4
v -0.6 3.1 0.4
v 0.3 2.9 0.4
v 0.3 3.1 0.4
v -1.1 2.8 0.3
v -1.1 3.3 0.3
v -1.1 3.6 0.3
v -1.1 3.7 0.3
v -0.9 3 0.3
v -0.9 3.1 0.3
v -0.8 2.9 0.3
v -0.8 3 0.3
v -0.8 3.1 0.3
v -0.7 2.9 0.3
v -0.7 3 0.3
v -0.6 2.9 0.3
v -0.6 3.1 0.3
v -0.4 2.8 0.3
v -0.4 2.9 0.3
v -0.4 3.1 0.3
v -0.4 3.3 0.3
v -0.4 3.6 0.3
v -0.4 3.7 0.3
v 0.1 2.8 0.3
v 0.1 2.9 0.3
v 0.1 3.1 0.3
v 0.1 3.3 0.3
v 0.1 3.5 0.3
v 0.1 3.7 0.3
v 0.3 2.9 0.3
v 0.3 3.1 0.3
v 0.4 2.9 0.3
v 0.4 3 0.3
v 0.5 2.9 0.3
v 0.5 3 0.3
v 0.5 3.1 0.3
v 0.6 3 0.3
v 0.6 3.1 0.3
v 0.8 2.8 0.3
v 0.8 2.9 0.3
v 0.8 3 0.3
v 0.8 3.3 0.3
v 0.8 3.5 0.3
v 0.8 3.7 0.3
v 0.9 2.9 0.3
v 0.9 3 0.3
v -1.2 2.9 0.2
v -1.2 3 0.2
v -1.1 2.7 0.2
v -1.1 2.8 0.2
v -1.1 2.9 0.2
v -1.1 3 0.2
v -1.1 3.3 0.2
v -1.1 3.4 0.2
v -0.4 2.3 0.2
v -0.4 2.7 0.2
v -0.4 2.8 0.2
v -0.4 3.2 0.2
v -0.4 3.3 0.2
v -0.4 3.4 0.2
v 0.1 2.3 0.2
v 0.1 2.7 0.2
v 0.1 2.8 0.2
v 0.1 3.2 0.2
v 0.1 3.3 0.2
v 0.1 3.4 0.2
v 0.8 2.7 0.2
v 0.8 2.8 0.2
v 0.8 3.3 0.2
v 0.8 3.4 0.2
v -1.1 3.5 0.1
v -1.1 3.6 0.1
v -0.4 3.5 0.1
v -0.4 3.6 0.1
v -0.9 1.5 -0.1
v -0.9 2.7 -0.1
v -0.8 1.7 -0.1
v -0.8 2.1 -0.1
v -0.6 1.7 -0.1
v -0.6 1.8 -0.1
v -0.6 1.9 -0.1
v -0.6 2.1 -0.1
v -0.4 1.7 -0.1
v -0.4 1.8 -0.1
v -0.4 1.9 -0.1
v -0.4 2.1 -0.1
v -0.4 2.3 -0.1
v -0.4 2.7 -0.1
v -0.3 1.7 -0.1
v -0.3 1.8 -0.1
v -0.3 1.9 -0.1
v -0.3 2.1 -0.1
v -0.0999999 1.7 -0.1
v -0.0999999 1.8 -0.1
v -0.0999999 1.9 -0.1
v -0.0999999 2.1 -0.1
v 1.19209e-07 1.7 -0.1
v 1.19209e-07 1.8 -0.1
v 1.19209e-07 1.9 -0.1
v 1.19209e-07 2.1 -0.1
v 0.1 2.3 -0.1
v 0.1 2.7 -0.1
v 0.2 1.7 -0.1
v 0.2 1.8 -0.1
v 0.2 1.9 -0.1
v 0.2 2.1 -0.1
v 0.5 1.7 -0.1
v 0.5 2.1 -0.1
v 0.6 1.5 -0.1
v 0.6 2.7 -0.1
v -1.2 2.2 -0.3
v -1.2 2.9 -0.3
v -0.9 2.2 -0.3
v -0.9 2.9 -0.3
v -0.8 1.7 -0.3
v -0.8 2.1 -0.3
v -0.6 1.7 -0.3
v -0.6 1.8 -0.3
v -0.6 1.9 -0.3
v -0.6 2.1 -0.3
v -0.4 1.7 -0.3
v -0.4 1.8 -0.3
v -0.4 1.9 -0.3
v -0.4 2.1 -0.3
v -0.3 1.7 -0.3
v -0.3 1.8 -0.3
v -0.3 1.9 -0.3
v -0.3 2.1 -0.3
v -0.0999999 1.7 -0.3
v -0.0999999 1.8 -0.3
v -0.0999999 1.9 -0.3
v -0.0999999 2.1 -0.3
v 1.19209e-07 1.7 -0.3
v 1.19209e-07 1.8 -0.3
v 1.19209e-07 1.9 -0.3
v 1.19209e-07 2.1 -0.3
v 0.2 1.7 -0.3
v 0.2 1.8 -0.3
v 0.2 1.9 -0.3
v 0.2 2.1 -0.3
v 0.5 1.7 -0.3
v 0.5 2.1 -0.3
v 0.6 2.2 -0.3
v 0.6 2.9 -0.3
v 0.9 2.2 -0.3
v 0.9 2.9 -0.3
v -0.4 2.9 0.3
v -0.4 3.1 0.3
v 0.1 2.9 0.3
v 0.1 3.1 0.3
v 0.1 3.6 0
v 0.1 3.7 0
v 0.8 3.6 0
v 0.8 3.7 0
v -1.1 2.7 -0.1
v -1.1 2.9 -0.1
v -1.1 3 -0.1
v -1.1 3.4 -0.1
v -1.1 3.5 -0.1
v -1.1 3.7 -0.1
v -1 3 -0.1
v -1 3.1 -0.1
v -0.9 2.7 -0.1
v -0.9 2.9 -0.1
v -0.9 3 -0.1
v -0.9 3.1 -0.1
v -0.9 3.2 -0.1
v -0.4 3.2 -0.1
v -0.4 3.4 -0.1
v -0.4 3.5 -0.1
v -0.4 3.7 -0.1
v 0.1 3.2 -0.1
v 0.1 3.4 -0.1
v 0.1 3.5 -0.1
v 0.1 3.6 -0.1
v 0.6 2.7 -0.1
v 0.6 2.9 -0.1
v 0.6 3 -0.1
v 0.6 3.2 -0.1
v 0.8 2.7 -0.1
v 0.8 2.9 -0.1
v 0.8 3 -0.1
v 0.8 3.4 -0.1
v 0.8 3.5 -0.1
v 0.8 3.6 -0.1
v -1.2 2.2 -0.7
v -1.2 2.8 -0.7
v -0.9 2.2 -0.7
v -0.9 2.8 -0.7
v 0.6 2.2 -0.7
v 0.6 2.8 -0.7
v 0.7 2.9 -0.7
v 0.7 3 -0.7
v 0.9 2.2 -0.7
v 0.9 2.8 -0.7
v 0.9 2.9 -0.7
v 0.9 3 -0.7
v -1.2 2.8 -0.8
v -1.2 3 -0.8
v -0.9 2.8 -0.8
v -0.9 3 -0.8
v 0.6 2.8 -0.8
v 0.6 3 -0.8
v 0.7 2.9 -0.8
v 0.7 3 -0.8
v 0.9 2.8 -0.8
v 0.9 2.9 -0.8
v -0.9 1.5 -1.6
v -0.9 3.2 -1.6
v 0.6 1.5 -1.6
v 0.6 3.2 -1.6
v -0.9 1.5 -0.1
v 0.6 1.5 -0.1
v -0.9 1.5 -1.6
v 0.6 1.5 -1.6
v -0.6 1.9 -0.1
v -0.4 1.9 -0.1
v -0.3 1.9 -0.1
v -0.0999999 1.9 -0.1
v 1.19209e-07 1.9 -0.1
v 0.2 1.9 -0.1
v -0.6 1.9 -0.3
v -0.4 1.9 -0.3
v -0.3 1.9 -0.3
v -0.0999999 1.9 -0.3
v 1.19209e-07 1.9 -0.3
v 0.2 1.9 -0.3
v -0.8 2.1 -0.1
v -0.6 2.1 -0.1
v -0.4 2.1 -0.1
v -0.3 2.1 -0.1
v -0.0999999 2.1 -0.1
v 1.19209e-07 2.1 -0.1
v 0.2 2.1 -0.1
v 0.5 2.1 -0.1
v -0.8 2.1 -0.3
v -0.6 2.1 -0.3
v -0.4 2.1 -0.3
v -0.3 2.1 -0.3
v -0.0999999 2.1 -0.3
v 1.19209e-07 2.1 -0.3
v 0.2 2.1 -0.3
v 0.5 2.1 -0.3
v -1.2 2.2 -0.3
v -0.9 2.2 -0.3
v 0.6 2.2 -0.3
v 0.9 2.2 -0.3
v -1.2 2.2 -0.7
v -0.9 2.2 -0.7
v 0.6 2.2 -0.7
v 0.9 2.2 -0.7
v -0.4 2.3 0.2
v 0.1 2.3 0.2
v -0.4 2.3 -0.1
v 0.1 2.3 -0.1
v -1.1 2.7 0.2
v -0.4 2.7 0.2
v 0.1 2.7 0.2
v 0.8 2.7 0.2
v -1.1 2.7 -0.1
v -0.9 2.7 -0.1
v -0.4 2.7 -0.1
v 0.1 2.7 -0.1
v 0.6 2.7 -0.1
v 0.8 2.7 -0.1
v -1.1 2.8 0.3
v -0.4 2.8 0.3
v 0.1 2.8 0.3
v 0.8 2.8 0.3
v -1.1 2.8 0.2
v -0.4 2.8 0.2
v 0.1 2.8 0.2
v 0.8 2.8 0.2
v -1.2 2.8 -0.7
v -0.9 2.8 -0.7
v 0.6 2.8 -0.7
v 0.9 2.8 -0.7
v -1.2 2.8 -0.8
v -0.9 2.8 -0.8
v 0.6 2.8 -0.8
v 0.9 2.8 -0.8
v -0.6 2.9 0.4
v 0.3 2.9 0.4
v -0.6 2.9 0.3
v -0.4 2.9 0.3
v 0.1 2.9 0.3
v 0.3 2.9 0.3
v 0.8 2.9 0.3
v 0.9 2.9 0.3
v -1.2 2.9 0.2
v -1.1 2.9 0.2
v 0.8 2.9 0.2
v -1.1 2.9 -0.1
v -0.9 2.9 -0.1
v 0.6 2.9 -0.1
v 0.8 2.9 -0.1
v -1.2 2.9 -0.3
v -0.9 2.9 -0.3
v 0.6 2.9 -0.3
v 0.9 2.9 -0.3
v 0.1 3.5 0.3
v 0.8 3.5 0.3
v -1.1 3.5 0.1
v -0.4 3.5 0.1
v -1.1 3.5 -0.1
v -0.4 3.5 -0.1
v 0.1 3.5 -0.1
v 0.8 3.5 -0.1
v -1.1 3.6 0.3
v -0.4 3.6 0.3
v -1.1 3.6 0.1
v -0.4 3.6 0.1
v -0.8 1.7 -0.1
v -0.6 1.7 -0.1
v -0.4 1.7 -0.1
v -0.3 1.7 -0.1
v -0.0999999 1.7 -0.1
v 1.19209e-07 1.7 -0.1
v 0.2 1.7 -0.1
v 0.5 1.7 -0.1
v -0.8 1.7 -0.3
v -0.6 1.7 -0.3
v -0.4 1.7 -0.3
v -0.3 1.7 -0.3
v -0.0999999 1.7 -0.3
v 1.19209e-07 1.7 -0.3
v 0.2 1.7 -0.3
v 0.5 1.7 -0.3
v -0.6 1.8 -0.1
v -0.4 1.8 -0.1
v -0.3 1.8 -0.1
v -0.0999999 1.8 -0.1
v 1.19209e-07 1.8 -0.1
v 0.2 1.8 -0.1
v -0.6 1.8 -0.3
v -0.4 1.8 -0.3
v -0.3 1.8 -0.3
v -0.0999999 1.8 -0.3
v 1.19209e-07 1.8 -0.3
v 0.2 1.8 -0.3
v 0.7 2.9 -0.7
v 0.9 2.9 -0.7
v 0.7 2.9 -0.8
v 0.9 2.9 -0.8
v 0.8 3 0.3
v 0.9 3 0.3
v -1.2 3 0.2
v -1.1 3 0.2
v 0.8 3 0.2
v -1.1 3 -0.1
v -1 3 -0.1
v -0.9 3 -0.1
v 0.6 3 -0.1
v 0.8 3 -0.1
v 0.7 3 -0.7
v 0.9 3 -0.7
v -1.2 3 -0.8
v -0.9 3 -0.8
v 0.6 3 -0.8
v 0.7 3 -0.8
v -0.6 3.1 0.4
v 0.3 3.1 0.4
v -0.6 3.1 0.3
v -0.4 3.1 0.3
v 0.1 3.1 0.3
v 0.3 3.1 0.3
v -0.4 3.2 0.2
v 0.1 3.2 0.2
v -0.9 3.2 -0.1
v -0.4 3.2 -0.1
v 0.1 3.2 -0.1
v 0.6 3.2 -0.1
v 0.5 3.2 -0.9
v 0.6 3.2 -0.9
v 0.5 3.2 -1
v 0.6 3.2 -1
v -0.9 3.2 -1.6
v 0.6 3.2 -1.6
v -1.1 3.3 0.3
v -0.4 3.3 0.3
v 0.1 3.3 0.3
v 0.8 3.3 0.3
v -1.1 3.3 0.2
v -0.4 3.3 0.2
v 0.1 3.3 0.2
v 0.8 3.3 0.2
v -1.1 3.4 0.2
v -0.4 3.4 0.2
v 0.1 3.4 0.2
v 0.8 3.4 0.2
v -1.1 3.4 -0.1
v -0.4 3.4 -0.1
v 0.1 3.4 -0.1
v 0.8 3.4 -0.1
v 0.1 3.6 0
v 0.8 3.6 0
v 0.1 3.6 -0.1
v 0.8 3.6 -0.1
v -1.1 3.7 0.3
v -0.4 3.7 0.3
v 0.1 3.7 0.3
v 0.8 3.7 0.3
v 0.1 3.7 0
v 0.8 3.7 0
v -1.1 3.7 -0.1
v -0.4 3.7 -0.1

# faces
f 3/3/1 2/3/1 1/3/1
f 6/3/1 3/3/1 1/3/1
f 7/8/1 4/8/1 3/8/1
f 7/3/1 3/3/1 6/3/1
f 8/8/1 6/8/1 5/8/1
f 8/8/1 7/8/1 6/8/1
f 9/8/1 4/8/1 7/8/1
f 9/8/1 7/8/1 8/8/1
f 13/6/1 11/6/1 10/6/1
f 14/6/1 11/6/1 13/6/1
f 14/8/1 13/8/1 12/8/1
f 15/6/1 11/6/1 14/6/1
f 16/8/1 14/8/1 12/8/1
f 18/8/1 16/8/1 12/8/1
f 19/6/1 17/6/1 16/6/1
f 19/8/1 16/8/1 18/8/1
f 20/6/1 17/6/1 19/6/1
f 21/6/1 17/6/1 20/6/1
f 25/8/1 23/8/1 22/8/1
f 26/8/1 25/8/1 24/8/1
f 27/8/1 23/8/1 25/8/1
f 27/8/1 25/8/1 26/8/1
f 30/3/1 29/3/1 28/3/1
f 31/3/1 29/3/1 30/3/1
f 32/3/1 30/3/1 28/3/1
f 33/3/1 29/3/1 31/3/1
f 34/3/1 29/3/1 33/3/1
f 35/3/1 30/3/1 32/3/1
f 36/3/1 30/3/1 35/3/1
f 38/3/1 29/3/1 34/3/1
f 39/3/1 38/3/1 37/3/1
f 40/3/1 38/3/1 39/3/1
f 41/3/1 29/3/1 38/3/1
f 41/3/1 38/3/1 40/3/1
f 44/6/1 43/6/1 42/6/1
f 45/6/1 43/6/1 44/6/1
f 48/6/1 47/6/1 46/6/1
f 49/6/1 47/6/1 48/6/1
f 52/8/1 51/8/1 50/8/1
f 53/8/1 51/8/1 52/8/1
f 56/1/1 55/1/1 54/1/1
f 57/1/1 55/1/1 56/1/1
f 60/6/1 59/6/1 58/6/1
f 61/6/1 59/6/1 60/6/1
f 64/6/1 63/6/1 62/6/1
f 65/6/1 63/6/1 64/6/1
f 68/6/1 67/6/1 66/6/1
f 69/6/1 67/6/1 68/6/1
f 72/6/1 71/6/1 70/6/1
f 73/6/1 71/6/1 72/6/1
f 76/8/1 75/8/1 74/8/1
f 77/8/1 75/8/1 76/8/1
f 78/8/1 75/8/1 77/8/1
f 80/8/1 78/8/1 77/8/1
f 81/6/1 79/6/1 78/6/1
f 81/8/1 78/8/1 80/8/1
f 82/6/1 79/6/1 81/6/1
f 83/6/1 79/6/1 82/6/1
f 86/8/1 85/8/1 84/8/1
f 87/8/1 85/8/1 86/8/1
f 88/8/1 86/8/1 84/8/1
f 89/8/1 86/8/1 88/8/1
f 92/3/1 91/3/1 90/3/1
f 93/3/1 91/3/1 92/3/1
f 94/3/2 95/3/2 96/3/2
f 96/3/2 95/3/2 97/3/2
f 98/6/2 99/6/2 100/6/2
f 100/6/2 99/6/2 101/6/2
f 102/6/2 103/6/2 104/6/2
f 104/6/2 103/6/2 105/6/2
f 106/8/2 107/8/2 108/8/2
f 108/8/2 107/8/2 109/8/2
f 109/8/2 107/8/2 110/8/2
f 109/8/2 110/8/2 112/8/2
f 110/6/2 111/6/2 113/6/2
f 112/8/2 110/8/2 113/8/2
f 113/6/2 111/6/2 114/6/2
f 114/6/2 111/6/2 115/6/2
f 116/8/2 117/8/2 119/8/2
f 118/8/2 119/8/2 120/8/2
f 119/8/2 117/8/2 121/8/2
f 120/8/2 119/8/2 121/8/2
f 122/6/2 123/6/2 124/6/2
f 124/6/2 123/6/2 125/6/2
f 126/6/2 127/6/2 128/6/2
f 128/6/2 127/6/2 129/6/2
f 130/1/2 131/1/2 132/1/2
f 132/1/2 131/1/2 133/1/2
f 134/6/2 135/6/2 136/6/2
f 136/6/2 135/6/2 137/6/2
f 138/6/2 139/6/2 140/6/2
f 140/6/2 139/6/2 141/6/2
f 142/8/2 143/8/2 144/8/2
f 144/8/2 143/8/2 145/8/2
f 146/3/2 147/3/2 148/3/2
f 148/3/2 147/3/2 149/3/2
f 146/3/2 148/3/2 150/3/2
f 149/3/2 147/3/2 151/3/2
f 151/3/2 147/3/2 152/3/2
f 150/3/2 148/3/2 153/3/2
f 153/3/2 148/3/2 154/3/2
f 152/3/2 147/3/2 156/3/2
f 156/3/2 147/3/2 157/3/2
f 157/3/2 147/3/2 158/3/2
f 155/3/2 156/3/2 159/3/2
f 156/3/2 157/3/2 159/3/2
f 157/2/2 158/2/2 160/2/2
f 159/3/2 157/3/2 160/3/2
f 158/3/2 147/3/2 161/3/2
f 160/2/2 158/2/2 161/2/2
f 161/3/2 147/3/2 162/3/2
f 163/8/2 164/8/2 165/8/2
f 165/8/2 164/8/2 166/8/2
f 167/6/2 168/6/2 170/6/2
f 169/8/2 170/8/2 171/8/2
f 170/6/2 168/6/2 172/6/2
f 171/8/2 170/8/2 172/8/2
f 172/6/2 168/6/2 173/6/2
f 174/8/2 175/8/2 177/8/2
f 175/6/2 176/6/2 178/6/2
f 177/8/2 175/8/2 178/8/2
f 178/6/2 176/6/2 179/6/2
f 179/6/2 176/6/2 180/6/2
f 181/8/2 182/8/2 183/8/2
f 183/8/2 182/8/2 184/8/2
f 181/8/2 183/8/2 185/8/2
f 185/8/2 183/8/2 186/8/2
f 187/3/2 188/3/2 189/3/2
f 187/3/2 189/3/2 192/3/2
f 189/8/2 190/8/2 193/8/2
f 192/3/2 189/3/2 193/3/2
f 193/8/2 190/8/2 194/8/2
f 191/8/2 192/8/2 195/8/2
f 192/8/2 193/8/2 195/8/2
f 195/8/2 193/8/2 196/8/2
f 199/8/3 198/8/3 197/8/3
f 200/8/3 198/8/3 199/8/3
f 205/8/3 202/8/3 201/8/3
f 206/8/3 202/8/3 205/8/3
f 207/8/3 205/8/3 201/8/3
f 208/7/3 206/7/3 205/7/3
f 208/8/3 205/8/3 207/8/3
f 209/8/3 202/8/3 206/8/3
f 209/7/3 206/7/3 208/7/3
f 210/7/3 208/7/3 207/7/3
f 210/8/3 207/8/3 201/8/3
f 211/8/3 209/8/3 208/8/3
f 211/7/3 208/7/3 210/7/3
f 212/8/3 210/8/3 201/8/3
f 212/8/3 211/8/3 210/8/3
f 213/8/3 202/8/3 209/8/3
f 213/8/3 211/8/3 212/8/3
f 213/8/3 209/8/3 211/8/3
f 214/8/3 212/8/3 201/8/3
f 215/8/3 212/8/3 214/8/3
f 216/8/3 202/8/3 213/8/3
f 217/8/3 202/8/3 216/8/3
f 218/8/3 204/8/3 203/8/3
f 219/8/3 204/8/3 218/8/3
f 226/8/3 221/8/3 220/8/3
f 227/8/3 223/8/3 222/8/3
f 228/8/3 226/8/3 220/8/3
f 228/8/3 227/8/3 226/8/3
f 229/8/3 227/8/3 228/8/3
f 230/8/3 228/8/3 220/8/3
f 230/7/3 229/7/3 228/7/3
f 231/8/3 227/8/3 229/8/3
f 231/7/3 229/7/3 230/7/3
f 232/8/3 223/8/3 227/8/3
f 232/8/3 227/8/3 231/8/3
f 233/8/3 231/8/3 230/8/3
f 233/7/3 232/7/3 231/7/3
f 234/8/3 223/8/3 232/8/3
f 234/7/3 232/7/3 233/7/3
f 235/8/3 233/8/3 230/8/3
f 235/8/3 230/8/3 220/8/3
f 235/8/3 234/8/3 233/8/3
f 236/8/3 234/8/3 235/8/3
f 237/8/3 234/8/3 236/8/3
f 238/8/3 223/8/3 234/8/3
f 238/8/3 234/8/3 237/8/3
f 239/8/3 225/8/3 224/8/3
f 240/8/3 225/8/3 239/8/3
f 241/8/3 237/8/3 236/8/3
f 242/8/3 237/8/3 241/8/3
f 247/8/3 244/8/3 243/8/3
f 248/8/3 244/8/3 247/8/3
f 252/6/3 246/6/3 245/6/3
f 253/6/3 246/6/3 252/6/3
f 255/6/3 250/6/3 249/6/3
f 256/6/3 250/6/3 255/6/3
f 257/1/3 254/1/3 253/1/3
f 257/1/3 252/1/3 251/1/3
f 257/1/3 253/1/3 252/1/3
f 258/1/3 254/1/3 257/1/3
f 259/1/3 254/1/3 258/1/3
f 260/1/3 254/1/3 259/1/3
f 263/6/3 259/6/3 258/6/3
f 264/6/3 259/6/3 263/6/3
f 265/6/3 262/6/3 261/6/3
f 266/6/3 262/6/3 265/6/3
f 269/8/3 268/8/3 267/8/3
f 270/8/3 268/8/3 269/8/3
f 273/3/3 272/3/3 271/3/3
f 274/3/3 272/3/3 273/3/3
f 275/3/3 273/3/3 271/3/3
f 278/3/3 272/3/3 274/3/3
f 279/6/3 276/6/3 275/6/3
f 279/3/3 275/3/3 271/3/3
f 280/6/3 276/6/3 279/6/3
f 281/6/3 278/6/3 277/6/3
f 282/3/3 272/3/3 278/3/3
f 282/6/3 278/6/3 281/6/3
f 283/3/3 272/3/3 282/3/3
f 284/3/3 272/3/3 283/3/3
f 285/3/3 279/3/3 271/3/3
f 288/3/3 283/3/3 282/3/3
f 289/6/3 286/6/3 285/6/3
f 289/3/3 285/3/3 271/3/3
f 290/6/3 286/6/3 289/6/3
f 291/6/3 288/6/3 287/6/3
f 292/3/3 283/3/3 288/3/3
f 292/6/3 288/6/3 291/6/3
f 293/3/3 289/3/3 271/3/3
f 296/3/3 283/3/3 292/3/3
f 297/3/3 283/3/3 296/3/3
f 299/6/3 294/6/3 293/6/3
f 299/3/3 293/3/3 271/3/3
f 300/6/3 294/6/3 299/6/3
f 301/6/3 296/6/3 295/6/3
f 302/3/3 298/3/3 297/3/3
f 302/6/3 296/6/3 301/6/3
f 302/3/3 297/3/3 296/3/3
f 303/3/3 299/3/3 271/3/3
f 304/3/3 298/3/3 302/3/3
f 305/3/3 303/3/3 271/3/3
f 305/3/3 304/3/3 303/3/3
f 306/3/3 298/3/3 304/3/3
f 306/3/3 304/3/3 305/3/3
f 309/3/3 308/3/3 307/3/3
f 310/3/3 308/3/3 309/3/3
f 313/4/3 312/4/3 311/4/3
f 314/4/3 312/4/3 313/4/3
f 315/4/3 312/4/3 314/4/3
f 316/4/3 312/4/3 315/4/3
f 318/4/3 315/4/3 314/4/3
f 319/4/3 315/4/3 318/4/3
f 321/4/3 318/4/3 317/4/3
f 321/4/3 320/4/3 319/4/3
f 321/4/3 319/4/3 318/4/3
f 322/4/3 320/4/3 321/4/3
f 323/4/3 320/4/3 322/4/3
f 324/4/3 320/4/3 323/4/3
f 326/4/3 323/4/3 322/4/3
f 327/4/3 323/4/3 326/4/3
f 329/4/3 326/4/3 325/4/3
f 329/4/3 328/4/3 327/4/3
f 329/4/3 327/4/3 326/4/3
f 330/4/3 328/4/3 329/4/3
f 331/4/3 328/4/3 330/4/3
f 332/4/3 328/4/3 331/4/3
f 334/4/3 331/4/3 330/4/3
f 335/4/3 331/4/3 334/4/3
f 337/4/3 334/4/3 333/4/3
f 337/4/3 336/4/3 335/4/3
f 337/4/3 335/4/3 334/4/3
f 338/4/3 336/4/3 337/4/3
f 341/3/3 340/3/3 339/3/3
f 342/3/3 340/3/3 341/3/3
f 343/8/4 344/8/4 345/8/4
f 345/8/4 344/8/4 346/8/4
f 347/8/4 348/8/4 349/8/4
f 349/8/4 348/8/4 350/8/4
f 353/6/4 354/6/4 357/6/4
f 357/6/4 354/6/4 358/6/4
f 351/6/4 352/6/4 359/6/4
f 359/6/4 352/6/4 360/6/4
f 357/8/4 358/8/4 361/8/4
f 358/6/4 354/6/4 362/6/4
f 361/8/4 358/8/4 362/8/4
f 362/6/4 354/6/4 363/6/4
f 363/6/4 354/6/4 364/6/4
f 364/6/4 354/6/4 365/6/4
f 355/8/4 356/8/4 366/8/4
f 366/8/4 356/8/4 367/8/4
f 368/6/4 369/6/4 375/6/4
f 372/6/4 373/6/4 376/6/4
f 376/6/4 373/6/4 377/6/4
f 374/6/4 375/6/4 378/6/4
f 375/6/4 369/6/4 379/6/4
f 378/6/4 375/6/4 379/6/4
f 370/8/4 371/8/4 380/8/4
f 380/8/4 371/8/4 381/8/4
f 382/3/4 383/3/4 384/3/4
f 384/3/4 383/3/4 385/3/4
f 386/3/4 387/3/4 390/3/4
f 390/3/4 387/3/4 391/3/4
f 388/8/4 389/8/4 392/8/4
f 392/8/4 389/8/4 393/8/4
f 394/8/4 395/8/4 396/8/4
f 396/8/4 395/8/4 397/8/4
f 398/8/4 399/8/4 400/8/4
f 400/8/4 399/8/4 401/8/4
f 398/8/4 400/8/4 402/8/4
f 402/8/4 400/8/4 403/8/4
f 404/3/4 405/3/4 406/3/4
f 406/3/4 405/3/4 407/3/4
f 410/3/5 409/3/5 408/3/5
f 411/3/5 409/3/5 410/3/5
f 418/6/5 413/6/5 412/6/5
f 419/6/5 413/6/5 418/6/5
f 420/6/5 415/6/5 414/6/5
f 421/6/5 415/6/5 420/6/5
f 422/6/5 417/6/5 416/6/5
f 423/6/5 417/6/5 422/6/5
f 432/3/5 425/3/5 424/3/5
f 433/3/5 425/3/5 432/3/5
f 434/3/5 427/3/5 426/3/5
f 435/3/5 427/3/5 434/3/5
f 436/3/5 429/3/5 428/3/5
f 437/3/5 429/3/5 436/3/5
f 438/3/5 431/3/5 430/3/5
f 439/3/5 431/3/5 438/3/5
f 444/3/5 441/3/5 440/3/5
f 445/3/5 441/3/5 444/3/5
f 446/3/5 443/3/5 442/3/5
f 447/3/5 443/3/5 446/3/5
f 450/1/5 449/1/5 448/1/5
f 451/1/5 449/1/5 450/1/5
f 456/6/5 453/6/5 452/6/5
f 457/6/5 453/6/5 456/6/5
f 458/6/5 453/6/5 457/6/5
f 459/6/5 455/6/5 454/6/5
f 460/6/5 455/6/5 459/6/5
f 461/6/5 455/6/5 460/6/5
f 466/8/5 463/8/5 462/8/5
f 467/8/5 463/8/5 466/8/5
f 468/8/5 465/8/5 464/8/5
f 469/8/5 465/8/5 468/8/5
f 474/8/5 471/8/5 470/8/5
f 475/8/5 471/8/5 474/8/5
f 476/8/5 473/8/5 472/8/5
f 477/8/5 473/8/5 476/8/5
f 480/8/5 479/8/5 478/8/5
f 481/8/5 479/8/5 480/8/5
f 482/8/5 479/8/5 481/8/5
f 483/8/5 479/8/5 482/8/5
f 488/8/5 485/8/5 484/8/5
f 489/8/5 487/8/5 486/8/5
f 492/8/5 485/8/5 488/8/5
f 493/8/5 490/8/5 489/8/5
f 493/8/5 489/8/5 486/8/5
f 494/8/5 490/8/5 493/8/5
f 495/8/5 492/8/5 491/8/5
f 496/8/5 485/8/5 492/8/5
f 496/8/5 492/8/5 495/8/5
f 501/8/5 500/8/5 499/8/5
f 502/8/5 500/8/5 501/8/5
f 503/8/5 498/8/5 497/8/5
f 504/8/5 498/8/5 503/8/5
f 507/8/5 506/8/5 505/8/5
f 508/8/5 506/8/5 507/8/5
f 509/3/6 510/3/6 517/3/6
f 517/3/6 510/3/6 518/3/6
f 511/3/6 512/3/6 519/3/6
f 519/3/6 512/3/6 520/3/6
f 513/3/6 514/3/6 521/3/6
f 521/3/6 514/3/6 522/3/6
f 515/3/6 516/3/6 523/3/6
f 523/3/6 516/3/6 524/3/6
f 525/6/6 526/6/6 531/6/6
f 531/6/6 526/6/6 532/6/6
f 527/6/6 528/6/6 533/6/6
f 533/6/6 528/6/6 534/6/6
f 529/6/6 530/6/6 535/6/6
f 535/6/6 530/6/6 536/6/6
f 537/8/6 538/8/6 539/8/6
f 539/8/6 538/8/6 540/8/6
f 541/8/6 542/8/6 545/8/6
f 543/8/6 544/8/6 546/8/6
f 545/8/6 542/8/6 550/8/6
f 549/8/6 550/8/6 551/8/6
f 550/8/6 542/8/6 552/8/6
f 551/8/6 550/8/6 552/8/6
f 547/8/6 548/8/6 553/8/6
f 543/8/6 546/8/6 553/8/6
f 546/8/6 547/8/6 553/8/6
f 553/8/6 548/8/6 554/8/6
f 549/8/6 551/8/6 555/8/6
f 555/8/6 551/8/6 556/8/6
f 557/8/6 558/8/6 559/8/6
f 559/8/6 558/8/6 560/8/6
f 560/8/6 558/8/6 561/8/6
f 561/8/6 558/8/6 562/8/6
f 563/1/6 564/1/6 566/1/6
f 566/1/6 564/1/6 567/1/6
f 565/3/6 566/3/6 569/3/6
f 567/3/6 568/3/6 569/3/6
f 566/3/6 567/3/6 569/3/6
f 569/3/6 568/3/6 570/3/6
f 565/3/6 569/3/6 571/3/6
f 569/2/6 570/2/6 571/2/6
f 571/2/6 570/2/6 572/2/6
f 565/3/6 571/3/6 573/3/6
f 571/3/6 572/3/6 573/3/6
f 573/3/6 572/3/6 574/3/6
f 575/8/6 576/8/6 579/8/6
f 579/8/6 576/8/6 580/8/6
f 577/8/6 578/8/6 581/8/6
f 581/8/6 578/8/6 582/8/6
f 583/6/6 584/6/6 587/6/6
f 587/6/6 584/6/6 588/6/6
f 585/6/6 586/6/6 589/6/6
f 589/6/6 586/6/6 590/6/6
f 591/8/6 592/8/6 593/8/6
f 593/8/6 592/8/6 594/8/6
f 597/8/6 598/8/6 599/8/6
f 599/8/6 598/8/6 600/8/6
f 595/8/6 596/8/6 601/8/6
f 601/8/6 596/8/6 602/8/6
