# MagicaVoxel @ Ephtracy

# group
o 

# material
mtllib purple.mtl
usemtl palette

# normals
vn -1 0 0
vn 1 0 0
vn 0 0 1
vn 0 0 -1
vn 0 -1 0
vn 0 1 0

# texcoords
vt 0.0332031 0.5
vt 0.0605469 0.5
vt 0.255859 0.5
vt 0.384766 0.5
vt 0.412109 0.5
vt 0.994141 0.5

# verts
v 1.2 3.7 -3.6
v 1.2 3.7 -3.9
v 1.2 4.1 -3.6
v 1.2 4.1 -3.9
v 1.4 3.4 -3.2
v 1.4 3.4 -3.9
v 1.4 3.5 -3.9
v 1.4 3.5 -4
v 1.4 3.7 -3.6
v 1.4 3.7 -3.9
v 1.4 4.1 -3.4
v 1.4 4.1 -3.6
v 1.4 4.1 -3.9
v 1.4 4.2 -3.3
v 1.4 4.2 -3.4
v 1.4 4.3 -3.2
v 1.4 4.3 -3.3
v 1.4 4.6 -3.2
v 1.4 4.6 -3.3
v 1.4 4.9 -3.4
v 1.4 4.9 -3.5
v 1.4 5 -3.3
v 1.4 5 -3.4
v 1.4 5 -3.5
v 1.4 5 -3.6
v 1.4 5 -3.7
v 1.4 5 -3.8
v 1.4 5.1 -3.6
v 1.4 5.1 -3.7
v 1.4 5.1 -3.8
v 1.4 5.1 -4
v 1.5 4.1 -3.1
v 1.5 4.1 -3.2
v 1.5 4.2 -3.1
v 1.5 4.2 -3.2
v 1.5 4.6 -3.2
v 1.5 4.6 -3.3
v 1.5 4.9 -3.4
v 1.5 4.9 -3.5
v 1.5 5 -3.2
v 1.5 5 -3.3
v 1.5 5 -3.4
v 1.5 5 -3.5
v 1.5 5 -3.7
v 1.5 5 -3.8
v 1.5 5.1 -3.7
v 1.5 5.1 -3.8
v 1.6 3.6 -3.1
v 1.6 3.6 -3.2
v 1.6 3.7 -3.1
v 1.6 3.7 -3.2
v 1.6 4 -3.1
v 1.6 4 -3.2
v 1.6 4.1 -3.1
v 1.6 4.1 -3.2
v 1.7 3.5 -3.1
v 1.7 3.5 -3.2
v 1.7 3.6 -3.1
v 1.7 3.6 -3.2
v 1.8 3.7 -3.1
v 1.8 3.7 -3.2
v 1.8 4.1 -3.1
v 1.8 4.1 -3.2
v 1.8 4.7 -3.2
v 1.8 4.7 -3.4
v 1.8 4.9 -3.4
v 1.8 4.9 -3.8
v 1.8 4.9 -4
v 1.8 5 -3.2
v 1.8 5 -3.4
v 1.8 5 -3.8
v 1.8 5 -4
v 1.9 4.8 -3.6
v 1.9 4.8 -3.7
v 1.9 4.9 -3.4
v 1.9 4.9 -3.6
v 1.9 4.9 -3.7
v 1.9 4.9 -3.8
v 1.9 5 -3.3
v 1.9 5 -3.4
v 1.9 5 -3.8
v 1.9 5.1 -3.3
v 1.9 5.1 -3.4
v 2 4.1 -3.1
v 2 4.1 -3.2
v 2 4.2 -3.1
v 2 4.2 -3.2
v 2 4.7 -3.2
v 2 4.7 -3.3
v 2 5.1 -3.2
v 2 5.1 -3.3
v 2.1 3.6 -3.1
v 2.1 3.6 -3.2
v 2.1 3.7 -3.1
v 2.1 3.7 -3.2
v 2.1 4 -3.1
v 2.1 4 -3.2
v 2.1 4.1 -3.1
v 2.1 4.1 -3.2
v 2.1 4.9 -3.4
v 2.1 4.9 -3.6
v 2.1 5 -3.5
v 2.1 5 -3.6
v 2.1 5 -3.7
v 2.1 5.1 -3.4
v 2.1 5.1 -3.5
v 2.1 5.1 -3.6
v 2.1 5.1 -3.7
v 2.2 4.7 -3.2
v 2.2 4.7 -3.3
v 2.2 5.1 -3.2
v 2.2 5.1 -3.3
v 1.6 4.9 -3.4
v 1.6 4.9 -3.6
v 1.6 4.9 -3.7
v 1.6 4.9 -4
v 1.6 5 -3.4
v 1.6 5 -3.6
v 1.6 5 -3.7
v 1.6 5.1 -3.6
v 1.6 5.1 -4
v 1.7 3.6 -3.1
v 1.7 3.6 -3.2
v 1.7 3.7 -3.1
v 1.7 3.7 -3.2
v 1.7 4 -3.1
v 1.7 4 -3.2
v 1.7 4.1 -3.1
v 1.7 4.1 -3.2
v 1.7 4.7 -3.2
v 1.7 4.7 -3.4
v 1.7 4.9 -3.4
v 1.7 5 -3.2
v 1.7 5 -3.4
v 1.8 4.1 -3.1
v 1.8 4.1 -3.2
v 1.8 4.2 -3.1
v 1.8 4.2 -3.2
v 1.8 4.8 -3.6
v 1.8 4.8 -3.7
v 1.8 4.9 -3.6
v 1.8 4.9 -3.7
v 1.8 5 -3.6
v 1.8 5 -3.7
v 1.9 4.7 -3.2
v 1.9 4.7 -3.3
v 1.9 5 -3.2
v 1.9 5 -3.3
v 2 3.7 -3.1
v 2 3.7 -3.2
v 2 4.1 -3.1
v 2 4.1 -3.2
v 2 4.9 -3.4
v 2 4.9 -3.6
v 2 4.9 -3.7
v 2 4.9 -4
v 2 5 -3.4
v 2 5 -3.6
v 2 5 -3.7
v 2 5 -4
v 2.1 3.5 -3.1
v 2.1 3.5 -3.2
v 2.1 3.6 -3.1
v 2.1 3.6 -3.2
v 2.1 4.7 -3.2
v 2.1 4.7 -3.3
v 2.1 5.1 -3.2
v 2.1 5.1 -3.3
v 2.2 3.6 -3.1
v 2.2 3.6 -3.2
v 2.2 3.7 -3.1
v 2.2 3.7 -3.2
v 2.2 4 -3.1
v 2.2 4 -3.2
v 2.2 4.1 -3.1
v 2.2 4.1 -3.2
v 2.2 4.8 -3.7
v 2.2 4.8 -4
v 2.2 4.9 -3.5
v 2.2 4.9 -3.7
v 2.2 4.9 -4
v 2.2 5 -3.4
v 2.2 5 -3.5
v 2.2 5 -3.6
v 2.2 5.1 -3.4
v 2.2 5.1 -3.5
v 2.2 5.1 -3.6
v 2.2 5.1 -3.7
v 2.3 4.1 -3.1
v 2.3 4.1 -3.2
v 2.3 4.2 -3.1
v 2.3 4.2 -3.2
v 2.3 4.6 -3.2
v 2.3 4.6 -3.5
v 2.3 4.9 -3.5
v 2.3 5 -3.4
v 2.3 5 -3.5
v 2.3 5.1 -3.2
v 2.3 5.1 -3.4
v 2.4 3.4 -3.2
v 2.4 3.4 -3.9
v 2.4 3.5 -3.9
v 2.4 3.5 -4
v 2.4 3.7 -3.6
v 2.4 3.7 -3.9
v 2.4 4.1 -3.4
v 2.4 4.1 -3.6
v 2.4 4.1 -3.9
v 2.4 4.2 -3.3
v 2.4 4.2 -3.4
v 2.4 4.3 -3.2
v 2.4 4.3 -3.3
v 2.4 4.6 -3.2
v 2.4 4.6 -3.5
v 2.4 4.8 -3.7
v 2.4 4.8 -4
v 2.4 4.9 -3.5
v 2.4 4.9 -3.7
v 2.6 3.7 -3.6
v 2.6 3.7 -3.9
v 2.6 4.1 -3.6
v 2.6 4.1 -3.9
v 1.5 4.1 -3.1
v 1.5 4.2 -3.1
v 1.6 3.6 -3.1
v 1.6 3.7 -3.1
v 1.6 4 -3.1
v 1.6 4.1 -3.1
v 1.7 3.5 -3.1
v 1.7 3.6 -3.1
v 1.7 3.7 -3.1
v 1.7 4 -3.1
v 1.7 4.1 -3.1
v 1.8 3.7 -3.1
v 1.8 4.1 -3.1
v 1.8 4.2 -3.1
v 2 3.7 -3.1
v 2 4.1 -3.1
v 2 4.2 -3.1
v 2.1 3.5 -3.1
v 2.1 3.6 -3.1
v 2.1 3.7 -3.1
v 2.1 4 -3.1
v 2.1 4.1 -3.1
v 2.2 3.6 -3.1
v 2.2 3.7 -3.1
v 2.2 4 -3.1
v 2.2 4.1 -3.1
v 2.3 4.1 -3.1
v 2.3 4.2 -3.1
v 1.4 3.4 -3.2
v 1.4 4.3 -3.2
v 1.4 4.6 -3.2
v 1.5 4.1 -3.2
v 1.5 4.2 -3.2
v 1.5 4.6 -3.2
v 1.5 5 -3.2
v 1.6 3.6 -3.2
v 1.6 3.7 -3.2
v 1.6 4 -3.2
v 1.6 4.1 -3.2
v 1.7 3.5 -3.2
v 1.7 3.6 -3.2
v 1.7 3.7 -3.2
v 1.7 4 -3.2
v 1.7 4.1 -3.2
v 1.7 4.7 -3.2
v 1.7 5 -3.2
v 1.8 3.7 -3.2
v 1.8 4.1 -3.2
v 1.8 4.2 -3.2
v 1.8 4.7 -3.2
v 1.8 5 -3.2
v 1.9 4.7 -3.2
v 1.9 5 -3.2
v 2 3.7 -3.2
v 2 4.1 -3.2
v 2 4.2 -3.2
v 2 4.7 -3.2
v 2 5.1 -3.2
v 2.1 3.5 -3.2
v 2.1 3.6 -3.2
v 2.1 3.7 -3.2
v 2.1 4 -3.2
v 2.1 4.1 -3.2
v 2.1 4.7 -3.2
v 2.1 5.1 -3.2
v 2.2 3.6 -3.2
v 2.2 3.7 -3.2
v 2.2 4 -3.2
v 2.2 4.1 -3.2
v 2.2 4.7 -3.2
v 2.2 5.1 -3.2
v 2.3 4.1 -3.2
v 2.3 4.2 -3.2
v 2.3 4.6 -3.2
v 2.3 5.1 -3.2
v 2.4 3.4 -3.2
v 2.4 4.3 -3.2
v 2.4 4.6 -3.2
v 1.4 4.6 -3.3
v 1.4 5 -3.3
v 1.5 4.6 -3.3
v 1.5 5 -3.3
v 1.9 4.7 -3.3
v 1.9 5 -3.3
v 1.9 5.1 -3.3
v 2 4.7 -3.3
v 2 5.1 -3.3
v 2.1 4.7 -3.3
v 2.1 5.1 -3.3
v 2.2 4.7 -3.3
v 2.2 5.1 -3.3
v 1.7 4.7 -3.4
v 1.7 4.9 -3.4
v 1.8 4.7 -3.4
v 1.8 4.9 -3.4
v 1.4 4.9 -3.5
v 1.4 5 -3.5
v 1.5 4.9 -3.5
v 1.5 5 -3.5
v 2.3 4.6 -3.5
v 2.3 4.9 -3.5
v 2.4 4.6 -3.5
v 2.4 4.9 -3.5
v 1.2 3.7 -3.6
v 1.2 4.1 -3.6
v 1.4 3.7 -3.6
v 1.4 4.1 -3.6
v 1.4 5 -3.6
v 1.4 5.1 -3.6
v 1.6 4.9 -3.6
v 1.6 5 -3.6
v 1.6 5.1 -3.6
v 1.8 4.9 -3.6
v 1.8 5 -3.6
v 2 4.9 -3.6
v 2 5 -3.6
v 2.1 4.9 -3.6
v 2.1 5 -3.6
v 2.1 5.1 -3.6
v 2.2 5 -3.6
v 2.2 5.1 -3.6
v 2.4 3.7 -3.6
v 2.4 4.1 -3.6
v 2.6 3.7 -3.6
v 2.6 4.1 -3.6
v 1.8 4.8 -3.7
v 1.8 4.9 -3.7
v 1.9 4.8 -3.7
v 1.9 4.9 -3.7
v 1.4 5 -3.8
v 1.4 5.1 -3.8
v 1.5 5 -3.8
v 1.5 5.1 -3.8
v 1.8 4.9 -3.8
v 1.8 5 -3.8
v 1.9 4.9 -3.8
v 1.9 5 -3.8
v 1.4 4.9 -3.4
v 1.4 5 -3.4
v 1.5 4.9 -3.4
v 1.5 5 -3.4
v 1.6 4.9 -3.4
v 1.6 5 -3.4
v 1.7 4.9 -3.4
v 1.7 5 -3.4
v 1.8 4.9 -3.4
v 1.8 5 -3.4
v 1.9 4.9 -3.4
v 1.9 5 -3.4
v 1.9 5.1 -3.4
v 2 4.9 -3.4
v 2 5 -3.4
v 2.1 4.9 -3.4
v 2.1 5.1 -3.4
v 2.2 5 -3.4
v 2.2 5.1 -3.4
v 2.3 5 -3.4
v 2.3 5.1 -3.4
v 2.1 5 -3.5
v 2.1 5.1 -3.5
v 2.2 4.9 -3.5
v 2.2 5 -3.5
v 2.2 5.1 -3.5
v 2.3 4.9 -3.5
v 2.3 5 -3.5
v 1.8 4.8 -3.6
v 1.8 4.9 -3.6
v 1.9 4.8 -3.6
v 1.9 4.9 -3.6
v 1.4 5 -3.7
v 1.4 5.1 -3.7
v 1.5 5 -3.7
v 1.5 5.1 -3.7
v 1.6 4.9 -3.7
v 1.6 5 -3.7
v 1.8 4.9 -3.7
v 1.8 5 -3.7
v 2 4.9 -3.7
v 2 5 -3.7
v 2.1 5 -3.7
v 2.1 5.1 -3.7
v 2.2 4.8 -3.7
v 2.2 4.9 -3.7
v 2.2 5.1 -3.7
v 2.4 4.8 -3.7
v 2.4 4.9 -3.7
v 1.2 3.7 -3.9
v 1.2 4.1 -3.9
v 1.4 3.4 -3.9
v 1.4 3.5 -3.9
v 1.4 3.7 -3.9
v 1.4 4.1 -3.9
v 2.4 3.4 -3.9
v 2.4 3.5 -3.9
v 2.4 3.7 -3.9
v 2.4 4.1 -3.9
v 2.6 3.7 -3.9
v 2.6 4.1 -3.9
v 1.4 3.5 -4
v 1.4 5.1 -4
v 1.6 4.9 -4
v 1.6 5.1 -4
v 1.8 4.9 -4
v 1.8 5 -4
v 2 4.9 -4
v 2 5 -4
v 2.2 4.8 -4
v 2.2 4.9 -4
v 2.4 3.5 -4
v 2.4 4.8 -4
v 1.4 3.4 -3.2
v 2.4 3.4 -3.2
v 1.5 3.4 -3.3
v 2.3 3.4 -3.3
v 1.5 3.4 -3.8
v 2.3 3.4 -3.8
v 1.4 3.4 -3.9
v 2.4 3.4 -3.9
v 1.7 3.5 -3.1
v 2.1 3.5 -3.1
v 1.7 3.5 -3.2
v 2.1 3.5 -3.2
v 1.4 3.5 -3.9
v 2.4 3.5 -3.9
v 1.4 3.5 -4
v 2.4 3.5 -4
v 1.6 3.6 -3.1
v 1.7 3.6 -3.1
v 2.1 3.6 -3.1
v 2.2 3.6 -3.1
v 1.6 3.6 -3.2
v 1.7 3.6 -3.2
v 2.1 3.6 -3.2
v 2.2 3.6 -3.2
v 1.8 3.7 -3.1
v 2 3.7 -3.1
v 1.8 3.7 -3.2
v 2 3.7 -3.2
v 1.2 3.7 -3.6
v 1.4 3.7 -3.6
v 2.4 3.7 -3.6
v 2.6 3.7 -3.6
v 1.2 3.7 -3.9
v 1.4 3.7 -3.9
v 2.4 3.7 -3.9
v 2.6 3.7 -3.9
v 1.6 4 -3.1
v 1.7 4 -3.1
v 2.1 4 -3.1
v 2.2 4 -3.1
v 1.6 4 -3.2
v 1.7 4 -3.2
v 2.1 4 -3.2
v 2.2 4 -3.2
v 1.5 4.1 -3.1
v 1.6 4.1 -3.1
v 1.7 4.1 -3.1
v 1.8 4.1 -3.1
v 2 4.1 -3.1
v 2.1 4.1 -3.1
v 2.2 4.1 -3.1
v 2.3 4.1 -3.1
v 1.5 4.1 -3.2
v 1.6 4.1 -3.2
v 1.7 4.1 -3.2
v 1.8 4.1 -3.2
v 2 4.1 -3.2
v 2.1 4.1 -3.2
v 2.2 4.1 -3.2
v 2.3 4.1 -3.2
v 1.7 3.6 -3.1
v 2.1 3.6 -3.1
v 1.7 3.6 -3.2
v 2.1 3.6 -3.2
v 1.6 3.7 -3.1
v 1.7 3.7 -3.1
v 2.1 3.7 -3.1
v 2.2 3.7 -3.1
v 1.6 3.7 -3.2
v 1.7 3.7 -3.2
v 2.1 3.7 -3.2
v 2.2 3.7 -3.2
v 1.8 4.1 -3.1
v 2 4.1 -3.1
v 1.8 4.1 -3.2
v 2 4.1 -3.2
v 1.2 4.1 -3.6
v 1.4 4.1 -3.6
v 2.4 4.1 -3.6
v 2.6 4.1 -3.6
v 1.2 4.1 -3.9
v 1.4 4.1 -3.9
v 2.4 4.1 -3.9
v 2.6 4.1 -3.9
v 1.5 4.2 -3.1
v 1.8 4.2 -3.1
v 2 4.2 -3.1
v 2.3 4.2 -3.1
v 1.5 4.2 -3.2
v 1.8 4.2 -3.2
v 2 4.2 -3.2
v 2.3 4.2 -3.2
v 1.4 4.6 -3.2
v 1.5 4.6 -3.2
v 2.3 4.6 -3.2
v 2.4 4.6 -3.2
v 1.4 4.6 -3.3
v 1.5 4.6 -3.3
v 2.3 4.6 -3.5
v 2.4 4.6 -3.5
v 1.7 4.7 -3.2
v 1.8 4.7 -3.2
v 1.9 4.7 -3.2
v 2 4.7 -3.2
v 2.1 4.7 -3.2
v 2.2 4.7 -3.2
v 1.9 4.7 -3.3
v 2 4.7 -3.3
v 2.1 4.7 -3.3
v 2.2 4.7 -3.3
v 1.7 4.7 -3.4
v 1.8 4.7 -3.4
v 1.8 4.8 -3.6
v 1.9 4.8 -3.6
v 1.8 4.8 -3.7
v 1.9 4.8 -3.7
v 2.2 4.8 -3.7
v 2.4 4.8 -3.7
v 2.2 4.8 -4
v 2.4 4.8 -4
v 1.4 4.9 -3.4
v 1.5 4.9 -3.4
v 1.6 4.9 -3.4
v 1.7 4.9 -3.4
v 1.8 4.9 -3.4
v 1.9 4.9 -3.4
v 2 4.9 -3.4
v 2.1 4.9 -3.4
v 1.4 4.9 -3.5
v 1.5 4.9 -3.5
v 2.2 4.9 -3.5
v 2.3 4.9 -3.5
v 2.4 4.9 -3.5
v 1.6 4.9 -3.6
v 1.8 4.9 -3.6
v 1.9 4.9 -3.6
v 2 4.9 -3.6
v 2.1 4.9 -3.6
v 1.6 4.9 -3.7
v 1.8 4.9 -3.7
v 1.9 4.9 -3.7
v 2 4.9 -3.7
v 2.2 4.9 -3.7
v 2.4 4.9 -3.7
v 1.8 4.9 -3.8
v 1.9 4.9 -3.8
v 1.6 4.9 -4
v 1.8 4.9 -4
v 2 4.9 -4
v 2.2 4.9 -4
v 1.5 5 -3.2
v 1.7 5 -3.2
v 1.8 5 -3.2
v 1.9 5 -3.2
v 1.4 5 -3.3
v 1.5 5 -3.3
v 1.9 5 -3.3
v 1.4 5 -3.4
v 1.5 5 -3.4
v 1.6 5 -3.4
v 1.7 5 -3.4
v 1.8 5 -3.4
v 1.9 5 -3.4
v 2 5 -3.4
v 2.2 5 -3.4
v 2.3 5 -3.4
v 1.4 5 -3.5
v 1.5 5 -3.5
v 2.1 5 -3.5
v 2.2 5 -3.5
v 2.3 5 -3.5
v 1.4 5 -3.6
v 1.6 5 -3.6
v 1.8 5 -3.6
v 2 5 -3.6
v 2.1 5 -3.6
v 2.2 5 -3.6
v 1.4 5 -3.7
v 1.5 5 -3.7
v 1.6 5 -3.7
v 1.8 5 -3.7
v 2 5 -3.7
v 2.1 5 -3.7
v 1.4 5 -3.8
v 1.5 5 -3.8
v 1.8 5 -3.8
v 1.9 5 -3.8
v 1.8 5 -4
v 2 5 -4
v 2 5.1 -3.2
v 2.1 5.1 -3.2
v 2.2 5.1 -3.2
v 2.3 5.1 -3.2
v 1.9 5.1 -3.3
v 2 5.1 -3.3
v 2.1 5.1 -3.3
v 2.2 5.1 -3.3
v 1.9 5.1 -3.4
v 2.1 5.1 -3.4
v 2.2 5.1 -3.4
v 2.3 5.1 -3.4
v 2.1 5.1 -3.5
v 2.2 5.1 -3.5
v 1.4 5.1 -3.6
v 1.6 5.1 -3.6
v 2.1 5.1 -3.6
v 2.2 5.1 -3.6
v 1.4 5.1 -3.7
v 1.5 5.1 -3.7
v 2.1 5.1 -3.7
v 2.2 5.1 -3.7
v 1.4 5.1 -3.8
v 1.5 5.1 -3.8
v 1.4 5.1 -4
v 1.6 5.1 -4

# faces
f 3/2/1 2/2/1 1/2/1
f 4/2/1 2/2/1 3/2/1
f 7/2/1 6/2/1 5/2/1
f 9/2/1 7/2/1 5/2/1
f 10/5/1 8/5/1 7/5/1
f 10/2/1 7/2/1 9/2/1
f 11/2/1 9/2/1 5/2/1
f 12/2/1 9/2/1 11/2/1
f 13/5/1 8/5/1 10/5/1
f 14/2/1 11/2/1 5/2/1
f 15/5/1 12/5/1 11/5/1
f 15/2/1 11/2/1 14/2/1
f 15/5/1 13/5/1 12/5/1
f 16/2/1 14/2/1 5/2/1
f 17/5/1 15/5/1 14/5/1
f 17/2/1 14/2/1 16/2/1
f 18/5/1 17/5/1 16/5/1
f 19/5/1 15/5/1 17/5/1
f 19/5/1 17/5/1 18/5/1
f 20/5/1 13/5/1 15/5/1
f 20/5/1 15/5/1 19/5/1
f 21/5/1 13/5/1 20/5/1
f 22/5/1 20/5/1 19/5/1
f 23/5/1 20/5/1 22/5/1
f 24/5/1 13/5/1 21/5/1
f 25/5/1 13/5/1 24/5/1
f 26/5/1 13/5/1 25/5/1
f 27/5/1 13/5/1 26/5/1
f 28/5/1 26/5/1 25/5/1
f 29/5/1 26/5/1 28/5/1
f 30/5/1 13/5/1 27/5/1
f 31/5/1 8/5/1 13/5/1
f 31/5/1 13/5/1 30/5/1
f 34/4/1 33/4/1 32/4/1
f 35/4/1 33/4/1 34/4/1
f 40/5/1 37/5/1 36/5/1
f 41/5/1 37/5/1 40/5/1
f 42/5/1 39/5/1 38/5/1
f 43/5/1 39/5/1 42/5/1
f 46/5/1 45/5/1 44/5/1
f 47/5/1 45/5/1 46/5/1
f 50/3/1 49/3/1 48/3/1
f 51/3/1 49/3/1 50/3/1
f 54/6/1 53/6/1 52/6/1
f 55/6/1 53/6/1 54/6/1
f 58/3/1 57/3/1 56/3/1
f 59/3/1 57/3/1 58/3/1
f 62/2/1 61/2/1 60/2/1
f 63/2/1 61/2/1 62/2/1
f 66/5/1 65/5/1 64/5/1
f 69/5/1 66/5/1 64/5/1
f 70/5/1 66/5/1 69/5/1
f 71/5/1 68/5/1 67/5/1
f 72/5/1 68/5/1 71/5/1
f 76/5/1 74/5/1 73/5/1
f 77/5/1 74/5/1 76/5/1
f 80/5/1 76/5/1 75/5/1
f 80/5/1 78/5/1 77/5/1
f 80/5/1 77/5/1 76/5/1
f 81/5/1 78/5/1 80/5/1
f 82/5/1 80/5/1 79/5/1
f 83/5/1 80/5/1 82/5/1
f 86/4/1 85/4/1 84/4/1
f 87/4/1 85/4/1 86/4/1
f 90/5/1 89/5/1 88/5/1
f 91/5/1 89/5/1 90/5/1
f 94/3/1 93/3/1 92/3/1
f 95/3/1 93/3/1 94/3/1
f 98/6/1 97/6/1 96/6/1
f 99/6/1 97/6/1 98/6/1
f 102/5/1 101/5/1 100/5/1
f 103/5/1 101/5/1 102/5/1
f 105/5/1 102/5/1 100/5/1
f 106/5/1 102/5/1 105/5/1
f 107/5/1 104/5/1 103/5/1
f 108/5/1 104/5/1 107/5/1
f 111/5/1 110/5/1 109/5/1
f 112/5/1 110/5/1 111/5/1
f 113/5/2 114/5/2 117/5/2
f 117/5/2 114/5/2 118/5/2
f 115/5/2 116/5/2 119/5/2
f 118/5/2 119/5/2 120/5/2
f 119/5/2 116/5/2 121/5/2
f 120/5/2 119/5/2 121/5/2
f 122/3/2 123/3/2 124/3/2
f 124/3/2 123/3/2 125/3/2
f 126/6/2 127/6/2 128/6/2
f 128/6/2 127/6/2 129/6/2
f 130/5/2 131/5/2 132/5/2
f 130/5/2 132/5/2 133/5/2
f 133/5/2 132/5/2 134/5/2
f 135/4/2 136/4/2 137/4/2
f 137/4/2 136/4/2 138/4/2
f 139/5/2 140/5/2 141/5/2
f 141/5/2 140/5/2 142/5/2
f 141/5/2 142/5/2 143/5/2
f 143/5/2 142/5/2 144/5/2
f 145/5/2 146/5/2 147/5/2
f 147/5/2 146/5/2 148/5/2
f 149/2/2 150/2/2 151/2/2
f 151/2/2 150/2/2 152/2/2
f 153/5/2 154/5/2 157/5/2
f 157/5/2 154/5/2 158/5/2
f 155/5/2 156/5/2 159/5/2
f 159/5/2 156/5/2 160/5/2
f 161/3/2 162/3/2 163/3/2
f 163/3/2 162/3/2 164/3/2
f 165/5/2 166/5/2 167/5/2
f 167/5/2 166/5/2 168/5/2
f 169/3/2 170/3/2 171/3/2
f 171/3/2 170/3/2 172/3/2
f 173/6/2 174/6/2 175/6/2
f 175/6/2 174/6/2 176/6/2
f 177/5/2 178/5/2 180/5/2
f 180/5/2 178/5/2 181/5/2
f 179/5/2 180/5/2 183/5/2
f 183/5/2 180/5/2 184/5/2
f 182/5/2 183/5/2 185/5/2
f 185/5/2 183/5/2 186/5/2
f 184/5/2 180/5/2 187/5/2
f 187/5/2 180/5/2 188/5/2
f 189/4/2 190/4/2 191/4/2
f 191/4/2 190/4/2 192/4/2
f 193/5/2 194/5/2 195/5/2
f 193/5/2 195/5/2 196/5/2
f 196/5/2 195/5/2 197/5/2
f 193/5/2 196/5/2 198/5/2
f 198/5/2 196/5/2 199/5/2
f 200/2/2 201/2/2 202/2/2
f 200/2/2 202/2/2 204/2/2
f 202/5/2 203/5/2 205/5/2
f 204/2/2 202/2/2 205/2/2
f 200/2/2 204/2/2 206/2/2
f 206/2/2 204/2/2 207/2/2
f 205/5/2 203/5/2 208/5/2
f 200/2/2 206/2/2 209/2/2
f 206/5/2 207/5/2 210/5/2
f 209/2/2 206/2/2 210/2/2
f 207/5/2 208/5/2 210/5/2
f 200/2/2 209/2/2 211/2/2
f 209/5/2 210/5/2 212/5/2
f 211/2/2 209/2/2 212/2/2
f 211/5/2 212/5/2 213/5/2
f 210/5/2 208/5/2 214/5/2
f 213/5/2 212/5/2 214/5/2
f 212/5/2 210/5/2 214/5/2
f 214/5/2 208/5/2 215/5/2
f 208/5/2 203/5/2 216/5/2
f 215/5/2 208/5/2 216/5/2
f 214/5/2 215/5/2 217/5/2
f 217/5/2 215/5/2 218/5/2
f 219/2/2 220/2/2 221/2/2
f 221/2/2 220/2/2 222/2/2
f 228/4/3 224/4/3 223/4/3
f 230/3/3 226/3/3 225/3/3
f 231/3/3 226/3/3 230/3/3
f 232/6/3 228/6/3 227/6/3
f 233/4/3 224/4/3 228/4/3
f 233/6/3 228/6/3 232/6/3
f 235/4/3 224/4/3 233/4/3
f 236/4/3 224/4/3 235/4/3
f 237/2/3 235/2/3 234/2/3
f 238/2/3 235/2/3 237/2/3
f 240/3/3 230/3/3 229/3/3
f 241/3/3 230/3/3 240/3/3
f 244/4/3 239/4/3 238/4/3
f 245/3/3 242/3/3 241/3/3
f 246/3/3 242/3/3 245/3/3
f 247/6/3 244/6/3 243/6/3
f 248/4/3 239/4/3 244/4/3
f 248/6/3 244/6/3 247/6/3
f 249/4/3 239/4/3 248/4/3
f 250/4/3 239/4/3 249/4/3
f 254/2/3 252/2/3 251/2/3
f 255/2/3 252/2/3 254/2/3
f 256/5/3 253/5/3 252/5/3
f 258/2/3 254/2/3 251/2/3
f 259/2/3 254/2/3 258/2/3
f 260/2/3 254/2/3 259/2/3
f 261/2/3 254/2/3 260/2/3
f 262/2/3 258/2/3 251/2/3
f 263/2/3 258/2/3 262/2/3
f 264/2/3 260/2/3 259/2/3
f 265/2/3 260/2/3 264/2/3
f 267/5/3 257/5/3 256/5/3
f 268/5/3 257/5/3 267/5/3
f 269/2/3 266/2/3 265/2/3
f 269/2/3 265/2/3 264/2/3
f 269/2/3 264/2/3 263/2/3
f 270/2/3 266/2/3 269/2/3
f 271/2/3 252/2/3 255/2/3
f 272/5/3 267/5/3 256/5/3
f 274/5/3 273/5/3 272/5/3
f 274/5/3 272/5/3 256/5/3
f 275/5/3 273/5/3 274/5/3
f 276/2/3 269/2/3 263/2/3
f 277/2/3 271/2/3 270/2/3
f 278/2/3 252/2/3 271/2/3
f 278/2/3 271/2/3 277/2/3
f 279/5/3 274/5/3 256/5/3
f 281/2/3 262/2/3 251/2/3
f 282/2/3 277/2/3 276/2/3
f 282/2/3 276/2/3 263/2/3
f 283/2/3 277/2/3 282/2/3
f 284/2/3 277/2/3 283/2/3
f 285/2/3 277/2/3 284/2/3
f 286/5/3 279/5/3 256/5/3
f 286/5/3 280/5/3 279/5/3
f 287/5/3 280/5/3 286/5/3
f 288/2/3 282/2/3 281/2/3
f 289/2/3 284/2/3 283/2/3
f 290/2/3 284/2/3 289/2/3
f 292/5/3 286/5/3 256/5/3
f 294/2/3 291/2/3 290/2/3
f 294/2/3 289/2/3 288/2/3
f 294/2/3 290/2/3 289/2/3
f 295/2/3 252/2/3 278/2/3
f 296/5/3 256/5/3 252/5/3
f 296/5/3 293/5/3 292/5/3
f 296/5/3 292/5/3 256/5/3
f 297/5/3 293/5/3 296/5/3
f 298/2/3 281/2/3 251/2/3
f 298/2/3 295/2/3 294/2/3
f 298/2/3 294/2/3 288/2/3
f 298/2/3 288/2/3 281/2/3
f 299/5/3 296/5/3 252/5/3
f 299/2/3 295/2/3 298/2/3
f 299/2/3 252/2/3 295/2/3
f 300/5/3 296/5/3 299/5/3
f 303/5/3 302/5/3 301/5/3
f 304/5/3 302/5/3 303/5/3
f 308/5/3 306/5/3 305/5/3
f 308/5/3 307/5/3 306/5/3
f 309/5/3 307/5/3 308/5/3
f 312/5/3 311/5/3 310/5/3
f 313/5/3 311/5/3 312/5/3
f 316/5/3 315/5/3 314/5/3
f 317/5/3 315/5/3 316/5/3
f 320/5/3 319/5/3 318/5/3
f 321/5/3 319/5/3 320/5/3
f 324/5/3 323/5/3 322/5/3
f 325/5/3 323/5/3 324/5/3
f 328/2/3 327/2/3 326/2/3
f 329/2/3 327/2/3 328/2/3
f 333/5/3 331/5/3 330/5/3
f 334/5/3 331/5/3 333/5/3
f 335/5/3 333/5/3 332/5/3
f 336/5/3 333/5/3 335/5/3
f 339/5/3 338/5/3 337/5/3
f 340/5/3 338/5/3 339/5/3
f 342/5/3 341/5/3 340/5/3
f 343/5/3 341/5/3 342/5/3
f 346/2/3 345/2/3 344/2/3
f 347/2/3 345/2/3 346/2/3
f 350/5/3 349/5/3 348/5/3
f 351/5/3 349/5/3 350/5/3
f 354/5/3 353/5/3 352/5/3
f 355/5/3 353/5/3 354/5/3
f 358/5/3 357/5/3 356/5/3
f 359/5/3 357/5/3 358/5/3
f 360/5/4 361/5/4 362/5/4
f 362/5/4 361/5/4 363/5/4
f 364/5/4 365/5/4 366/5/4
f 366/5/4 365/5/4 367/5/4
f 368/5/4 369/5/4 370/5/4
f 370/5/4 369/5/4 371/5/4
f 371/5/4 372/5/4 374/5/4
f 373/5/4 374/5/4 375/5/4
f 374/5/4 372/5/4 376/5/4
f 375/5/4 374/5/4 376/5/4
f 377/5/4 378/5/4 379/5/4
f 379/5/4 378/5/4 380/5/4
f 381/5/4 382/5/4 384/5/4
f 384/5/4 382/5/4 385/5/4
f 383/5/4 384/5/4 386/5/4
f 386/5/4 384/5/4 387/5/4
f 388/5/4 389/5/4 390/5/4
f 390/5/4 389/5/4 391/5/4
f 392/5/4 393/5/4 394/5/4
f 394/5/4 393/5/4 395/5/4
f 396/5/4 397/5/4 398/5/4
f 398/5/4 397/5/4 399/5/4
f 400/5/4 401/5/4 402/5/4
f 400/5/4 402/5/4 405/5/4
f 402/5/4 403/5/4 405/5/4
f 405/5/4 403/5/4 406/5/4
f 404/5/4 405/5/4 407/5/4
f 407/5/4 405/5/4 408/5/4
f 409/2/4 410/2/4 413/2/4
f 413/2/4 410/2/4 414/2/4
f 411/2/4 412/2/4 415/2/4
f 415/2/4 412/2/4 416/2/4
f 417/2/4 418/2/4 419/2/4
f 419/2/4 418/2/4 420/2/4
f 421/5/4 422/5/4 423/5/4
f 423/5/4 422/5/4 424/5/4
f 421/5/4 423/5/4 425/5/4
f 421/5/4 425/5/4 427/5/4
f 425/5/4 426/5/4 427/5/4
f 427/5/4 426/5/4 428/5/4
f 421/5/4 427/5/4 429/5/4
f 429/5/4 427/5/4 430/5/4
f 421/5/4 429/5/4 431/5/4
f 431/5/4 429/5/4 432/5/4
f 435/2/5 434/2/5 433/2/5
f 436/2/5 434/2/5 435/2/5
f 437/2/5 435/2/5 433/2/5
f 437/1/5 436/1/5 435/1/5
f 438/2/5 434/2/5 436/2/5
f 438/1/5 436/1/5 437/1/5
f 439/2/5 437/2/5 433/2/5
f 439/2/5 438/2/5 437/2/5
f 440/2/5 434/2/5 438/2/5
f 440/2/5 438/2/5 439/2/5
f 443/3/5 442/3/5 441/3/5
f 444/3/5 442/3/5 443/3/5
f 447/5/5 446/5/5 445/5/5
f 448/5/5 446/5/5 447/5/5
f 453/3/5 450/3/5 449/3/5
f 454/3/5 450/3/5 453/3/5
f 455/3/5 452/3/5 451/3/5
f 456/3/5 452/3/5 455/3/5
f 459/2/5 458/2/5 457/2/5
f 460/2/5 458/2/5 459/2/5
f 465/2/5 462/2/5 461/2/5
f 466/2/5 462/2/5 465/2/5
f 467/2/5 464/2/5 463/2/5
f 468/2/5 464/2/5 467/2/5
f 473/6/5 470/6/5 469/6/5
f 474/6/5 470/6/5 473/6/5
f 475/6/5 472/6/5 471/6/5
f 476/6/5 472/6/5 475/6/5
f 485/4/5 478/4/5 477/4/5
f 486/4/5 478/4/5 485/4/5
f 487/4/5 480/4/5 479/4/5
f 488/4/5 480/4/5 487/4/5
f 489/4/5 482/4/5 481/4/5
f 490/4/5 482/4/5 489/4/5
f 491/4/5 484/4/5 483/4/5
f 492/4/5 484/4/5 491/4/5
f 493/3/6 494/3/6 495/3/6
f 495/3/6 494/3/6 496/3/6
f 497/3/6 498/3/6 501/3/6
f 501/3/6 498/3/6 502/3/6
f 499/3/6 500/3/6 503/3/6
f 503/3/6 500/3/6 504/3/6
f 505/2/6 506/2/6 507/2/6
f 507/2/6 506/2/6 508/2/6
f 509/2/6 510/2/6 513/2/6
f 513/2/6 510/2/6 514/2/6
f 511/2/6 512/2/6 515/2/6
f 515/2/6 512/2/6 516/2/6
f 517/4/6 518/4/6 521/4/6
f 521/4/6 518/4/6 522/4/6
f 519/4/6 520/4/6 523/4/6
f 523/4/6 520/4/6 524/4/6
f 525/5/6 526/5/6 529/5/6
f 529/5/6 526/5/6 530/5/6
f 527/5/6 528/5/6 531/5/6
f 531/5/6 528/5/6 532/5/6
f 535/5/6 536/5/6 539/5/6
f 539/5/6 536/5/6 540/5/6
f 537/5/6 538/5/6 541/5/6
f 541/5/6 538/5/6 542/5/6
f 533/5/6 534/5/6 543/5/6
f 543/5/6 534/5/6 544/5/6
f 545/5/6 546/5/6 547/5/6
f 547/5/6 546/5/6 548/5/6
f 549/5/6 550/5/6 551/5/6
f 551/5/6 550/5/6 552/5/6
f 553/5/6 554/5/6 561/5/6
f 561/5/6 554/5/6 562/5/6
f 555/5/6 556/5/6 566/5/6
f 556/5/6 557/5/6 566/5/6
f 557/5/6 558/5/6 566/5/6
f 566/5/6 558/5/6 567/5/6
f 567/5/6 558/5/6 568/5/6
f 559/5/6 560/5/6 569/5/6
f 569/5/6 560/5/6 570/5/6
f 564/5/6 565/5/6 575/5/6
f 563/5/6 564/5/6 575/5/6
f 575/5/6 565/5/6 576/5/6
f 572/5/6 573/5/6 577/5/6
f 571/5/6 572/5/6 577/5/6
f 577/5/6 573/5/6 578/5/6
f 571/5/6 577/5/6 579/5/6
f 579/5/6 577/5/6 580/5/6
f 574/5/6 575/5/6 581/5/6
f 581/5/6 575/5/6 582/5/6
f 583/5/6 584/5/6 588/5/6
f 585/5/6 586/5/6 589/5/6
f 587/5/6 588/5/6 590/5/6
f 588/5/6 584/5/6 591/5/6
f 590/5/6 588/5/6 591/5/6
f 591/5/6 584/5/6 592/5/6
f 592/5/6 584/5/6 593/5/6
f 585/5/6 589/5/6 594/5/6
f 594/5/6 589/5/6 595/5/6
f 591/5/6 592/5/6 600/5/6
f 597/5/6 598/5/6 602/5/6
f 602/5/6 598/5/6 603/5/6
f 599/5/6 600/5/6 604/5/6
f 600/5/6 592/5/6 605/5/6
f 604/5/6 600/5/6 605/5/6
f 595/5/6 596/5/6 607/5/6
f 601/5/6 602/5/6 608/5/6
f 608/5/6 602/5/6 609/5/6
f 605/5/6 606/5/6 612/5/6
f 612/5/6 606/5/6 613/5/6
f 595/5/6 607/5/6 614/5/6
f 607/5/6 608/5/6 614/5/6
f 614/5/6 608/5/6 615/5/6
f 610/5/6 611/5/6 616/5/6
f 616/5/6 611/5/6 617/5/6
f 595/5/6 614/5/6 619/5/6
f 618/5/6 619/5/6 620/5/6
f 619/5/6 614/5/6 621/5/6
f 620/5/6 619/5/6 621/5/6
f 622/5/6 623/5/6 627/5/6
f 627/5/6 623/5/6 628/5/6
f 624/5/6 625/5/6 629/5/6
f 627/5/6 628/5/6 630/5/6
f 628/5/6 629/5/6 630/5/6
f 626/5/6 627/5/6 630/5/6
f 630/5/6 629/5/6 631/5/6
f 629/5/6 625/5/6 632/5/6
f 631/5/6 629/5/6 632/5/6
f 632/5/6 625/5/6 633/5/6
f 631/5/6 632/5/6 634/5/6
f 634/5/6 632/5/6 635/5/6
f 636/5/6 637/5/6 640/5/6
f 640/5/6 637/5/6 641/5/6
f 638/5/6 639/5/6 642/5/6
f 642/5/6 639/5/6 643/5/6
f 641/5/6 637/5/6 645/5/6
f 644/5/6 645/5/6 646/5/6
f 645/5/6 637/5/6 647/5/6
f 646/5/6 645/5/6 647/5/6
