# MagicaVoxel @ Ephtracy

# group
o 

# material
mtllib character2.mtl
usemtl palette

# normals
vn -1 0 0
vn 1 0 0
vn 0 0 1
vn 0 0 -1
vn 0 -1 0
vn 0 1 0

# texcoords
vt 0.0332031 0.5
vt 0.0410156 0.5
vt 0.0683594 0.5
vt 0.138672 0.5
vt 0.162109 0.5
vt 0.255859 0.5
vt 0.388672 0.5
vt 0.748047 0.5
vt 0.916016 0.5
vt 0.951172 0.5
vt 0.962891 0.5
vt 0.990234 0.5

# verts
v 1.4 3.9 -0.8
v 1.4 3.9 -2
v 1.4 4 -1.8
v 1.4 4 -2
v 1.4 5.1 -1.8
v 1.4 5.1 -2
v 1.4 5.2 -0.8
v 1.4 5.2 -2
v 1.7 4.8 -0.7
v 1.7 4.8 -0.8
v 1.7 5 -0.7
v 1.7 5 -0.8
v 1.8 4.1 -0.8
v 1.8 4.1 -0.9
v 1.8 4.2 -0.8
v 1.8 4.2 -0.9
v 1.9 4 -0.7
v 1.9 4 -0.9
v 1.9 4.1 -0.7
v 1.9 4.1 -0.8
v 1.9 4.1 -0.9
v 1.9 4.3 -0.7
v 1.9 4.3 -0.8
v 1.9 4.3 -0.9
v 1.9 4.4 -0.7
v 1.9 4.4 -0.8
v 1.9 4.4 -0.9
v 2 4.4 -0.7
v 2 4.4 -0.8
v 2 4.5 -0.7
v 2 4.5 -0.8
v 2.1 5.2 -1.1
v 2.1 5.2 -1.5
v 2.1 5.3 -1.1
v 2.1 5.3 -1.5
v 2.2 4.5 -0.8
v 2.2 4.5 -0.9
v 2.2 4.6 -0.8
v 2.2 4.6 -0.9
v 2.2 4.7 -0.8
v 2.2 4.7 -0.9
v 2.2 4.9 -0.7
v 2.2 4.9 -0.8
v 2.2 5 -0.7
v 2.2 5 -0.8
v 2.2 5.3 -1.2
v 2.2 5.3 -1.4
v 2.2 5.5 -1.2
v 2.2 5.5 -1.4
v 2.3 4.1 -0.7
v 2.3 4.1 -0.9
v 2.3 4.2 -0.7
v 2.3 4.2 -0.9
v 2.3 5.5 -1.2
v 2.3 5.5 -1.4
v 2.3 5.6 -1.2
v 2.3 5.6 -1.4
v 2.4 4.8 -0.7
v 2.4 4.8 -0.8
v 2.4 4.9 -0.7
v 2.4 4.9 -0.8
v 2.5 3.9 -0.8
v 2.5 3.9 -0.9
v 2.5 4.4 -0.8
v 2.5 4.4 -0.9
v 2.5 4.7 -0.8
v 2.5 4.7 -0.9
v 2.5 4.8 -0.8
v 2.5 4.8 -0.9
v 1.7 3.9 -0.8
v 1.7 3.9 -0.9
v 1.7 4.4 -0.8
v 1.7 4.4 -0.9
v 1.7 4.7 -0.8
v 1.7 4.7 -0.9
v 1.7 4.8 -0.8
v 1.7 4.8 -0.9
v 1.8 4.8 -0.7
v 1.8 4.8 -0.8
v 1.8 4.9 -0.7
v 1.8 4.9 -0.8
v 1.9 4.1 -0.8
v 1.9 4.1 -0.9
v 1.9 4.2 -0.8
v 1.9 4.2 -0.9
v 2 4.5 -0.8
v 2 4.5 -0.9
v 2 4.6 -0.8
v 2 4.6 -0.9
v 2 4.7 -0.8
v 2 4.7 -0.9
v 2 4.9 -0.7
v 2 4.9 -0.8
v 2 5 -0.7
v 2 5 -0.8
v 2.2 4.4 -0.7
v 2.2 4.4 -0.8
v 2.2 4.5 -0.7
v 2.2 4.5 -0.8
v 2.3 4 -0.7
v 2.3 4 -0.9
v 2.3 4.1 -0.7
v 2.3 4.1 -0.9
v 2.3 4.3 -0.7
v 2.3 4.3 -0.8
v 2.3 4.3 -0.9
v 2.3 4.4 -0.7
v 2.3 4.4 -0.8
v 2.3 4.4 -0.9
v 2.4 4.1 -0.7
v 2.4 4.1 -0.9
v 2.4 4.2 -0.7
v 2.4 4.2 -0.9
v 2.4 5.5 -1.2
v 2.4 5.5 -1.4
v 2.4 5.6 -1.2
v 2.4 5.6 -1.4
v 2.5 4.8 -0.7
v 2.5 4.8 -0.8
v 2.5 5 -0.7
v 2.5 5 -0.8
v 2.5 5.3 -1.2
v 2.5 5.3 -1.4
v 2.5 5.5 -1.2
v 2.5 5.5 -1.4
v 2.6 5.2 -1.1
v 2.6 5.2 -1.5
v 2.6 5.3 -1.1
v 2.6 5.3 -1.5
v 2.8 3.9 -0.8
v 2.8 3.9 -2
v 2.8 4 -1.9
v 2.8 4 -2
v 2.8 5.1 -1.9
v 2.8 5.1 -2
v 2.8 5.2 -0.8
v 2.8 5.2 -2
v 1.7 4.8 -0.7
v 1.7 5 -0.7
v 1.8 4.8 -0.7
v 1.8 4.9 -0.7
v 1.9 4 -0.7
v 1.9 4.1 -0.7
v 1.9 4.3 -0.7
v 1.9 4.4 -0.7
v 2 4.4 -0.7
v 2 4.5 -0.7
v 2 4.9 -0.7
v 2 5 -0.7
v 2.2 4.4 -0.7
v 2.2 4.5 -0.7
v 2.2 4.9 -0.7
v 2.2 5 -0.7
v 2.3 4 -0.7
v 2.3 4.1 -0.7
v 2.3 4.2 -0.7
v 2.3 4.3 -0.7
v 2.3 4.4 -0.7
v 2.4 4.1 -0.7
v 2.4 4.2 -0.7
v 2.4 4.8 -0.7
v 2.4 4.9 -0.7
v 2.5 4.8 -0.7
v 2.5 5 -0.7
v 1.4 3.9 -0.8
v 1.4 5.2 -0.8
v 1.7 3.9 -0.8
v 1.7 4.4 -0.8
v 1.7 4.7 -0.8
v 1.7 4.8 -0.8
v 1.7 5 -0.8
v 1.8 4.1 -0.8
v 1.8 4.2 -0.8
v 1.8 4.4 -0.8
v 1.8 4.6 -0.8
v 1.8 4.8 -0.8
v 1.8 4.9 -0.8
v 1.9 4.1 -0.8
v 1.9 4.2 -0.8
v 1.9 4.4 -0.8
v 2 4.4 -0.8
v 2 4.5 -0.8
v 2 4.6 -0.8
v 2 4.7 -0.8
v 2 4.9 -0.8
v 2 5 -0.8
v 2.2 4.4 -0.8
v 2.2 4.5 -0.8
v 2.2 4.6 -0.8
v 2.2 4.7 -0.8
v 2.2 4.9 -0.8
v 2.2 5 -0.8
v 2.3 4.4 -0.8
v 2.4 4.4 -0.8
v 2.4 4.6 -0.8
v 2.4 4.8 -0.8
v 2.4 4.9 -0.8
v 2.5 3.9 -0.8
v 2.5 4.4 -0.8
v 2.5 4.7 -0.8
v 2.5 4.8 -0.8
v 2.5 5 -0.8
v 2.8 3.9 -0.8
v 2.8 5.2 -0.8
v 1.7 3.9 -0.9
v 1.7 4.4 -0.9
v 1.7 4.7 -0.9
v 1.7 4.8 -0.9
v 1.8 4.1 -0.9
v 1.8 4.2 -0.9
v 1.8 4.4 -0.9
v 1.8 4.8 -0.9
v 1.9 4 -0.9
v 1.9 4.1 -0.9
v 1.9 4.2 -0.9
v 1.9 4.3 -0.9
v 1.9 4.4 -0.9
v 2 4.5 -0.9
v 2 4.6 -0.9
v 2 4.7 -0.9
v 2.2 4.5 -0.9
v 2.2 4.6 -0.9
v 2.2 4.7 -0.9
v 2.3 4 -0.9
v 2.3 4.1 -0.9
v 2.3 4.2 -0.9
v 2.3 4.3 -0.9
v 2.3 4.4 -0.9
v 2.4 4.1 -0.9
v 2.4 4.2 -0.9
v 2.4 4.4 -0.9
v 2.4 4.8 -0.9
v 2.5 3.9 -0.9
v 2.5 4.4 -0.9
v 2.5 4.7 -0.9
v 2.5 4.8 -0.9
v 2.1 5.2 -1.1
v 2.1 5.3 -1.1
v 2.6 5.2 -1.1
v 2.6 5.3 -1.1
v 2.2 5.3 -1.2
v 2.2 5.5 -1.2
v 2.3 5.5 -1.2
v 2.3 5.6 -1.2
v 2.4 5.5 -1.2
v 2.4 5.6 -1.2
v 2.5 5.3 -1.2
v 2.5 5.5 -1.2
v 2.2 5.3 -1.4
v 2.2 5.5 -1.4
v 2.3 5.5 -1.4
v 2.3 5.6 -1.4
v 2.4 5.5 -1.4
v 2.4 5.6 -1.4
v 2.5 5.3 -1.4
v 2.5 5.5 -1.4
v 2.1 5.2 -1.5
v 2.1 5.3 -1.5
v 2.6 5.2 -1.5
v 2.6 5.3 -1.5
v 1.4 3.9 -2
v 1.4 4 -2
v 1.4 5.1 -2
v 1.4 5.2 -2
v 2.8 3.9 -2
v 2.8 4 -2
v 2.8 5.1 -2
v 2.8 5.2 -2
v 1.4 3.9 -0.8
v 1.7 3.9 -0.8
v 2.5 3.9 -0.8
v 2.8 3.9 -0.8
v 1.7 3.9 -0.9
v 2.5 3.9 -0.9
v 1.7 3.9 -1.6
v 2.5 3.9 -1.6
v 1.4 3.9 -2
v 2.8 3.9 -2
v 1.9 4 -0.7
v 2.3 4 -0.7
v 1.9 4 -0.9
v 2.3 4 -0.9
v 2.3 4.1 -0.7
v 2.4 4.1 -0.7
v 1.8 4.1 -0.8
v 1.9 4.1 -0.8
v 1.8 4.1 -0.9
v 1.9 4.1 -0.9
v 2.3 4.1 -0.9
v 2.4 4.1 -0.9
v 1.9 4.3 -0.7
v 2.3 4.3 -0.7
v 1.9 4.3 -0.8
v 2.3 4.3 -0.8
v 1.9 4.3 -0.9
v 2.3 4.3 -0.9
v 1.7 4.4 -0.8
v 1.8 4.4 -0.8
v 1.9 4.4 -0.8
v 2.3 4.4 -0.8
v 2.4 4.4 -0.8
v 2.5 4.4 -0.8
v 1.7 4.4 -0.9
v 1.8 4.4 -0.9
v 1.9 4.4 -0.9
v 2.3 4.4 -0.9
v 2.4 4.4 -0.9
v 2.5 4.4 -0.9
v 1.7 4.8 -0.7
v 1.8 4.8 -0.7
v 2.4 4.8 -0.7
v 2.5 4.8 -0.7
v 1.7 4.8 -0.8
v 1.8 4.8 -0.8
v 2.4 4.8 -0.8
v 2.5 4.8 -0.8
v 1.7 4.8 -0.9
v 1.8 4.8 -0.9
v 2.4 4.8 -0.9
v 2.5 4.8 -0.9
v 1.8 4.9 -0.7
v 2 4.9 -0.7
v 2.2 4.9 -0.7
v 2.4 4.9 -0.7
v 1.8 4.9 -0.8
v 2 4.9 -0.8
v 2.2 4.9 -0.8
v 2.4 4.9 -0.8
v 1.9 4.1 -0.7
v 2.3 4.1 -0.7
v 1.9 4.1 -0.8
v 1.9 4.1 -0.9
v 2.3 4.1 -0.9
v 2.3 4.2 -0.7
v 2.4 4.2 -0.7
v 1.8 4.2 -0.8
v 1.9 4.2 -0.8
v 1.8 4.2 -0.9
v 1.9 4.2 -0.9
v 2.3 4.2 -0.9
v 2.4 4.2 -0.9
v 1.9 4.4 -0.7
v 2 4.4 -0.7
v 2.2 4.4 -0.7
v 2.3 4.4 -0.7
v 1.9 4.4 -0.8
v 2 4.4 -0.8
v 2.2 4.4 -0.8
v 2.3 4.4 -0.8
v 2 4.5 -0.7
v 2.2 4.5 -0.7
v 2 4.5 -0.8
v 2.2 4.5 -0.8
v 2 4.5 -0.9
v 2.2 4.5 -0.9
v 1.7 4.7 -0.8
v 2 4.7 -0.8
v 2.2 4.7 -0.8
v 2.5 4.7 -0.8
v 1.7 4.7 -0.9
v 2 4.7 -0.9
v 2.2 4.7 -0.9
v 2.5 4.7 -0.9
v 1.7 5 -0.7
v 2 5 -0.7
v 2.2 5 -0.7
v 2.5 5 -0.7
v 1.7 5 -0.8
v 2 5 -0.8
v 2.2 5 -0.8
v 2.5 5 -0.8
v 1.4 5.2 -0.8
v 2.8 5.2 -0.8
v 2.1 5.2 -1.1
v 2.6 5.2 -1.1
v 2.1 5.2 -1.5
v 2.6 5.2 -1.5
v 1.4 5.2 -2
v 2.8 5.2 -2
v 2.1 5.3 -1.1
v 2.6 5.3 -1.1
v 2.2 5.3 -1.2
v 2.5 5.3 -1.2
v 2.2 5.3 -1.4
v 2.5 5.3 -1.4
v 2.1 5.3 -1.5
v 2.6 5.3 -1.5
v 2.2 5.5 -1.2
v 2.3 5.5 -1.2
v 2.4 5.5 -1.2
v 2.5 5.5 -1.2
v 2.2 5.5 -1.4
v 2.3 5.5 -1.4
v 2.4 5.5 -1.4
v 2.5 5.5 -1.4
v 2.3 5.6 -1.2
v 2.4 5.6 -1.2
v 2.3 5.6 -1.4
v 2.4 5.6 -1.4

# faces
f 3/4/1 2/4/1 1/4/1
f 4/4/1 2/4/1 3/4/1
f 5/4/1 3/4/1 1/4/1
f 5/8/1 4/8/1 3/8/1
f 6/8/1 4/8/1 5/8/1
f 7/4/1 5/4/1 1/4/1
f 7/4/1 6/4/1 5/4/1
f 8/4/1 6/4/1 7/4/1
f 11/9/1 10/9/1 9/9/1
f 12/9/1 10/9/1 11/9/1
f 15/6/1 14/6/1 13/6/1
f 16/6/1 14/6/1 15/6/1
f 19/6/1 18/6/1 17/6/1
f 20/6/1 18/6/1 19/6/1
f 21/6/1 18/6/1 20/6/1
f 25/7/1 23/7/1 22/7/1
f 26/12/1 24/12/1 23/12/1
f 26/7/1 23/7/1 25/7/1
f 27/12/1 24/12/1 26/12/1
f 30/7/1 29/7/1 28/7/1
f 31/7/1 29/7/1 30/7/1
f 34/2/1 33/2/1 32/2/1
f 35/2/1 33/2/1 34/2/1
f 38/10/1 37/10/1 36/10/1
f 39/10/1 37/10/1 38/10/1
f 40/11/1 39/11/1 38/11/1
f 41/11/1 39/11/1 40/11/1
f 44/9/1 43/9/1 42/9/1
f 45/9/1 43/9/1 44/9/1
f 48/2/1 47/2/1 46/2/1
f 49/2/1 47/2/1 48/2/1
f 52/6/1 51/6/1 50/6/1
f 53/6/1 51/6/1 52/6/1
f 56/2/1 55/2/1 54/2/1
f 57/2/1 55/2/1 56/2/1
f 60/9/1 59/9/1 58/9/1
f 61/9/1 59/9/1 60/9/1
f 64/4/1 63/4/1 62/4/1
f 65/4/1 63/4/1 64/4/1
f 68/4/1 67/4/1 66/4/1
f 69/4/1 67/4/1 68/4/1
f 70/4/2 71/4/2 72/4/2
f 72/4/2 71/4/2 73/4/2
f 74/4/2 75/4/2 76/4/2
f 76/4/2 75/4/2 77/4/2
f 78/9/2 79/9/2 80/9/2
f 80/9/2 79/9/2 81/9/2
f 82/6/2 83/6/2 84/6/2
f 84/6/2 83/6/2 85/6/2
f 86/10/2 87/10/2 88/10/2
f 88/10/2 87/10/2 89/10/2
f 88/11/2 89/11/2 90/11/2
f 90/11/2 89/11/2 91/11/2
f 92/9/2 93/9/2 94/9/2
f 94/9/2 93/9/2 95/9/2
f 96/7/2 97/7/2 98/7/2
f 98/7/2 97/7/2 99/7/2
f 100/6/2 101/6/2 102/6/2
f 102/6/2 101/6/2 103/6/2
f 104/7/2 105/7/2 107/7/2
f 105/12/2 106/12/2 108/12/2
f 107/7/2 105/7/2 108/7/2
f 108/12/2 106/12/2 109/12/2
f 110/6/2 111/6/2 112/6/2
f 112/6/2 111/6/2 113/6/2
f 114/2/2 115/2/2 116/2/2
f 116/2/2 115/2/2 117/2/2
f 118/9/2 119/9/2 120/9/2
f 120/9/2 119/9/2 121/9/2
f 122/2/2 123/2/2 124/2/2
f 124/2/2 123/2/2 125/2/2
f 126/2/2 127/2/2 128/2/2
f 128/2/2 127/2/2 129/2/2
f 130/4/2 131/4/2 132/4/2
f 132/4/2 131/4/2 133/4/2
f 130/4/2 132/4/2 134/4/2
f 132/8/2 133/8/2 134/8/2
f 134/8/2 133/8/2 135/8/2
f 130/4/2 134/4/2 136/4/2
f 134/4/2 135/4/2 136/4/2
f 136/4/2 135/4/2 137/4/2
f 140/9/3 139/9/3 138/9/3
f 141/9/3 139/9/3 140/9/3
f 146/7/3 145/7/3 144/7/3
f 148/9/3 139/9/3 141/9/3
f 149/9/3 139/9/3 148/9/3
f 150/7/3 147/7/3 146/7/3
f 150/7/3 146/7/3 144/7/3
f 151/7/3 147/7/3 150/7/3
f 154/6/3 143/6/3 142/6/3
f 155/6/3 143/6/3 154/6/3
f 157/7/3 150/7/3 144/7/3
f 158/7/3 150/7/3 157/7/3
f 159/6/3 156/6/3 155/6/3
f 160/6/3 156/6/3 159/6/3
f 162/9/3 153/9/3 152/9/3
f 163/9/3 162/9/3 161/9/3
f 164/9/3 153/9/3 162/9/3
f 164/9/3 162/9/3 163/9/3
f 167/4/3 166/4/3 165/4/3
f 168/4/3 166/4/3 167/4/3
f 169/4/3 166/4/3 168/4/3
f 170/4/3 166/4/3 169/4/3
f 171/4/3 166/4/3 170/4/3
f 174/11/3 169/11/3 168/11/3
f 175/11/3 169/11/3 174/11/3
f 178/6/3 173/6/3 172/6/3
f 179/6/3 173/6/3 178/6/3
f 180/10/3 175/10/3 174/10/3
f 181/10/3 175/10/3 180/10/3
f 182/10/3 175/10/3 181/10/3
f 183/11/3 169/11/3 175/11/3
f 183/10/3 175/10/3 182/10/3
f 184/11/3 169/11/3 183/11/3
f 185/4/3 177/4/3 176/4/3
f 186/4/3 166/4/3 171/4/3
f 191/4/3 185/4/3 176/4/3
f 191/4/3 186/4/3 185/4/3
f 192/4/3 166/4/3 186/4/3
f 192/4/3 186/4/3 191/4/3
f 193/10/3 189/10/3 188/10/3
f 193/10/3 188/10/3 187/10/3
f 194/10/3 189/10/3 193/10/3
f 195/11/3 190/11/3 189/11/3
f 195/10/3 189/10/3 194/10/3
f 196/4/3 191/4/3 176/4/3
f 197/4/3 191/4/3 196/4/3
f 199/11/3 195/11/3 194/11/3
f 200/11/3 190/11/3 195/11/3
f 200/11/3 195/11/3 199/11/3
f 202/4/3 166/4/3 192/4/3
f 203/4/3 201/4/3 200/4/3
f 203/4/3 202/4/3 201/4/3
f 203/4/3 199/4/3 198/4/3
f 203/4/3 200/4/3 199/4/3
f 204/4/3 166/4/3 202/4/3
f 204/4/3 202/4/3 203/4/3
f 209/1/3 206/1/3 205/1/3
f 210/1/3 206/1/3 209/1/3
f 211/1/3 206/1/3 210/1/3
f 212/1/3 208/1/3 207/1/3
f 213/1/3 209/1/3 205/1/3
f 214/1/3 209/1/3 213/1/3
f 215/1/3 211/1/3 210/1/3
f 216/1/3 211/1/3 215/1/3
f 217/1/3 211/1/3 216/1/3
f 220/1/3 212/1/3 207/1/3
f 221/1/3 219/1/3 218/1/3
f 221/1/3 220/1/3 219/1/3
f 222/1/3 220/1/3 221/1/3
f 223/1/3 212/1/3 220/1/3
f 223/1/3 220/1/3 222/1/3
f 224/1/3 213/1/3 205/1/3
f 225/1/3 216/1/3 215/1/3
f 225/1/3 215/1/3 214/1/3
f 226/1/3 216/1/3 225/1/3
f 227/1/3 216/1/3 226/1/3
f 229/1/3 225/1/3 224/1/3
f 230/1/3 228/1/3 227/1/3
f 230/1/3 227/1/3 226/1/3
f 231/1/3 228/1/3 230/1/3
f 232/1/3 212/1/3 223/1/3
f 233/1/3 224/1/3 205/1/3
f 233/1/3 231/1/3 230/1/3
f 233/1/3 229/1/3 224/1/3
f 233/1/3 230/1/3 229/1/3
f 234/1/3 231/1/3 233/1/3
f 235/1/3 232/1/3 223/1/3
f 236/1/3 232/1/3 235/1/3
f 239/2/3 238/2/3 237/2/3
f 240/2/3 238/2/3 239/2/3
f 243/2/3 242/2/3 241/2/3
f 245/2/3 243/2/3 241/2/3
f 245/2/3 244/2/3 243/2/3
f 246/2/3 244/2/3 245/2/3
f 247/2/3 245/2/3 241/2/3
f 248/2/3 245/2/3 247/2/3
f 249/2/4 250/2/4 251/2/4
f 249/2/4 251/2/4 253/2/4
f 251/2/4 252/2/4 253/2/4
f 253/2/4 252/2/4 254/2/4
f 249/2/4 253/2/4 255/2/4
f 255/2/4 253/2/4 256/2/4
f 257/2/4 258/2/4 259/2/4
f 259/2/4 258/2/4 260/2/4
f 261/4/4 262/4/4 265/4/4
f 262/8/4 263/8/4 266/8/4
f 265/4/4 262/4/4 266/4/4
f 263/4/4 264/4/4 267/4/4
f 266/8/4 263/8/4 267/8/4
f 267/4/4 264/4/4 268/4/4
f 273/4/5 270/4/5 269/4/5
f 274/4/5 272/4/5 271/4/5
f 275/4/5 273/4/5 269/4/5
f 275/1/5 274/1/5 273/1/5
f 276/4/5 272/4/5 274/4/5
f 276/1/5 274/1/5 275/1/5
f 277/4/5 275/4/5 269/4/5
f 277/4/5 276/4/5 275/4/5
f 278/4/5 272/4/5 276/4/5
f 278/4/5 276/4/5 277/4/5
f 281/6/5 280/6/5 279/6/5
f 282/6/5 280/6/5 281/6/5
f 287/6/5 286/6/5 285/6/5
f 288/6/5 286/6/5 287/6/5
f 289/6/5 284/6/5 283/6/5
f 290/6/5 284/6/5 289/6/5
f 293/7/5 292/7/5 291/7/5
f 294/7/5 292/7/5 293/7/5
f 295/12/5 294/12/5 293/12/5
f 296/12/5 294/12/5 295/12/5
f 303/11/5 298/11/5 297/11/5
f 304/10/5 299/10/5 298/10/5
f 304/11/5 298/11/5 303/11/5
f 305/10/5 299/10/5 304/10/5
f 306/10/5 301/10/5 300/10/5
f 307/11/5 302/11/5 301/11/5
f 307/10/5 301/10/5 306/10/5
f 308/11/5 302/11/5 307/11/5
f 313/9/5 310/9/5 309/9/5
f 314/9/5 310/9/5 313/9/5
f 315/9/5 312/9/5 311/9/5
f 316/9/5 312/9/5 315/9/5
f 317/10/5 314/10/5 313/10/5
f 318/4/5 315/4/5 314/4/5
f 318/10/5 314/10/5 317/10/5
f 319/10/5 316/10/5 315/10/5
f 319/4/5 315/4/5 318/4/5
f 320/10/5 316/10/5 319/10/5
f 325/9/5 322/9/5 321/9/5
f 326/9/5 322/9/5 325/9/5
f 327/9/5 324/9/5 323/9/5
f 328/9/5 324/9/5 327/9/5
f 329/6/6 330/6/6 331/6/6
f 331/6/6 330/6/6 332/6/6
f 332/6/6 330/6/6 333/6/6
f 336/6/6 337/6/6 338/6/6
f 338/6/6 337/6/6 339/6/6
f 334/6/6 335/6/6 340/6/6
f 340/6/6 335/6/6 341/6/6
f 342/7/6 343/7/6 346/7/6
f 346/7/6 343/7/6 347/7/6
f 344/7/6 345/7/6 348/7/6
f 348/7/6 345/7/6 349/7/6
f 350/7/6 351/7/6 352/7/6
f 352/7/6 351/7/6 353/7/6
f 352/7/6 353/7/6 354/7/6
f 354/7/6 353/7/6 355/7/6
f 356/11/6 357/11/6 360/11/6
f 360/11/6 357/11/6 361/11/6
f 358/11/6 359/11/6 362/11/6
f 362/11/6 359/11/6 363/11/6
f 364/9/6 365/9/6 368/9/6
f 368/9/6 365/9/6 369/9/6
f 366/9/6 367/9/6 370/9/6
f 370/9/6 367/9/6 371/9/6
f 372/4/6 373/4/6 374/4/6
f 374/4/6 373/4/6 375/4/6
f 372/4/6 374/4/6 376/4/6
f 375/4/6 373/4/6 377/4/6
f 372/4/6 376/4/6 378/4/6
f 376/4/6 377/4/6 378/4/6
f 377/4/6 373/4/6 379/4/6
f 378/4/6 377/4/6 379/4/6
f 380/2/6 381/2/6 382/2/6
f 382/2/6 381/2/6 383/2/6
f 380/2/6 382/2/6 384/2/6
f 383/2/6 381/2/6 385/2/6
f 380/2/6 384/2/6 386/2/6
f 384/2/6 385/2/6 386/2/6
f 385/2/6 381/2/6 387/2/6
f 386/2/6 385/2/6 387/2/6
f 388/2/6 389/2/6 392/2/6
f 392/2/6 389/2/6 393/2/6
f 390/2/6 391/2/6 394/2/6
f 394/2/6 391/2/6 395/2/6
f 396/2/6 397/2/6 398/2/6
f 398/2/6 397/2/6 399/2/6
