# MagicaVoxel @ Ephtracy

# group
o 

# material
mtllib rocket.mtl
usemtl palette

# normals
vn -1 0 0
vn 1 0 0
vn 0 0 1
vn 0 0 -1
vn 0 -1 0
vn 0 1 0

# texcoords
vt 0.0644531 0.5
vt 0.0683594 0.5
vt 0.255859 0.5
vt 0.404297 0.5
vt 0.416016 0.5
vt 0.537109 0.5
vt 0.849609 0.5
vt 0.974609 0.5
vt 0.982422 0.5

# verts
v 0.9 2.4 -3.9
v 0.9 2.4 -4
v 0.9 2.6 -3.9
v 0.9 2.6 -4
v 1.1 2.6 -3.9
v 1.1 2.6 -4
v 1.1 2.9 -3.9
v 1.1 2.9 -4
v 1.3 2.9 -3.9
v 1.3 2.9 -4
v 1.3 3 -3.9
v 1.3 3 -4
v 1.3 4.3 -3.3
v 1.3 4.3 -4
v 1.3 4.4 -3.9
v 1.3 4.4 -4
v 1.3 4.9 -3.9
v 1.3 4.9 -4
v 1.3 5 -3.3
v 1.3 5 -4
v 1.5 3.7 -3.6
v 1.5 3.7 -4
v 1.5 4.3 -3.6
v 1.5 4.3 -4
v 1.5 5 -3.6
v 1.5 5 -4
v 1.5 5.3 -3.6
v 1.5 5.3 -4
v 1.6 3.2 -3.6
v 1.6 3.2 -4
v 1.6 3.7 -3.6
v 1.6 3.7 -4
v 1.6 5.3 -3.6
v 1.6 5.3 -4
v 1.6 5.5 -3.6
v 1.6 5.5 -4
v 1.7 2 -3.7
v 1.7 2 -4
v 1.7 2.1 -3.7
v 1.7 2.1 -4
v 1.7 2.8 -3.5
v 1.7 2.8 -3.6
v 1.7 2.9 -3.6
v 1.7 2.9 -3.9
v 1.7 3 -3.3
v 1.7 3 -3.5
v 1.7 3 -3.9
v 1.7 3 -4
v 1.7 3.2 -3.6
v 1.7 3.2 -4
v 1.7 4.3 -3.3
v 1.7 4.3 -3.5
v 1.7 4.3 -3.6
v 1.7 5 -3.3
v 1.7 5 -3.5
v 1.7 5 -3.6
v 1.7 5.5 -3.6
v 1.7 5.5 -4
v 1.7 5.6 -3.3
v 1.7 5.6 -3.6
v 1.7 5.6 -4
v 1.8 2.6 -3.6
v 1.8 2.6 -3.9
v 1.8 2.8 -3.6
v 1.8 2.8 -3.9
v 1.8 2.8 -4
v 1.8 2.9 -3.6
v 1.8 2.9 -3.9
v 1.8 3 -3.2
v 1.8 3 -3.3
v 1.8 3 -3.9
v 1.8 3 -4
v 1.8 5.6 -3.3
v 1.8 5.6 -3.6
v 1.8 5.6 -4
v 1.8 5.7 -3.2
v 1.8 5.7 -3.6
v 1.8 5.7 -4
v 1.9 2.1 -3.8
v 1.9 2.1 -4
v 1.9 2.5 -3.6
v 1.9 2.5 -3.8
v 1.9 2.6 -3.6
v 1.9 2.6 -3.8
v 1.9 2.6 -3.9
v 1.9 2.6 -4
v 1.9 5.7 -3.2
v 1.9 5.7 -3.6
v 1.9 5.7 -4
v 1.9 5.8 -3.2
v 1.9 5.8 -3.6
v 1.9 5.8 -4
v 2.2 2.6 -3.6
v 2.2 2.6 -3.8
v 2.2 2.9 -3.5
v 2.2 2.9 -3.6
v 2.2 2.9 -3.8
v 2.2 3 -3.5
v 2.2 3 -3.6
v 2.3 2.8 -3.5
v 2.3 2.8 -3.6
v 2.3 2.9 -3.5
v 2.3 2.9 -3.6
v 2.4 4.3 -3.4
v 2.4 4.3 -3.5
v 2.4 5 -3.4
v 2.4 5 -3.5
v 2.6 2.8 -3.9
v 2.6 2.8 -4
v 2.6 3 -3.9
v 2.6 3 -4
v 2.8 2.4 -3.9
v 2.8 2.4 -4
v 2.8 2.6 -3.9
v 2.8 2.6 -4
v 1.3 2.4 -3.9
v 1.3 2.4 -4
v 1.3 2.6 -3.9
v 1.3 2.6 -4
v 1.5 2.8 -3.9
v 1.5 2.8 -4
v 1.5 3 -3.9
v 1.5 3 -4
v 1.8 2.8 -3.5
v 1.8 2.8 -3.6
v 1.8 2.9 -3.5
v 1.8 2.9 -3.6
v 1.9 2.6 -3.6
v 1.9 2.6 -3.8
v 1.9 2.9 -3.5
v 1.9 2.9 -3.6
v 1.9 2.9 -3.8
v 1.9 3 -3.5
v 1.9 3 -3.6
v 2.2 2.1 -3.8
v 2.2 2.1 -4
v 2.2 2.5 -3.6
v 2.2 2.5 -3.8
v 2.2 2.6 -3.6
v 2.2 2.6 -3.8
v 2.2 2.6 -3.9
v 2.2 2.6 -4
v 2.2 5.7 -3.2
v 2.2 5.7 -3.6
v 2.2 5.7 -4
v 2.2 5.8 -3.2
v 2.2 5.8 -3.6
v 2.2 5.8 -4
v 2.3 2.6 -3.6
v 2.3 2.6 -3.9
v 2.3 2.8 -3.6
v 2.3 2.8 -3.7
v 2.3 2.8 -3.9
v 2.3 2.8 -4
v 2.3 2.9 -3.7
v 2.3 2.9 -3.8
v 2.3 2.9 -3.9
v 2.3 3 -3.2
v 2.3 3 -3.5
v 2.3 3 -3.8
v 2.3 3 -4
v 2.3 5.6 -3.5
v 2.3 5.6 -3.6
v 2.3 5.6 -4
v 2.3 5.7 -3.2
v 2.3 5.7 -3.6
v 2.3 5.7 -4
v 2.4 2 -3.7
v 2.4 2 -4
v 2.4 2.1 -3.7
v 2.4 2.1 -4
v 2.4 2.8 -3.5
v 2.4 2.8 -3.7
v 2.4 2.9 -3.6
v 2.4 2.9 -3.7
v 2.4 2.9 -3.8
v 2.4 3 -3.8
v 2.4 3 -4
v 2.4 3.2 -3.6
v 2.4 3.2 -4
v 2.4 4.3 -3.5
v 2.4 4.3 -3.6
v 2.4 5 -3.5
v 2.4 5 -3.6
v 2.4 5.5 -3.6
v 2.4 5.5 -4
v 2.4 5.6 -3.5
v 2.4 5.6 -3.6
v 2.4 5.6 -4
v 2.5 3.2 -3.6
v 2.5 3.2 -4
v 2.5 3.7 -3.6
v 2.5 3.7 -4
v 2.5 5.3 -3.6
v 2.5 5.3 -4
v 2.5 5.5 -3.6
v 2.5 5.5 -4
v 2.6 3.7 -3.6
v 2.6 3.7 -4
v 2.6 4.3 -3.6
v 2.6 4.3 -4
v 2.6 5 -3.6
v 2.6 5 -4
v 2.6 5.3 -3.6
v 2.6 5.3 -4
v 2.8 2.9 -3.9
v 2.8 2.9 -4
v 2.8 3 -3.9
v 2.8 3 -4
v 2.8 4.3 -3.4
v 2.8 4.3 -3.5
v 2.8 4.3 -4
v 2.8 4.4 -3.5
v 2.8 4.4 -4
v 2.8 5 -3.4
v 2.8 5 -4
v 3 2.6 -3.9
v 3 2.6 -4
v 3 2.9 -3.9
v 3 2.9 -4
v 3.2 2.4 -3.9
v 3.2 2.4 -4
v 3.2 2.6 -3.9
v 3.2 2.6 -4
v 1.8 3 -3.2
v 1.8 5.7 -3.2
v 1.9 5.7 -3.2
v 1.9 5.8 -3.2
v 2.2 5.7 -3.2
v 2.2 5.8 -3.2
v 2.3 3 -3.2
v 2.3 5.7 -3.2
v 1.3 4.3 -3.3
v 1.3 5 -3.3
v 1.7 3 -3.3
v 1.7 4.3 -3.3
v 1.7 5 -3.3
v 1.7 5.6 -3.3
v 1.8 3 -3.3
v 1.8 5.6 -3.3
v 2.4 4.3 -3.4
v 2.4 5 -3.4
v 2.8 4.3 -3.4
v 2.8 5 -3.4
v 1.7 2.8 -3.5
v 1.7 3 -3.5
v 1.8 2.8 -3.5
v 1.8 2.9 -3.5
v 1.9 2.9 -3.5
v 1.9 3 -3.5
v 2.2 2.9 -3.5
v 2.2 3 -3.5
v 2.3 2.8 -3.5
v 2.3 2.9 -3.5
v 2.3 3 -3.5
v 2.3 5.6 -3.5
v 2.4 2.8 -3.5
v 2.4 4.3 -3.5
v 2.4 5 -3.5
v 2.4 5.6 -3.5
v 1.5 3.7 -3.6
v 1.5 4.3 -3.6
v 1.5 5 -3.6
v 1.5 5.3 -3.6
v 1.6 3.2 -3.6
v 1.6 3.7 -3.6
v 1.6 5.3 -3.6
v 1.6 5.5 -3.6
v 1.7 3.2 -3.6
v 1.7 4.3 -3.6
v 1.7 5 -3.6
v 1.7 5.5 -3.6
v 1.8 2.6 -3.6
v 1.8 2.8 -3.6
v 1.8 2.9 -3.6
v 1.9 2.5 -3.6
v 1.9 2.6 -3.6
v 1.9 2.9 -3.6
v 1.9 3 -3.6
v 2.2 2.5 -3.6
v 2.2 2.6 -3.6
v 2.2 2.9 -3.6
v 2.2 3 -3.6
v 2.3 2.6 -3.6
v 2.3 2.8 -3.6
v 2.3 2.9 -3.6
v 2.4 3.2 -3.6
v 2.4 4.3 -3.6
v 2.4 5 -3.6
v 2.4 5.5 -3.6
v 2.5 3.2 -3.6
v 2.5 3.7 -3.6
v 2.5 5.3 -3.6
v 2.5 5.5 -3.6
v 2.6 3.7 -3.6
v 2.6 4.3 -3.6
v 2.6 5 -3.6
v 2.6 5.3 -3.6
v 1.7 2 -3.7
v 1.7 2.1 -3.7
v 2.4 2 -3.7
v 2.4 2.1 -3.7
v 1.9 2.1 -3.8
v 1.9 2.5 -3.8
v 1.9 2.6 -3.8
v 1.9 2.9 -3.8
v 2.2 2.1 -3.8
v 2.2 2.5 -3.8
v 2.2 2.6 -3.8
v 2.2 2.9 -3.8
v 0.9 2.4 -3.9
v 0.9 2.6 -3.9
v 1.1 2.6 -3.9
v 1.1 2.9 -3.9
v 1.3 2.4 -3.9
v 1.3 2.6 -3.9
v 1.3 2.8 -3.9
v 1.3 2.9 -3.9
v 1.3 3 -3.9
v 1.5 2.8 -3.9
v 1.5 3 -3.9
v 1.8 2.6 -3.9
v 1.8 2.8 -3.9
v 2.3 2.6 -3.9
v 2.3 2.8 -3.9
v 2.6 2.8 -3.9
v 2.6 3 -3.9
v 2.8 2.4 -3.9
v 2.8 2.6 -3.9
v 2.8 2.8 -3.9
v 2.8 2.9 -3.9
v 2.8 3 -3.9
v 3 2.6 -3.9
v 3 2.9 -3.9
v 3.2 2.4 -3.9
v 3.2 2.6 -3.9
v 1.7 2.8 -3.6
v 1.7 2.9 -3.6
v 1.8 2.8 -3.6
v 1.8 2.9 -3.6
v 2.3 2.8 -3.7
v 2.3 2.9 -3.7
v 2.4 2.8 -3.7
v 2.4 2.9 -3.7
v 2.3 2.9 -3.8
v 2.3 3 -3.8
v 2.4 2.9 -3.8
v 2.4 3 -3.8
v 1.7 2.9 -3.9
v 1.7 3 -3.9
v 1.8 2.9 -3.9
v 1.8 3 -3.9
v 0.9 2.4 -4
v 0.9 2.6 -4
v 1.1 2.6 -4
v 1.1 2.9 -4
v 1.3 2.4 -4
v 1.3 2.6 -4
v 1.3 2.8 -4
v 1.3 2.9 -4
v 1.3 3 -4
v 1.3 4.3 -4
v 1.3 4.4 -4
v 1.3 4.9 -4
v 1.3 5 -4
v 1.4 4.3 -4
v 1.4 4.4 -4
v 1.4 4.9 -4
v 1.4 5 -4
v 1.5 2.8 -4
v 1.5 3 -4
v 1.5 3.7 -4
v 1.5 4.3 -4
v 1.5 5 -4
v 1.5 5.3 -4
v 1.6 3.2 -4
v 1.6 3.7 -4
v 1.6 5.3 -4
v 1.6 5.5 -4
v 1.7 2 -4
v 1.7 2.1 -4
v 1.7 3 -4
v 1.7 3.2 -4
v 1.7 4.3 -4
v 1.7 4.9 -4
v 1.7 5 -4
v 1.7 5.5 -4
v 1.7 5.6 -4
v 1.8 2.8 -4
v 1.8 3 -4
v 1.8 3.2 -4
v 1.8 5.6 -4
v 1.8 5.7 -4
v 1.9 2.1 -4
v 1.9 2.6 -4
v 1.9 2.8 -4
v 1.9 3 -4
v 1.9 5.7 -4
v 1.9 5.8 -4
v 2.2 2.1 -4
v 2.2 2.6 -4
v 2.2 2.8 -4
v 2.2 3 -4
v 2.2 4.9 -4
v 2.2 5 -4
v 2.2 5.7 -4
v 2.2 5.8 -4
v 2.3 2.8 -4
v 2.3 3 -4
v 2.3 3.2 -4
v 2.3 5.6 -4
v 2.3 5.7 -4
v 2.4 2 -4
v 2.4 2.1 -4
v 2.4 3 -4
v 2.4 3.2 -4
v 2.4 4.3 -4
v 2.4 5.5 -4
v 2.4 5.6 -4
v 2.5 3.2 -4
v 2.5 3.7 -4
v 2.5 5.3 -4
v 2.5 5.5 -4
v 2.6 2.8 -4
v 2.6 3 -4
v 2.6 3.7 -4
v 2.6 4.3 -4
v 2.6 5 -4
v 2.6 5.3 -4
v 2.7 4.4 -4
v 2.7 5 -4
v 2.8 2.4 -4
v 2.8 2.6 -4
v 2.8 2.8 -4
v 2.8 2.9 -4
v 2.8 3 -4
v 2.8 4.3 -4
v 2.8 4.4 -4
v 2.8 5 -4
v 3 2.6 -4
v 3 2.9 -4
v 3.2 2.4 -4
v 3.2 2.6 -4
v 1.7 2 -3.7
v 2.4 2 -3.7
v 1.7 2 -4
v 2.4 2 -4
v 0.9 2.4 -3.9
v 1.3 2.4 -3.9
v 2.8 2.4 -3.9
v 3.2 2.4 -3.9
v 0.9 2.4 -4
v 1.3 2.4 -4
v 2.8 2.4 -4
v 3.2 2.4 -4
v 1.9 2.5 -3.6
v 2.2 2.5 -3.6
v 1.9 2.5 -3.8
v 2.2 2.5 -3.8
v 1.8 2.6 -3.6
v 1.9 2.6 -3.6
v 2.2 2.6 -3.6
v 2.3 2.6 -3.6
v 1.9 2.6 -3.8
v 2.2 2.6 -3.8
v 1.3 2.6 -3.9
v 1.8 2.6 -3.9
v 1.9 2.6 -3.9
v 2.2 2.6 -3.9
v 2.3 2.6 -3.9
v 2.8 2.6 -3.9
v 1.3 2.6 -4
v 1.9 2.6 -4
v 2.2 2.6 -4
v 2.8 2.6 -4
v 1.7 2.8 -3.5
v 1.8 2.8 -3.5
v 2.3 2.8 -3.5
v 2.4 2.8 -3.5
v 1.7 2.8 -3.6
v 1.8 2.8 -3.6
v 2.3 2.8 -3.6
v 2.3 2.8 -3.7
v 2.4 2.8 -3.7
v 1.8 2.9 -3.5
v 1.9 2.9 -3.5
v 2.2 2.9 -3.5
v 2.3 2.9 -3.5
v 1.7 2.9 -3.6
v 1.8 2.9 -3.6
v 1.9 2.9 -3.6
v 2.2 2.9 -3.6
v 2.3 2.9 -3.6
v 2.3 2.9 -3.7
v 2.4 2.9 -3.7
v 1.9 2.9 -3.8
v 2.2 2.9 -3.8
v 2.3 2.9 -3.8
v 2.4 2.9 -3.8
v 1.7 2.9 -3.9
v 1.8 2.9 -3.9
v 1.8 3 -3.2
v 2.3 3 -3.2
v 1.7 3 -3.3
v 1.8 3 -3.3
v 1.7 3 -3.5
v 1.9 3 -3.5
v 2.2 3 -3.5
v 2.3 3 -3.5
v 1.9 3 -3.6
v 2.2 3 -3.6
v 2.3 3 -3.8
v 2.4 3 -3.8
v 1.7 3 -3.9
v 1.8 3 -3.9
v 1.7 3 -4
v 1.8 3 -4
v 2.3 3 -4
v 2.4 3 -4
v 1.6 3.2 -3.6
v 1.7 3.2 -3.6
v 2.4 3.2 -3.6
v 2.5 3.2 -3.6
v 1.6 3.2 -4
v 1.7 3.2 -4
v 2.4 3.2 -4
v 2.5 3.2 -4
v 1.5 3.7 -3.6
v 1.6 3.7 -3.6
v 2.5 3.7 -3.6
v 2.6 3.7 -3.6
v 1.5 3.7 -4
v 1.6 3.7 -4
v 2.5 3.7 -4
v 2.6 3.7 -4
v 1.3 4.3 -3.3
v 1.7 4.3 -3.3
v 2.4 4.3 -3.4
v 2.8 4.3 -3.4
v 1.4 4.3 -3.5
v 1.7 4.3 -3.5
v 2.4 4.3 -3.5
v 2.8 4.3 -3.5
v 1.5 4.3 -3.6
v 1.7 4.3 -3.6
v 2.4 4.3 -3.6
v 2.6 4.3 -3.6
v 1.3 4.3 -4
v 1.4 4.3 -4
v 1.5 4.3 -4
v 2.6 4.3 -4
v 2.8 4.3 -4
v 1.7 2.1 -3.7
v 2.4 2.1 -3.7
v 1.9 2.1 -3.8
v 2.2 2.1 -3.8
v 1.7 2.1 -4
v 1.9 2.1 -4
v 2.2 2.1 -4
v 2.4 2.1 -4
v 1.9 2.6 -3.6
v 2.2 2.6 -3.6
v 1.9 2.6 -3.8
v 2.2 2.6 -3.8
v 0.9 2.6 -3.9
v 1.1 2.6 -3.9
v 3 2.6 -3.9
v 3.2 2.6 -3.9
v 0.9 2.6 -4
v 1.1 2.6 -4
v 3 2.6 -4
v 3.2 2.6 -4
v 1.5 2.8 -3.9
v 1.8 2.8 -3.9
v 2.3 2.8 -3.9
v 2.6 2.8 -3.9
v 1.5 2.8 -4
v 1.8 2.8 -4
v 2.3 2.8 -4
v 2.6 2.8 -4
v 1.1 2.9 -3.9
v 1.3 2.9 -3.9
v 2.8 2.9 -3.9
v 3 2.9 -3.9
v 1.1 2.9 -4
v 1.3 2.9 -4
v 2.8 2.9 -4
v 3 2.9 -4
v 1.3 3 -3.9
v 1.5 3 -3.9
v 2.6 3 -3.9
v 2.8 3 -3.9
v 1.3 3 -4
v 1.5 3 -4
v 2.6 3 -4
v 2.8 3 -4
v 1.3 5 -3.3
v 1.7 5 -3.3
v 2.4 5 -3.4
v 2.8 5 -3.4
v 1.4 5 -3.5
v 1.7 5 -3.5
v 2.4 5 -3.5
v 2.7 5 -3.5
v 1.5 5 -3.6
v 1.7 5 -3.6
v 2.4 5 -3.6
v 2.6 5 -3.6
v 1.3 5 -4
v 1.4 5 -4
v 1.5 5 -4
v 2.6 5 -4
v 2.7 5 -4
v 2.8 5 -4
v 1.5 5.3 -3.6
v 1.6 5.3 -3.6
v 2.5 5.3 -3.6
v 2.6 5.3 -3.6
v 1.5 5.3 -4
v 1.6 5.3 -4
v 2.5 5.3 -4
v 2.6 5.3 -4
v 1.6 5.5 -3.6
v 1.7 5.5 -3.6
v 2.4 5.5 -3.6
v 2.5 5.5 -3.6
v 1.6 5.5 -4
v 1.7 5.5 -4
v 2.4 5.5 -4
v 2.5 5.5 -4
v 1.7 5.6 -3.3
v 1.8 5.6 -3.3
v 2.3 5.6 -3.5
v 2.4 5.6 -3.5
v 1.7 5.6 -3.6
v 1.8 5.6 -3.6
v 2.3 5.6 -3.6
v 2.4 5.6 -3.6
v 1.7 5.6 -4
v 1.8 5.6 -4
v 2.3 5.6 -4
v 2.4 5.6 -4
v 1.8 5.7 -3.2
v 1.9 5.7 -3.2
v 2.2 5.7 -3.2
v 2.3 5.7 -3.2
v 1.8 5.7 -3.6
v 1.9 5.7 -3.6
v 2.2 5.7 -3.6
v 2.3 5.7 -3.6
v 1.8 5.7 -4
v 1.9 5.7 -4
v 2.2 5.7 -4
v 2.3 5.7 -4
v 1.9 5.8 -3.2
v 2.2 5.8 -3.2
v 1.9 5.8 -3.6
v 2.2 5.8 -3.6
v 1.9 5.8 -4
v 2.2 5.8 -4

# faces
f 3/7/1 2/7/1 1/7/1
f 4/7/1 2/7/1 3/7/1
f 7/7/1 6/7/1 5/7/1
f 8/7/1 6/7/1 7/7/1
f 11/7/1 10/7/1 9/7/1
f 12/7/1 10/7/1 11/7/1
f 15/2/1 14/2/1 13/2/1
f 16/2/1 14/2/1 15/2/1
f 17/2/1 15/2/1 13/2/1
f 17/1/1 16/1/1 15/1/1
f 18/1/1 16/1/1 17/1/1
f 19/2/1 17/2/1 13/2/1
f 19/2/1 18/2/1 17/2/1
f 20/2/1 18/2/1 19/2/1
f 23/5/1 22/5/1 21/5/1
f 24/5/1 22/5/1 23/5/1
f 27/5/1 26/5/1 25/5/1
f 28/5/1 26/5/1 27/5/1
f 31/5/1 30/5/1 29/5/1
f 32/5/1 30/5/1 31/5/1
f 35/5/1 34/5/1 33/5/1
f 36/5/1 34/5/1 35/5/1
f 39/7/1 38/7/1 37/7/1
f 40/7/1 38/7/1 39/7/1
f 43/3/1 42/3/1 41/3/1
f 46/3/1 43/3/1 41/3/1
f 47/5/1 44/5/1 43/5/1
f 49/3/1 46/3/1 45/3/1
f 49/5/1 48/5/1 47/5/1
f 49/5/1 47/5/1 43/5/1
f 49/3/1 43/3/1 46/3/1
f 50/5/1 48/5/1 49/5/1
f 51/3/1 49/3/1 45/3/1
f 52/3/1 49/3/1 51/3/1
f 53/3/1 49/3/1 52/3/1
f 57/3/1 55/3/1 54/3/1
f 57/3/1 56/3/1 55/3/1
f 59/3/1 57/3/1 54/3/1
f 60/5/1 58/5/1 57/5/1
f 60/3/1 57/3/1 59/3/1
f 61/5/1 58/5/1 60/5/1
f 64/2/1 63/2/1 62/2/1
f 65/2/1 63/2/1 64/2/1
f 67/2/1 65/2/1 64/2/1
f 68/5/1 66/5/1 65/5/1
f 68/2/1 65/2/1 67/2/1
f 71/5/1 66/5/1 68/5/1
f 72/5/1 66/5/1 71/5/1
f 73/3/1 70/3/1 69/3/1
f 76/3/1 73/3/1 69/3/1
f 76/3/1 74/3/1 73/3/1
f 77/5/1 75/5/1 74/5/1
f 77/3/1 74/3/1 76/3/1
f 78/5/1 75/5/1 77/5/1
f 82/6/1 80/6/1 79/6/1
f 83/2/1 82/2/1 81/2/1
f 84/6/1 80/6/1 82/6/1
f 84/2/1 82/2/1 83/2/1
f 85/6/1 80/6/1 84/6/1
f 86/6/1 80/6/1 85/6/1
f 90/3/1 88/3/1 87/3/1
f 91/5/1 89/5/1 88/5/1
f 91/3/1 88/3/1 90/3/1
f 92/5/1 89/5/1 91/5/1
f 96/2/1 94/2/1 93/2/1
f 97/2/1 94/2/1 96/2/1
f 98/3/1 96/3/1 95/3/1
f 99/3/1 96/3/1 98/3/1
f 102/3/1 101/3/1 100/3/1
f 103/3/1 101/3/1 102/3/1
f 106/2/1 105/2/1 104/2/1
f 107/2/1 105/2/1 106/2/1
f 110/7/1 109/7/1 108/7/1
f 111/7/1 109/7/1 110/7/1
f 114/7/1 113/7/1 112/7/1
f 115/7/1 113/7/1 114/7/1
f 116/7/2 117/7/2 118/7/2
f 118/7/2 117/7/2 119/7/2
f 120/7/2 121/7/2 122/7/2
f 122/7/2 121/7/2 123/7/2
f 124/3/2 125/3/2 126/3/2
f 126/3/2 125/3/2 127/3/2
f 128/2/2 129/2/2 131/2/2
f 131/2/2 129/2/2 132/2/2
f 130/3/2 131/3/2 133/3/2
f 133/3/2 131/3/2 134/3/2
f 135/6/2 136/6/2 138/6/2
f 137/2/2 138/2/2 139/2/2
f 138/6/2 136/6/2 140/6/2
f 139/2/2 138/2/2 140/2/2
f 140/6/2 136/6/2 141/6/2
f 141/6/2 136/6/2 142/6/2
f 143/3/2 144/3/2 146/3/2
f 144/5/2 145/5/2 147/5/2
f 146/3/2 144/3/2 147/3/2
f 147/5/2 145/5/2 148/5/2
f 149/2/2 150/2/2 151/2/2
f 151/2/2 150/2/2 152/2/2
f 152/2/2 150/2/2 153/2/2
f 152/2/2 153/2/2 155/2/2
f 155/2/2 153/2/2 156/2/2
f 153/5/2 154/5/2 157/5/2
f 156/2/2 153/2/2 157/2/2
f 156/5/2 157/5/2 160/5/2
f 157/5/2 154/5/2 161/5/2
f 160/5/2 157/5/2 161/5/2
f 158/3/2 159/3/2 162/3/2
f 158/3/2 162/3/2 165/3/2
f 162/3/2 163/3/2 165/3/2
f 163/5/2 164/5/2 166/5/2
f 165/3/2 163/3/2 166/3/2
f 166/5/2 164/5/2 167/5/2
f 168/7/2 169/7/2 170/7/2
f 170/7/2 169/7/2 171/7/2
f 172/3/2 173/3/2 174/3/2
f 174/3/2 173/3/2 175/3/2
f 174/5/2 175/5/2 177/5/2
f 175/5/2 176/5/2 177/5/2
f 172/3/2 174/3/2 179/3/2
f 177/5/2 178/5/2 179/5/2
f 174/5/2 177/5/2 179/5/2
f 179/5/2 178/5/2 180/5/2
f 172/3/2 179/3/2 181/3/2
f 181/3/2 179/3/2 182/3/2
f 183/3/2 184/3/2 185/3/2
f 183/3/2 185/3/2 187/3/2
f 185/5/2 186/5/2 188/5/2
f 187/3/2 185/3/2 188/3/2
f 188/5/2 186/5/2 189/5/2
f 190/5/2 191/5/2 192/5/2
f 192/5/2 191/5/2 193/5/2
f 194/5/2 195/5/2 196/5/2
f 196/5/2 195/5/2 197/5/2
f 198/5/2 199/5/2 200/5/2
f 200/5/2 199/5/2 201/5/2
f 202/5/2 203/5/2 204/5/2
f 204/5/2 203/5/2 205/5/2
f 206/7/2 207/7/2 208/7/2
f 208/7/2 207/7/2 209/7/2
f 210/2/2 211/2/2 213/2/2
f 211/1/2 212/1/2 213/1/2
f 213/1/2 212/1/2 214/1/2
f 210/2/2 213/2/2 215/2/2
f 213/2/2 214/2/2 215/2/2
f 215/2/2 214/2/2 216/2/2
f 217/7/2 218/7/2 219/7/2
f 219/7/2 218/7/2 220/7/2
f 221/7/2 222/7/2 223/7/2
f 223/7/2 222/7/2 224/7/2
f 227/3/3 226/3/3 225/3/3
f 229/3/3 227/3/3 225/3/3
f 229/3/3 228/3/3 227/3/3
f 230/3/3 228/3/3 229/3/3
f 231/3/3 229/3/3 225/3/3
f 232/3/3 229/3/3 231/3/3
f 236/2/3 234/2/3 233/2/3
f 237/2/3 234/2/3 236/2/3
f 239/3/3 236/3/3 235/3/3
f 239/3/3 238/3/3 237/3/3
f 239/3/3 237/3/3 236/3/3
f 240/3/3 238/3/3 239/3/3
f 243/2/3 242/2/3 241/2/3
f 244/2/3 242/2/3 243/2/3
f 247/3/3 246/3/3 245/3/3
f 248/3/3 246/3/3 247/3/3
f 249/3/3 246/3/3 248/3/3
f 250/3/3 246/3/3 249/3/3
f 254/3/3 252/3/3 251/3/3
f 255/3/3 252/3/3 254/3/3
f 257/3/3 255/3/3 254/3/3
f 257/3/3 256/3/3 255/3/3
f 257/3/3 254/3/3 253/3/3
f 258/3/3 256/3/3 257/3/3
f 259/3/3 256/3/3 258/3/3
f 260/3/3 256/3/3 259/3/3
f 266/5/3 262/5/3 261/5/3
f 267/5/3 264/5/3 263/5/3
f 269/5/3 266/5/3 265/5/3
f 270/5/3 262/5/3 266/5/3
f 270/5/3 266/5/3 269/5/3
f 271/5/3 268/5/3 267/5/3
f 271/5/3 267/5/3 263/5/3
f 272/5/3 268/5/3 271/5/3
f 277/2/3 274/2/3 273/2/3
f 277/2/3 275/2/3 274/2/3
f 278/2/3 275/2/3 277/2/3
f 280/2/3 277/2/3 276/2/3
f 281/2/3 277/2/3 280/2/3
f 282/2/3 279/2/3 278/2/3
f 283/2/3 279/2/3 282/2/3
f 284/2/3 282/2/3 281/2/3
f 285/2/3 282/2/3 284/2/3
f 286/2/3 282/2/3 285/2/3
f 291/5/3 288/5/3 287/5/3
f 292/5/3 288/5/3 291/5/3
f 293/5/3 290/5/3 289/5/3
f 294/5/3 290/5/3 293/5/3
f 295/5/3 288/5/3 292/5/3
f 296/5/3 288/5/3 295/5/3
f 297/5/3 293/5/3 289/5/3
f 298/5/3 293/5/3 297/5/3
f 301/7/3 300/7/3 299/7/3
f 302/7/3 300/7/3 301/7/3
f 307/6/3 304/6/3 303/6/3
f 308/6/3 304/6/3 307/6/3
f 309/4/3 306/4/3 305/4/3
f 310/4/3 306/4/3 309/4/3
f 313/7/3 312/7/3 311/7/3
f 315/7/3 313/7/3 311/7/3
f 315/7/3 314/7/3 313/7/3
f 316/7/3 314/7/3 315/7/3
f 317/7/3 314/7/3 316/7/3
f 318/7/3 314/7/3 317/7/3
f 320/7/3 319/7/3 318/7/3
f 320/7/3 318/7/3 317/7/3
f 320/1/3 317/1/3 316/1/3
f 321/7/3 319/7/3 320/7/3
f 322/1/3 320/1/3 316/1/3
f 323/1/3 320/1/3 322/1/3
f 326/1/3 325/1/3 324/1/3
f 329/1/3 326/1/3 324/1/3
f 330/7/3 327/7/3 326/7/3
f 330/1/3 326/1/3 329/1/3
f 331/7/3 327/7/3 330/7/3
f 332/7/3 327/7/3 331/7/3
f 333/7/3 329/7/3 328/7/3
f 333/7/3 330/7/3 329/7/3
f 333/7/3 331/7/3 330/7/3
f 334/7/3 331/7/3 333/7/3
f 335/7/3 333/7/3 328/7/3
f 336/7/3 333/7/3 335/7/3
f 337/3/4 338/3/4 339/3/4
f 339/3/4 338/3/4 340/3/4
f 341/3/4 342/3/4 343/3/4
f 343/3/4 342/3/4 344/3/4
f 345/5/4 346/5/4 347/5/4
f 347/5/4 346/5/4 348/5/4
f 349/5/4 350/5/4 351/5/4
f 351/5/4 350/5/4 352/5/4
f 353/7/4 354/7/4 355/7/4
f 353/7/4 355/7/4 357/7/4
f 355/7/4 356/7/4 357/7/4
f 357/7/4 356/7/4 358/7/4
f 358/7/4 356/7/4 359/7/4
f 359/7/4 356/7/4 360/7/4
f 362/2/4 363/2/4 366/2/4
f 363/1/4 364/1/4 367/1/4
f 366/2/4 363/2/4 367/2/4
f 364/2/4 365/2/4 368/2/4
f 367/1/4 364/1/4 368/1/4
f 368/2/4 365/2/4 369/2/4
f 358/1/4 359/1/4 370/1/4
f 359/7/4 360/7/4 370/7/4
f 360/7/4 361/7/4 370/7/4
f 370/7/4 361/7/4 371/7/4
f 366/1/4 367/1/4 373/1/4
f 368/1/4 369/1/4 373/1/4
f 367/1/4 368/1/4 373/1/4
f 373/1/4 369/1/4 374/1/4
f 372/5/4 373/5/4 377/5/4
f 374/5/4 375/5/4 378/5/4
f 376/5/4 377/5/4 383/5/4
f 373/1/4 374/1/4 384/1/4
f 377/5/4 373/5/4 384/5/4
f 383/5/4 377/5/4 384/5/4
f 384/1/4 374/1/4 385/1/4
f 374/5/4 378/5/4 386/5/4
f 385/1/4 374/1/4 386/1/4
f 378/5/4 379/5/4 386/5/4
f 386/5/4 379/5/4 387/5/4
f 358/1/4 370/1/4 389/1/4
f 382/5/4 383/5/4 390/5/4
f 384/1/4 385/1/4 391/1/4
f 383/1/4 384/1/4 391/1/4
f 390/5/4 383/5/4 391/5/4
f 387/5/4 388/5/4 392/5/4
f 385/5/4 386/5/4 392/5/4
f 386/5/4 387/5/4 392/5/4
f 380/7/4 381/7/4 394/7/4
f 358/1/4 389/1/4 395/1/4
f 389/5/4 390/5/4 396/5/4
f 395/1/4 389/1/4 396/1/4
f 390/1/4 391/1/4 397/1/4
f 396/5/4 390/5/4 397/5/4
f 392/5/4 393/5/4 398/5/4
f 380/7/4 394/7/4 400/7/4
f 394/6/4 395/6/4 400/6/4
f 395/1/4 396/1/4 401/1/4
f 400/6/4 395/6/4 401/6/4
f 396/1/4 397/1/4 401/1/4
f 401/1/4 397/1/4 402/1/4
f 397/1/4 391/1/4 403/1/4
f 402/1/4 397/1/4 403/1/4
f 398/5/4 399/5/4 404/5/4
f 403/1/4 391/1/4 404/1/4
f 391/1/4 385/1/4 404/1/4
f 392/5/4 398/5/4 404/5/4
f 385/5/4 392/5/4 404/5/4
f 404/5/4 399/5/4 405/5/4
f 405/5/4 399/5/4 406/5/4
f 406/5/4 399/5/4 407/5/4
f 401/1/4 402/1/4 408/1/4
f 402/5/4 403/5/4 408/5/4
f 404/1/4 405/1/4 409/1/4
f 408/5/4 403/5/4 409/5/4
f 403/1/4 404/1/4 409/1/4
f 409/1/4 405/1/4 410/1/4
f 405/5/4 406/5/4 411/5/4
f 411/5/4 406/5/4 412/5/4
f 380/7/4 400/7/4 413/7/4
f 413/7/4 400/7/4 414/7/4
f 409/5/4 410/5/4 415/5/4
f 410/1/4 405/1/4 416/1/4
f 415/5/4 410/5/4 416/5/4
f 416/1/4 405/1/4 417/1/4
f 405/5/4 411/5/4 418/5/4
f 418/5/4 411/5/4 419/5/4
f 416/5/4 417/5/4 420/5/4
f 420/5/4 417/5/4 421/5/4
f 405/5/4 418/5/4 422/5/4
f 422/5/4 418/5/4 423/5/4
f 401/1/4 408/1/4 424/1/4
f 421/5/4 417/5/4 426/5/4
f 417/1/4 405/1/4 427/1/4
f 426/5/4 417/5/4 427/5/4
f 405/5/4 422/5/4 428/5/4
f 427/1/4 405/1/4 428/1/4
f 428/5/4 422/5/4 429/5/4
f 427/1/4 428/1/4 430/1/4
f 430/1/4 428/1/4 431/1/4
f 401/1/4 424/1/4 433/1/4
f 424/7/4 425/7/4 434/7/4
f 433/1/4 424/1/4 434/1/4
f 434/7/4 425/7/4 435/7/4
f 435/7/4 425/7/4 436/7/4
f 427/1/4 430/1/4 437/1/4
f 430/2/4 431/2/4 438/2/4
f 437/1/4 430/1/4 438/1/4
f 438/2/4 431/2/4 439/2/4
f 432/7/4 433/7/4 440/7/4
f 434/7/4 435/7/4 440/7/4
f 433/7/4 434/7/4 440/7/4
f 440/7/4 435/7/4 441/7/4
f 432/7/4 440/7/4 442/7/4
f 442/7/4 440/7/4 443/7/4
f 446/7/5 445/7/5 444/7/5
f 447/7/5 445/7/5 446/7/5
f 452/7/5 449/7/5 448/7/5
f 453/7/5 449/7/5 452/7/5
f 454/7/5 451/7/5 450/7/5
f 455/7/5 451/7/5 454/7/5
f 458/2/5 457/2/5 456/2/5
f 459/2/5 457/2/5 458/2/5
f 464/2/5 461/2/5 460/2/5
f 465/2/5 463/2/5 462/2/5
f 467/2/5 464/2/5 460/2/5
f 468/2/5 464/2/5 467/2/5
f 469/2/5 463/2/5 465/2/5
f 470/2/5 463/2/5 469/2/5
f 472/1/5 468/1/5 467/1/5
f 472/1/5 467/1/5 466/1/5
f 473/1/5 468/1/5 472/1/5
f 474/1/5 471/1/5 470/1/5
f 474/1/5 470/1/5 469/1/5
f 475/1/5 471/1/5 474/1/5
f 480/3/5 477/3/5 476/3/5
f 481/3/5 477/3/5 480/3/5
f 482/3/5 479/3/5 478/3/5
f 483/3/5 479/3/5 482/3/5
f 484/3/5 479/3/5 483/3/5
f 490/3/5 486/3/5 485/3/5
f 491/3/5 486/3/5 490/3/5
f 492/3/5 488/3/5 487/3/5
f 493/3/5 488/3/5 492/3/5
f 496/2/5 492/2/5 491/2/5
f 497/2/5 492/2/5 496/2/5
f 498/5/5 495/5/5 494/5/5
f 499/5/5 495/5/5 498/5/5
f 500/5/5 490/5/5 489/5/5
f 501/5/5 490/5/5 500/5/5
f 505/3/5 503/3/5 502/3/5
f 506/3/5 505/3/5 504/3/5
f 507/3/5 503/3/5 505/3/5
f 507/3/5 505/3/5 506/3/5
f 508/3/5 503/3/5 507/3/5
f 509/3/5 503/3/5 508/3/5
f 510/3/5 508/3/5 507/3/5
f 511/3/5 508/3/5 510/3/5
f 516/5/5 515/5/5 514/5/5
f 517/5/5 515/5/5 516/5/5
f 518/5/5 513/5/5 512/5/5
f 519/5/5 513/5/5 518/5/5
f 524/5/5 521/5/5 520/5/5
f 525/5/5 521/5/5 524/5/5
f 526/5/5 523/5/5 522/5/5
f 527/5/5 523/5/5 526/5/5
f 532/5/5 529/5/5 528/5/5
f 533/5/5 529/5/5 532/5/5
f 534/5/5 531/5/5 530/5/5
f 535/5/5 531/5/5 534/5/5
f 540/2/5 537/2/5 536/2/5
f 541/2/5 537/2/5 540/2/5
f 542/2/5 539/2/5 538/2/5
f 543/2/5 539/2/5 542/2/5
f 544/1/5 541/1/5 540/1/5
f 545/1/5 541/1/5 544/1/5
f 546/1/5 543/1/5 542/1/5
f 547/1/5 543/1/5 546/1/5
f 548/2/5 540/2/5 536/2/5
f 549/1/5 544/1/5 540/1/5
f 549/2/5 540/2/5 548/2/5
f 550/1/5 544/1/5 549/1/5
f 551/1/5 543/1/5 547/1/5
f 552/1/5 543/1/5 551/1/5
f 553/7/6 554/7/6 555/7/6
f 555/7/6 554/7/6 556/7/6
f 553/7/6 555/7/6 557/7/6
f 557/7/6 555/7/6 558/7/6
f 556/7/6 554/7/6 559/7/6
f 559/7/6 554/7/6 560/7/6
f 561/2/6 562/2/6 563/2/6
f 563/2/6 562/2/6 564/2/6
f 565/7/6 566/7/6 569/7/6
f 569/7/6 566/7/6 570/7/6
f 567/7/6 568/7/6 571/7/6
f 571/7/6 568/7/6 572/7/6
f 573/1/6 574/1/6 577/1/6
f 577/1/6 574/1/6 578/1/6
f 575/1/6 576/1/6 579/1/6
f 579/1/6 576/1/6 580/1/6
f 581/7/6 582/7/6 585/7/6
f 585/7/6 582/7/6 586/7/6
f 583/7/6 584/7/6 587/7/6
f 587/7/6 584/7/6 588/7/6
f 589/7/6 590/7/6 593/7/6
f 593/7/6 590/7/6 594/7/6
f 591/7/6 592/7/6 595/7/6
f 595/7/6 592/7/6 596/7/6
f 597/2/6 598/2/6 601/2/6
f 601/2/6 598/2/6 602/2/6
f 599/2/6 600/2/6 603/2/6
f 603/2/6 600/2/6 604/2/6
f 601/1/6 602/1/6 605/1/6
f 605/1/6 602/1/6 606/1/6
f 603/1/6 604/1/6 607/1/6
f 607/1/6 604/1/6 608/1/6
f 597/2/6 601/2/6 609/2/6
f 601/1/6 605/1/6 610/1/6
f 609/2/6 601/2/6 610/2/6
f 610/1/6 605/1/6 611/1/6
f 608/1/6 604/1/6 612/1/6
f 604/2/6 600/2/6 613/2/6
f 612/1/6 604/1/6 613/1/6
f 613/2/6 600/2/6 614/2/6
f 615/5/6 616/5/6 619/5/6
f 619/5/6 616/5/6 620/5/6
f 617/5/6 618/5/6 621/5/6
f 621/5/6 618/5/6 622/5/6
f 623/5/6 624/5/6 627/5/6
f 627/5/6 624/5/6 628/5/6
f 625/5/6 626/5/6 629/5/6
f 629/5/6 626/5/6 630/5/6
f 631/3/6 632/3/6 635/3/6
f 635/3/6 632/3/6 636/3/6
f 633/3/6 634/3/6 637/3/6
f 637/3/6 634/3/6 638/3/6
f 635/5/6 636/5/6 639/5/6
f 639/5/6 636/5/6 640/5/6
f 637/5/6 638/5/6 641/5/6
f 641/5/6 638/5/6 642/5/6
f 643/3/6 644/3/6 647/3/6
f 647/3/6 644/3/6 648/3/6
f 645/3/6 646/3/6 649/3/6
f 649/3/6 646/3/6 650/3/6
f 647/5/6 648/5/6 651/5/6
f 651/5/6 648/5/6 652/5/6
f 649/5/6 650/5/6 653/5/6
f 653/5/6 650/5/6 654/5/6
f 655/3/6 656/3/6 657/3/6
f 657/3/6 656/3/6 658/3/6
f 657/5/6 658/5/6 659/5/6
f 659/5/6 658/5/6 660/5/6
