# MagicaVoxel @ Ephtracy

# group
o 

# material
mtllib start.mtl
usemtl palette

# normals
vn -1 0 0
vn 1 0 0
vn 0 0 1
vn 0 0 -1
vn 0 -1 0
vn 0 1 0

# texcoords
vt 0.255859 0.5
vt 0.958984 0.5

# verts
v -1 2.8 2
v -1 2.8 1.7
v -1 3.5 2
v -1 3.5 1.7
v -0.9 2.7 2
v -0.9 2.7 1.7
v -0.9 2.8 2
v -0.9 2.8 1.7
v -0.9 3.5 2
v -0.9 3.5 1.7
v -0.9 3.6 2
v -0.9 3.6 1.7
v -0.8 2.6 2
v -0.8 2.6 1.7
v -0.8 2.7 2
v -0.8 2.7 1.7
v -0.8 3.6 2
v -0.8 3.6 1.7
v -0.8 3.7 2
v -0.8 3.7 1.7
v -0.7 2.5 2
v -0.7 2.5 1.7
v -0.7 2.6 2
v -0.7 2.6 1.7
v -0.7 3.7 2
v -0.7 3.7 1.7
v -0.7 3.8 2
v -0.7 3.8 1.7
v -0.0999999 2.8 2
v -0.0999999 2.8 1.7
v -0.0999999 3.5 2
v -0.0999999 3.5 1.7
v 0.3 2.9 2
v 0.3 2.9 1.7
v 0.3 3 2
v 0.3 3 1.7
v 0.3 3.3 2
v 0.3 3.3 1.7
v 0.3 3.4 2
v 0.3 3.4 1.7
v 0.4 3 2
v 0.4 3 1.7
v 0.4 3.1 2
v 0.4 3.1 1.7
v 0.4 3.2 2
v 0.4 3.2 1.7
v 0.4 3.3 2
v 0.4 3.3 1.7
v 0.5 3.1 2
v 0.5 3.1 1.7
v 0.5 3.2 2
v 0.5 3.2 1.7
v 1.1 2.6 2
v 1.1 2.6 1.7
v 1.1 2.7 2
v 1.1 2.7 1.7
v 1.1 3.6 2
v 1.1 3.6 1.7
v 1.1 3.7 2
v 1.1 3.7 1.7
v 1.2 2.7 2
v 1.2 2.7 1.7
v 1.2 2.8 2
v 1.2 2.8 1.7
v 1.2 3.5 2
v 1.2 3.5 1.7
v 1.2 3.6 2
v 1.2 3.6 1.7
v 1.3 2.8 2
v 1.3 2.8 1.7
v 1.3 3.5 2
v 1.3 3.5 1.7
v -0.9 2.8 2
v -0.9 2.8 1.7
v -0.9 3.5 2
v -0.9 3.5 1.7
v -0.8 2.7 2
v -0.8 2.7 1.7
v -0.8 2.8 2
v -0.8 2.8 1.7
v -0.8 3.5 2
v -0.8 3.5 1.7
v -0.8 3.6 2
v -0.8 3.6 1.7
v -0.7 2.6 2
v -0.7 2.6 1.7
v -0.7 2.7 2
v -0.7 2.7 1.7
v -0.7 3.6 2
v -0.7 3.6 1.7
v -0.7 3.7 2
v -0.7 3.7 1.7
v 1.19209e-07 2.9 2
v 1.19209e-07 2.9 1.7
v 1.19209e-07 3.4 2
v 1.19209e-07 3.4 1.7
v 0.3 2.8 2
v 0.3 2.8 1.7
v 0.3 2.9 2
v 0.3 2.9 1.7
v 0.3 3.4 2
v 0.3 3.4 1.7
v 0.3 3.5 2
v 0.3 3.5 1.7
v 0.4 2.9 2
v 0.4 2.9 1.7
v 0.4 3 2
v 0.4 3 1.7
v 0.4 3.3 2
v 0.4 3.3 1.7
v 0.4 3.4 2
v 0.4 3.4 1.7
v 0.5 3 2
v 0.5 3 1.7
v 0.5 3.1 2
v 0.5 3.1 1.7
v 0.5 3.2 2
v 0.5 3.2 1.7
v 0.5 3.3 2
v 0.5 3.3 1.7
v 0.6 3.1 2
v 0.6 3.1 1.7
v 0.6 3.2 2
v 0.6 3.2 1.7
v 1.1 2.5 2
v 1.1 2.5 1.7
v 1.1 2.6 2
v 1.1 2.6 1.7
v 1.1 3.7 2
v 1.1 3.7 1.7
v 1.1 3.8 2
v 1.1 3.8 1.7
v 1.2 2.6 2
v 1.2 2.6 1.7
v 1.2 2.7 2
v 1.2 2.7 1.7
v 1.2 3.6 2
v 1.2 3.6 1.7
v 1.2 3.7 2
v 1.2 3.7 1.7
v 1.3 2.7 2
v 1.3 2.7 1.7
v 1.3 2.8 2
v 1.3 2.8 1.7
v 1.3 3.5 2
v 1.3 3.5 1.7
v 1.3 3.6 2
v 1.3 3.6 1.7
v 1.4 2.8 2
v 1.4 2.8 1.7
v 1.4 3.5 2
v 1.4 3.5 1.7
v -1 2.8 2
v -1 3.5 2
v -0.9 2.7 2
v -0.9 2.8 2
v -0.9 3.5 2
v -0.9 3.6 2
v -0.8 2.6 2
v -0.8 2.7 2
v -0.8 2.8 2
v -0.8 3.5 2
v -0.8 3.6 2
v -0.8 3.7 2
v -0.7 2.5 2
v -0.7 2.6 2
v -0.7 2.7 2
v -0.7 3.6 2
v -0.7 3.7 2
v -0.7 3.8 2
v -0.0999999 2.8 2
v -0.0999999 3.5 2
v 1.19209e-07 2.9 2
v 1.19209e-07 3.4 2
v 0.3 2.8 2
v 0.3 2.9 2
v 0.3 3 2
v 0.3 3.3 2
v 0.3 3.4 2
v 0.3 3.5 2
v 0.4 2.9 2
v 0.4 3 2
v 0.4 3.1 2
v 0.4 3.2 2
v 0.4 3.3 2
v 0.4 3.4 2
v 0.5 3 2
v 0.5 3.1 2
v 0.5 3.2 2
v 0.5 3.3 2
v 0.6 3.1 2
v 0.6 3.2 2
v 1.1 2.5 2
v 1.1 2.6 2
v 1.1 2.7 2
v 1.1 3.6 2
v 1.1 3.7 2
v 1.1 3.8 2
v 1.2 2.6 2
v 1.2 2.7 2
v 1.2 2.8 2
v 1.2 3.5 2
v 1.2 3.6 2
v 1.2 3.7 2
v 1.3 2.7 2
v 1.3 2.8 2
v 1.3 3.5 2
v 1.3 3.6 2
v 1.4 2.8 2
v 1.4 3.5 2
v -1 2.8 1.7
v -1 3.5 1.7
v -0.9 2.7 1.7
v -0.9 2.8 1.7
v -0.9 3.5 1.7
v -0.9 3.6 1.7
v -0.8 2.6 1.7
v -0.8 2.7 1.7
v -0.8 2.8 1.7
v -0.8 3.5 1.7
v -0.8 3.6 1.7
v -0.8 3.7 1.7
v -0.7 2.5 1.7
v -0.7 2.6 1.7
v -0.7 2.7 1.7
v -0.7 3.6 1.7
v -0.7 3.7 1.7
v -0.7 3.8 1.7
v -0.0999999 2.8 1.7
v -0.0999999 3.5 1.7
v 1.19209e-07 2.9 1.7
v 1.19209e-07 3.4 1.7
v 0.3 2.8 1.7
v 0.3 2.9 1.7
v 0.3 3 1.7
v 0.3 3.3 1.7
v 0.3 3.4 1.7
v 0.3 3.5 1.7
v 0.4 2.9 1.7
v 0.4 3 1.7
v 0.4 3.1 1.7
v 0.4 3.2 1.7
v 0.4 3.3 1.7
v 0.4 3.4 1.7
v 0.5 3 1.7
v 0.5 3.1 1.7
v 0.5 3.2 1.7
v 0.5 3.3 1.7
v 0.6 3.1 1.7
v 0.6 3.2 1.7
v 1.1 2.5 1.7
v 1.1 2.6 1.7
v 1.1 2.7 1.7
v 1.1 3.6 1.7
v 1.1 3.7 1.7
v 1.1 3.8 1.7
v 1.2 2.6 1.7
v 1.2 2.7 1.7
v 1.2 2.8 1.7
v 1.2 3.5 1.7
v 1.2 3.6 1.7
v 1.2 3.7 1.7
v 1.3 2.7 1.7
v 1.3 2.8 1.7
v 1.3 3.5 1.7
v 1.3 3.6 1.7
v 1.4 2.8 1.7
v 1.4 3.5 1.7
v -0.7 2.5 2
v 1.1 2.5 2
v -0.7 2.5 1.7
v 1.1 2.5 1.7
v -0.8 2.6 2
v -0.7 2.6 2
v 1.1 2.6 2
v 1.2 2.6 2
v -0.8 2.6 1.7
v -0.7 2.6 1.7
v 1.1 2.6 1.7
v 1.2 2.6 1.7
v -0.9 2.7 2
v -0.8 2.7 2
v 1.2 2.7 2
v 1.3 2.7 2
v -0.9 2.7 1.7
v -0.8 2.7 1.7
v 1.2 2.7 1.7
v 1.3 2.7 1.7
v -1 2.8 2
v -0.9 2.8 2
v -0.0999999 2.8 2
v 0.3 2.8 2
v 1.3 2.8 2
v 1.4 2.8 2
v -1 2.8 1.7
v -0.9 2.8 1.7
v -0.0999999 2.8 1.7
v 0.3 2.8 1.7
v 1.3 2.8 1.7
v 1.4 2.8 1.7
v 0.3 2.9 2
v 0.4 2.9 2
v 0.3 2.9 1.7
v 0.4 2.9 1.7
v 0.4 3 2
v 0.5 3 2
v 0.4 3 1.7
v 0.5 3 1.7
v 0.5 3.1 2
v 0.6 3.1 2
v 0.5 3.1 1.7
v 0.6 3.1 1.7
v 0.4 3.2 2
v 0.5 3.2 2
v 0.4 3.2 1.7
v 0.5 3.2 1.7
v 0.3 3.3 2
v 0.4 3.3 2
v 0.3 3.3 1.7
v 0.4 3.3 1.7
v 1.19209e-07 3.4 2
v 0.3 3.4 2
v 1.19209e-07 3.4 1.7
v 0.3 3.4 1.7
v -0.9 3.5 2
v -0.8 3.5 2
v 1.2 3.5 2
v 1.3 3.5 2
v -0.9 3.5 1.7
v -0.8 3.5 1.7
v 1.2 3.5 1.7
v 1.3 3.5 1.7
v -0.8 3.6 2
v -0.7 3.6 2
v 1.1 3.6 2
v 1.2 3.6 2
v -0.8 3.6 1.7
v -0.7 3.6 1.7
v 1.1 3.6 1.7
v 1.2 3.6 1.7
v -0.7 3.7 2
v 1.1 3.7 2
v -0.7 3.7 1.7
v 1.1 3.7 1.7
v -0.7 2.6 2
v 1.1 2.6 2
v -0.7 2.6 1.7
v 1.1 2.6 1.7
v -0.8 2.7 2
v -0.7 2.7 2
v 1.1 2.7 2
v 1.2 2.7 2
v -0.8 2.7 1.7
v -0.7 2.7 1.7
v 1.1 2.7 1.7
v 1.2 2.7 1.7
v -0.9 2.8 2
v -0.8 2.8 2
v 1.2 2.8 2
v 1.3 2.8 2
v -0.9 2.8 1.7
v -0.8 2.8 1.7
v 1.2 2.8 1.7
v 1.3 2.8 1.7
v 1.19209e-07 2.9 2
v 0.3 2.9 2
v 1.19209e-07 2.9 1.7
v 0.3 2.9 1.7
v 0.3 3 2
v 0.4 3 2
v 0.3 3 1.7
v 0.4 3 1.7
v 0.4 3.1 2
v 0.5 3.1 2
v 0.4 3.1 1.7
v 0.5 3.1 1.7
v 0.5 3.2 2
v 0.6 3.2 2
v 0.5 3.2 1.7
v 0.6 3.2 1.7
v 0.4 3.3 2
v 0.5 3.3 2
v 0.4 3.3 1.7
v 0.5 3.3 1.7
v 0.3 3.4 2
v 0.4 3.4 2
v 0.3 3.4 1.7
v 0.4 3.4 1.7
v -1 3.5 2
v -0.9 3.5 2
v -0.0999999 3.5 2
v 0.3 3.5 2
v 1.3 3.5 2
v 1.4 3.5 2
v -1 3.5 1.7
v -0.9 3.5 1.7
v -0.0999999 3.5 1.7
v 0.3 3.5 1.7
v 1.3 3.5 1.7
v 1.4 3.5 1.7
v -0.9 3.6 2
v -0.8 3.6 2
v 1.2 3.6 2
v 1.3 3.6 2
v -0.9 3.6 1.7
v -0.8 3.6 1.7
v 1.2 3.6 1.7
v 1.3 3.6 1.7
v -0.8 3.7 2
v -0.7 3.7 2
v 1.1 3.7 2
v 1.2 3.7 2
v -0.8 3.7 1.7
v -0.7 3.7 1.7
v 1.1 3.7 1.7
v 1.2 3.7 1.7
v -0.7 3.8 2
v 1.1 3.8 2
v -0.7 3.8 1.7
v 1.1 3.8 1.7

# faces
f 3/2/1 2/2/1 1/2/1
f 4/2/1 2/2/1 3/2/1
f 7/2/1 6/2/1 5/2/1
f 8/2/1 6/2/1 7/2/1
f 11/2/1 10/2/1 9/2/1
f 12/2/1 10/2/1 11/2/1
f 15/2/1 14/2/1 13/2/1
f 16/2/1 14/2/1 15/2/1
f 19/2/1 18/2/1 17/2/1
f 20/2/1 18/2/1 19/2/1
f 23/2/1 22/2/1 21/2/1
f 24/2/1 22/2/1 23/2/1
f 27/2/1 26/2/1 25/2/1
f 28/2/1 26/2/1 27/2/1
f 31/1/1 30/1/1 29/1/1
f 32/1/1 30/1/1 31/1/1
f 35/1/1 34/1/1 33/1/1
f 36/1/1 34/1/1 35/1/1
f 39/1/1 38/1/1 37/1/1
f 40/1/1 38/1/1 39/1/1
f 43/1/1 42/1/1 41/1/1
f 44/1/1 42/1/1 43/1/1
f 47/1/1 46/1/1 45/1/1
f 48/1/1 46/1/1 47/1/1
f 51/1/1 50/1/1 49/1/1
f 52/1/1 50/1/1 51/1/1
f 55/2/1 54/2/1 53/2/1
f 56/2/1 54/2/1 55/2/1
f 59/2/1 58/2/1 57/2/1
f 60/2/1 58/2/1 59/2/1
f 63/2/1 62/2/1 61/2/1
f 64/2/1 62/2/1 63/2/1
f 67/2/1 66/2/1 65/2/1
f 68/2/1 66/2/1 67/2/1
f 71/2/1 70/2/1 69/2/1
f 72/2/1 70/2/1 71/2/1
f 73/2/2 74/2/2 75/2/2
f 75/2/2 74/2/2 76/2/2
f 77/2/2 78/2/2 79/2/2
f 79/2/2 78/2/2 80/2/2
f 81/2/2 82/2/2 83/2/2
f 83/2/2 82/2/2 84/2/2
f 85/2/2 86/2/2 87/2/2
f 87/2/2 86/2/2 88/2/2
f 89/2/2 90/2/2 91/2/2
f 91/2/2 90/2/2 92/2/2
f 93/1/2 94/1/2 95/1/2
f 95/1/2 94/1/2 96/1/2
f 97/1/2 98/1/2 99/1/2
f 99/1/2 98/1/2 100/1/2
f 101/1/2 102/1/2 103/1/2
f 103/1/2 102/1/2 104/1/2
f 105/1/2 106/1/2 107/1/2
f 107/1/2 106/1/2 108/1/2
f 109/1/2 110/1/2 111/1/2
f 111/1/2 110/1/2 112/1/2
f 113/1/2 114/1/2 115/1/2
f 115/1/2 114/1/2 116/1/2
f 117/1/2 118/1/2 119/1/2
f 119/1/2 118/1/2 120/1/2
f 121/1/2 122/1/2 123/1/2
f 123/1/2 122/1/2 124/1/2
f 125/2/2 126/2/2 127/2/2
f 127/2/2 126/2/2 128/2/2
f 129/2/2 130/2/2 131/2/2
f 131/2/2 130/2/2 132/2/2
f 133/2/2 134/2/2 135/2/2
f 135/2/2 134/2/2 136/2/2
f 137/2/2 138/2/2 139/2/2
f 139/2/2 138/2/2 140/2/2
f 141/2/2 142/2/2 143/2/2
f 143/2/2 142/2/2 144/2/2
f 145/2/2 146/2/2 147/2/2
f 147/2/2 146/2/2 148/2/2
f 149/2/2 150/2/2 151/2/2
f 151/2/2 150/2/2 152/2/2
f 156/2/3 154/2/3 153/2/3
f 157/2/3 154/2/3 156/2/3
f 160/2/3 156/2/3 155/2/3
f 161/2/3 156/2/3 160/2/3
f 162/2/3 158/2/3 157/2/3
f 163/2/3 158/2/3 162/2/3
f 166/2/3 160/2/3 159/2/3
f 167/2/3 160/2/3 166/2/3
f 168/2/3 164/2/3 163/2/3
f 169/2/3 164/2/3 168/2/3
f 173/1/3 172/1/3 171/1/3
f 174/1/3 172/1/3 173/1/3
f 175/1/3 173/1/3 171/1/3
f 176/1/3 173/1/3 175/1/3
f 179/1/3 172/1/3 174/1/3
f 180/1/3 172/1/3 179/1/3
f 181/1/3 177/1/3 176/1/3
f 182/1/3 177/1/3 181/1/3
f 185/1/3 179/1/3 178/1/3
f 186/1/3 179/1/3 185/1/3
f 187/1/3 183/1/3 182/1/3
f 188/1/3 183/1/3 187/1/3
f 189/1/3 185/1/3 184/1/3
f 190/1/3 185/1/3 189/1/3
f 191/1/3 189/1/3 188/1/3
f 192/1/3 189/1/3 191/1/3
f 193/2/3 166/2/3 165/2/3
f 194/2/3 166/2/3 193/2/3
f 197/2/3 170/2/3 169/2/3
f 198/2/3 170/2/3 197/2/3
f 199/2/3 195/2/3 194/2/3
f 200/2/3 195/2/3 199/2/3
f 203/2/3 197/2/3 196/2/3
f 204/2/3 197/2/3 203/2/3
f 205/2/3 201/2/3 200/2/3
f 206/2/3 201/2/3 205/2/3
f 207/2/3 203/2/3 202/2/3
f 208/2/3 203/2/3 207/2/3
f 209/2/3 207/2/3 206/2/3
f 210/2/3 207/2/3 209/2/3
f 211/2/4 212/2/4 214/2/4
f 214/2/4 212/2/4 215/2/4
f 213/2/4 214/2/4 218/2/4
f 218/2/4 214/2/4 219/2/4
f 215/2/4 216/2/4 220/2/4
f 220/2/4 216/2/4 221/2/4
f 217/2/4 218/2/4 224/2/4
f 224/2/4 218/2/4 225/2/4
f 221/2/4 222/2/4 226/2/4
f 226/2/4 222/2/4 227/2/4
f 229/1/4 230/1/4 231/1/4
f 231/1/4 230/1/4 232/1/4
f 229/1/4 231/1/4 233/1/4
f 233/1/4 231/1/4 234/1/4
f 232/1/4 230/1/4 237/1/4
f 237/1/4 230/1/4 238/1/4
f 234/1/4 235/1/4 239/1/4
f 239/1/4 235/1/4 240/1/4
f 236/1/4 237/1/4 243/1/4
f 243/1/4 237/1/4 244/1/4
f 240/1/4 241/1/4 245/1/4
f 245/1/4 241/1/4 246/1/4
f 242/1/4 243/1/4 247/1/4
f 247/1/4 243/1/4 248/1/4
f 246/1/4 247/1/4 249/1/4
f 249/1/4 247/1/4 250/1/4
f 223/2/4 224/2/4 251/2/4
f 251/2/4 224/2/4 252/2/4
f 227/2/4 228/2/4 255/2/4
f 255/2/4 228/2/4 256/2/4
f 252/2/4 253/2/4 257/2/4
f 257/2/4 253/2/4 258/2/4
f 254/2/4 255/2/4 261/2/4
f 261/2/4 255/2/4 262/2/4
f 258/2/4 259/2/4 263/2/4
f 263/2/4 259/2/4 264/2/4
f 260/2/4 261/2/4 265/2/4
f 265/2/4 261/2/4 266/2/4
f 264/2/4 265/2/4 267/2/4
f 267/2/4 265/2/4 268/2/4
f 271/2/5 270/2/5 269/2/5
f 272/2/5 270/2/5 271/2/5
f 277/2/5 274/2/5 273/2/5
f 278/2/5 274/2/5 277/2/5
f 279/2/5 276/2/5 275/2/5
f 280/2/5 276/2/5 279/2/5
f 285/2/5 282/2/5 281/2/5
f 286/2/5 282/2/5 285/2/5
f 287/2/5 284/2/5 283/2/5
f 288/2/5 284/2/5 287/2/5
f 295/2/5 290/2/5 289/2/5
f 296/2/5 290/2/5 295/2/5
f 297/1/5 292/1/5 291/1/5
f 298/1/5 292/1/5 297/1/5
f 299/2/5 294/2/5 293/2/5
f 300/2/5 294/2/5 299/2/5
f 303/1/5 302/1/5 301/1/5
f 304/1/5 302/1/5 303/1/5
f 307/1/5 306/1/5 305/1/5
f 308/1/5 306/1/5 307/1/5
f 311/1/5 310/1/5 309/1/5
f 312/1/5 310/1/5 311/1/5
f 315/1/5 314/1/5 313/1/5
f 316/1/5 314/1/5 315/1/5
f 319/1/5 318/1/5 317/1/5
f 320/1/5 318/1/5 319/1/5
f 323/1/5 322/1/5 321/1/5
f 324/1/5 322/1/5 323/1/5
f 329/2/5 326/2/5 325/2/5
f 330/2/5 326/2/5 329/2/5
f 331/2/5 328/2/5 327/2/5
f 332/2/5 328/2/5 331/2/5
f 337/2/5 334/2/5 333/2/5
f 338/2/5 334/2/5 337/2/5
f 339/2/5 336/2/5 335/2/5
f 340/2/5 336/2/5 339/2/5
f 343/2/5 342/2/5 341/2/5
f 344/2/5 342/2/5 343/2/5
f 345/2/6 346/2/6 347/2/6
f 347/2/6 346/2/6 348/2/6
f 349/2/6 350/2/6 353/2/6
f 353/2/6 350/2/6 354/2/6
f 351/2/6 352/2/6 355/2/6
f 355/2/6 352/2/6 356/2/6
f 357/2/6 358/2/6 361/2/6
f 361/2/6 358/2/6 362/2/6
f 359/2/6 360/2/6 363/2/6
f 363/2/6 360/2/6 364/2/6
f 365/1/6 366/1/6 367/1/6
f 367/1/6 366/1/6 368/1/6
f 369/1/6 370/1/6 371/1/6
f 371/1/6 370/1/6 372/1/6
f 373/1/6 374/1/6 375/1/6
f 375/1/6 374/1/6 376/1/6
f 377/1/6 378/1/6 379/1/6
f 379/1/6 378/1/6 380/1/6
f 381/1/6 382/1/6 383/1/6
f 383/1/6 382/1/6 384/1/6
f 385/1/6 386/1/6 387/1/6
f 387/1/6 386/1/6 388/1/6
f 389/2/6 390/2/6 395/2/6
f 395/2/6 390/2/6 396/2/6
f 391/1/6 392/1/6 397/1/6
f 397/1/6 392/1/6 398/1/6
f 393/2/6 394/2/6 399/2/6
f 399/2/6 394/2/6 400/2/6
f 401/2/6 402/2/6 405/2/6
f 405/2/6 402/2/6 406/2/6
f 403/2/6 404/2/6 407/2/6
f 407/2/6 404/2/6 408/2/6
f 409/2/6 410/2/6 413/2/6
f 413/2/6 410/2/6 414/2/6
f 411/2/6 412/2/6 415/2/6
f 415/2/6 412/2/6 416/2/6
f 417/2/6 418/2/6 419/2/6
f 419/2/6 418/2/6 420/2/6
